<svg width="534" height="72" viewBox="0 0 534 72" fill="none" xmlns="http://www.w3.org/2000/svg">
<path d="M38.184 35.528H62.088V64.28C58.536 66.872 54.744 68.776 50.712 69.992C46.712 71.176 42.472 71.768 37.992 71.768C32.264 71.768 27.08 70.888 22.44 69.128C17.8 67.336 13.832 64.856 10.536 61.688C7.24 58.52 4.696 54.76 2.904 50.408C1.112 46.056 0.216 41.304 0.216 36.152C0.216 30.936 1.064 26.152 2.76 21.8C4.488 17.448 6.936 13.704 10.104 10.568C13.272 7.432 17.096 4.984 21.576 3.224C26.088 1.46399 31.128 0.583994 36.696 0.583994C39.576 0.583994 42.264 0.823996 44.76 1.304C47.256 1.752 49.56 2.392 51.672 3.224C53.784 4.024 55.72 4.984 57.48 6.10399C59.24 7.224 60.84 8.456 62.28 9.8L58.104 16.232C57.464 17.256 56.632 17.88 55.608 18.104C54.584 18.328 53.464 18.072 52.248 17.336C51.096 16.632 49.96 16.008 48.84 15.464C47.752 14.888 46.584 14.392 45.336 13.976C44.088 13.56 42.728 13.24 41.256 13.016C39.784 12.792 38.088 12.68 36.168 12.68C32.936 12.68 30.008 13.24 27.384 14.36C24.76 15.48 22.52 17.064 20.664 19.112C18.84 21.16 17.432 23.624 16.44 26.504C15.448 29.384 14.952 32.6 14.952 36.152C14.952 39.992 15.496 43.432 16.584 46.472C17.672 49.48 19.208 52.024 21.192 54.104C23.176 56.184 25.544 57.768 28.296 58.856C31.08 59.944 34.168 60.488 37.56 60.488C39.864 60.488 41.912 60.264 43.704 59.816C45.528 59.336 47.304 58.696 49.032 57.896V46.184H41.16C40.232 46.184 39.496 45.944 38.952 45.464C38.44 44.952 38.184 44.312 38.184 43.544V35.528ZM108.355 12.632V30.536H131.587V41.432H108.355V59.72H138.211V71H93.8585V1.352H138.211V12.632H108.355Z" fill="#14B8AA"/>
<path d="M228.648 1.352V71H221.208C220.088 71 219.144 70.824 218.376 70.472C217.608 70.088 216.856 69.448 216.12 68.552L181.416 24.392C181.512 25.512 181.576 26.616 181.608 27.704C181.672 28.792 181.704 29.8 181.704 30.728V71H168.984V1.352H176.568C177.176 1.352 177.688 1.384 178.104 1.44799C178.552 1.48 178.952 1.592 179.304 1.784C179.656 1.944 179.992 2.168 180.312 2.456C180.632 2.744 180.984 3.128 181.368 3.608L216.312 47.96C216.184 46.744 216.088 45.576 216.024 44.456C215.96 43.304 215.927 42.216 215.927 41.192V1.352H228.648ZM330.53 36.152C330.53 41.24 329.666 45.96 327.938 50.312C326.242 54.664 323.826 58.424 320.69 61.592C317.586 64.76 313.842 67.256 309.458 69.08C305.074 70.872 300.21 71.768 294.866 71.768C289.522 71.768 284.658 70.872 280.274 69.08C275.89 67.256 272.13 64.76 268.994 61.592C265.858 58.424 263.426 54.664 261.698 50.312C260.002 45.96 259.154 41.24 259.154 36.152C259.154 31.064 260.002 26.36 261.698 22.04C263.426 17.688 265.858 13.928 268.994 10.76C272.13 7.592 275.89 5.112 280.274 3.32C284.658 1.49599 289.522 0.583994 294.866 0.583994C300.21 0.583994 305.074 1.49599 309.458 3.32C313.842 5.112 317.586 7.608 320.69 10.808C323.826 13.976 326.242 17.736 327.938 22.088C329.666 26.408 330.53 31.096 330.53 36.152ZM315.794 36.152C315.794 32.504 315.314 29.24 314.354 26.36C313.394 23.448 312.002 20.984 310.177 18.968C308.385 16.92 306.194 15.368 303.602 14.312C301.042 13.224 298.13 12.68 294.866 12.68C291.602 12.68 288.674 13.224 286.082 14.312C283.49 15.368 281.282 16.92 279.458 18.968C277.666 20.984 276.29 23.448 275.33 26.36C274.37 29.24 273.89 32.504 273.89 36.152C273.89 39.832 274.37 43.128 275.33 46.04C276.29 48.92 277.666 51.368 279.458 53.384C281.282 55.4 283.49 56.952 286.082 58.04C288.674 59.096 291.602 59.624 294.866 59.624C298.13 59.624 301.042 59.096 303.602 58.04C306.194 56.952 308.385 55.4 310.177 53.384C312.002 51.368 313.394 48.92 314.354 46.04C315.314 43.128 315.794 39.832 315.794 36.152Z" fill="#FF7A11"/>
<path d="M437.846 1.352V71H425.126V28.232C425.126 27.336 425.142 26.376 425.174 25.352C425.238 24.328 425.334 23.288 425.462 22.232L405.542 60.008C404.454 62.088 402.774 63.128 400.502 63.128H398.486C397.366 63.128 396.374 62.872 395.51 62.36C394.646 61.816 393.958 61.032 393.446 60.008L373.43 22.088C373.526 23.208 373.606 24.296 373.67 25.352C373.734 26.376 373.766 27.336 373.766 28.232V71H361.046V1.352H371.99C372.598 1.352 373.142 1.368 373.622 1.4C374.102 1.432 374.518 1.52799 374.87 1.68799C375.254 1.816 375.59 2.04 375.878 2.36C376.198 2.64799 376.502 3.064 376.79 3.608L396.278 40.76C396.886 41.88 397.446 43.032 397.958 44.216C398.502 45.4 399.014 46.616 399.494 47.864C399.974 46.584 400.47 45.336 400.982 44.12C401.526 42.904 402.102 41.736 402.71 40.616L422.054 3.608C422.342 3.064 422.646 2.64799 422.966 2.36C423.286 2.04 423.622 1.816 423.974 1.68799C424.358 1.52799 424.774 1.432 425.222 1.4C425.702 1.368 426.262 1.352 426.902 1.352H437.846ZM509.127 44.552L501.591 23.24C501.143 22.12 500.663 20.808 500.151 19.304C499.671 17.8 499.207 16.168 498.759 14.408C498.311 16.2 497.831 17.864 497.319 19.4C496.839 20.904 496.375 22.216 495.927 23.336L488.439 44.552H509.127ZM533.319 71H522.135C520.887 71 519.863 70.712 519.062 70.136C518.295 69.528 517.719 68.76 517.335 67.832L512.631 54.536H484.887L480.183 67.832C479.863 68.632 479.303 69.368 478.503 70.04C477.703 70.68 476.695 71 475.479 71H464.198L491.415 1.352H506.151L533.319 71Z" fill="#FFC43E"/>
</svg>
