<svg width="130" height="86" viewBox="0 0 130 86" fill="none" xmlns="http://www.w3.org/2000/svg">
<g id="undraw_booking_re_gw4j 1" clip-path="url(#clip0_2542_552)">
<rect id="Rectangle 6340" width="103" height="76" rx="5" fill="#EDF8F7"/>
<path id="Vector" d="M124.918 57.553C123.98 58.5774 122.816 59.34 121.552 59.9321H121.551C121.432 59.9884 121.313 60.0432 121.193 60.095H121.191L121.19 60.0965L121.188 60.095H121.187L121.187 60.0956L121.186 60.0961L121.186 60.0964L121.185 60.0965H121.184L121.182 60.095C121.181 60.0965 121.181 60.0965 121.179 60.095L121.177 60.0965L121.176 60.095H121.174C121.173 60.0965 121.173 60.0965 121.171 60.095H121.17C120.324 60.4603 119.456 60.7704 118.57 61.0235C113.362 62.4995 107.887 62.7851 102.553 61.8591C102.451 61.8408 102.351 61.8226 102.249 61.8043V49.4584C102.349 49.4157 102.451 49.3731 102.553 49.332C103.219 49.0565 103.893 48.8033 104.575 48.5725C105.557 48.2376 106.552 47.9504 107.561 47.711C110.852 46.9153 114.248 46.641 117.624 46.8981C118.238 46.9438 118.851 47.0098 119.462 47.096C120.74 47.2741 122.081 47.5846 123.261 48.1235H123.262C123.434 48.2041 123.603 48.2878 123.771 48.3777C124.819 48.9454 125.703 49.7263 126.243 50.7963C126.436 51.1806 126.576 51.5899 126.657 52.0125V52.0155C126.688 52.1617 126.709 52.3093 126.726 52.4554C126.918 54.2576 126.17 56.1861 124.918 57.553Z" fill="#6B9539"/>
<path id="Vector_2" d="M126.726 52.4554C126.711 52.4592 126.695 52.4612 126.68 52.4615C124.07 52.5757 121.463 52.7451 118.86 52.9699H118.855C118.845 52.9714 118.835 52.9714 118.825 52.973C116.152 53.2043 113.485 53.494 110.823 53.8421C110.71 53.8573 110.599 53.8725 110.488 53.8862C108.647 54.1313 106.81 54.4032 104.976 54.7021C104.167 54.8345 103.359 54.9725 102.553 55.1161C102.451 55.1344 102.351 55.1511 102.249 55.1709V54.7097C102.351 54.6899 102.453 54.6732 102.553 54.6549C105.238 54.18 107.932 53.7655 110.636 53.4113C111.315 53.32 111.996 53.2337 112.678 53.1526C114.646 52.9151 116.618 52.7101 118.593 52.5376C118.738 52.5254 118.881 52.5133 119.026 52.5011C121.554 52.2865 124.085 52.1236 126.621 52.0125C126.633 52.0119 126.645 52.013 126.657 52.0155C126.901 52.0368 126.953 52.4022 126.726 52.4554Z" fill="white"/>
<path id="Vector_3" d="M121.305 59.6464C118.053 59.6703 114.849 58.293 112.549 56.0132C111.9 55.3675 111.328 54.6488 110.845 53.8716C110.69 53.6232 110.327 53.8971 110.481 54.1434C112.267 57.005 115.243 59.0435 118.523 59.7931C119.455 60.0039 120.408 60.1058 121.363 60.0966C121.655 60.0945 121.595 59.6443 121.305 59.6464Z" fill="white"/>
<path id="Vector_4" d="M107.561 47.711C107.547 47.7538 107.522 47.7922 107.488 47.8223C107.455 47.8525 107.414 47.8734 107.37 47.883C106.625 48.078 105.905 48.359 105.225 48.7201C104.231 49.2442 103.329 49.9253 102.553 50.7369C102.512 50.778 102.473 50.8191 102.434 50.8618C102.37 50.9287 102.309 50.9972 102.249 51.0672V50.4036C102.346 50.3001 102.448 50.1981 102.553 50.1007C103.166 49.5149 103.844 49.002 104.575 48.5725C105.557 48.2376 106.552 47.9504 107.561 47.711Z" fill="white"/>
<path id="Vector_5" d="M123.53 48.0035C121.462 48.8916 119.731 50.4159 118.59 52.3546C118.567 52.41 118.566 52.4724 118.589 52.5281C118.612 52.5837 118.655 52.6283 118.711 52.652C118.766 52.6739 118.828 52.6737 118.884 52.6512C118.939 52.6287 118.984 52.5858 119.008 52.5313C120.098 50.7003 121.741 49.262 123.701 48.4241C123.97 48.3093 123.8 47.8885 123.53 48.0035Z" fill="white"/>
<path id="Vector_6" d="M129.766 35.0758C129.412 36.4183 128.734 37.6345 127.891 38.7441L127.89 38.7457C127.812 38.8492 127.731 38.9542 127.648 39.0547V39.0562C127.063 39.7761 126.431 40.457 125.757 41.0943C123.333 43.4016 120.595 45.3555 117.624 46.8982C112.95 49.3366 107.727 50.7781 102.553 50.8602C102.514 50.8618 102.474 50.8618 102.434 50.8618C102.372 50.8633 102.309 50.8633 102.249 50.8633V43.9452C102.348 43.7565 102.45 43.5678 102.553 43.3805C103.898 40.9641 105.537 38.7237 107.434 36.7106C107.48 36.6604 107.527 36.6101 107.574 36.5614C108.287 35.8095 109.035 35.0936 109.817 34.4137C112.827 31.7707 116.304 29.7134 120.071 28.348C121.286 27.9127 122.617 27.5641 123.913 27.4956C124.103 27.485 124.292 27.4804 124.483 27.4819C125.676 27.4987 126.82 27.7803 127.797 28.4774C128.147 28.7284 128.461 29.0259 128.73 29.3618C128.824 29.479 128.911 29.5992 128.995 29.7225V29.724C130.003 31.2309 130.238 33.2843 129.766 35.0758Z" fill="#6B9539"/>
<path id="Vector_7" d="M128.995 29.7225V29.724C128.983 29.7339 128.971 29.7425 128.958 29.7499C126.703 31.0605 124.476 32.4187 122.278 33.8246C122.275 33.8262 122.273 33.8277 122.27 33.8292C122.261 33.8353 122.252 33.8409 122.243 33.8459C119.983 35.292 117.755 36.7867 115.559 38.3301C115.468 38.3941 115.375 38.4595 115.282 38.525C113.766 39.595 112.265 40.6879 110.78 41.8036C107.977 43.9133 105.234 46.1011 102.553 48.367C102.451 48.4522 102.351 48.539 102.249 48.6258V48.0337C102.349 47.9469 102.451 47.8601 102.553 47.7749C103.58 46.9088 104.617 46.0549 105.662 45.2132C105.974 44.962 106.288 44.7109 106.602 44.4628C109.391 42.245 112.242 40.11 115.155 38.0577H115.157C115.73 37.6543 116.304 37.2545 116.879 36.8582C118.512 35.7349 120.164 34.6385 121.834 33.5689C121.955 33.4913 122.077 33.4137 122.198 33.336C124.336 31.9722 126.502 30.653 128.696 29.3785C128.707 29.372 128.718 29.3664 128.73 29.3618C128.958 29.2704 129.173 29.5718 128.995 29.7225Z" fill="white"/>
<path id="Vector_8" d="M127.539 38.6061C124.67 40.1361 121.193 40.4029 118.096 39.4513C117.221 39.1806 116.38 38.8096 115.591 38.3456C115.338 38.1976 115.144 38.6084 115.395 38.7551C118.307 40.4605 121.89 40.885 125.144 40.0266C126.067 39.781 126.958 39.429 127.8 38.9777C128.057 38.8405 127.794 38.4699 127.539 38.6061Z" fill="white"/>
<path id="Vector_9" d="M106.077 44.1754C105.935 43.3785 105.886 42.5679 105.932 41.7599C106.034 39.917 106.599 38.1295 107.574 36.5617C108.288 35.81 109.036 35.094 109.818 34.4137C109.825 34.4581 109.821 34.5038 109.805 34.5461C109.79 34.5884 109.763 34.6259 109.729 34.6549C109.16 35.1735 108.653 35.7562 108.218 36.3913C106.666 38.6547 106.06 41.4344 106.53 44.1377C106.537 44.1684 106.537 44.2004 106.528 44.2309C106.52 44.2614 106.504 44.2892 106.482 44.3116C106.449 44.34 106.41 44.3593 106.367 44.3677C106.325 44.3761 106.281 44.3733 106.24 44.3595C106.199 44.3457 106.162 44.3215 106.134 44.2892C106.105 44.2569 106.085 44.2176 106.077 44.1754Z" fill="white"/>
<path id="Vector_10" d="M124.095 27.2631C122.677 29.0094 121.853 31.1623 121.744 33.4087C121.749 33.4685 121.778 33.5239 121.824 33.5627C121.87 33.6015 121.929 33.6206 121.989 33.616C122.048 33.6096 122.103 33.5806 122.142 33.535C122.18 33.4894 122.2 33.4307 122.196 33.371C122.31 31.2441 123.096 29.208 124.442 27.5563C124.627 27.3299 124.281 27.0362 124.095 27.2631Z" fill="white"/>
<path id="Vector_11" d="M108.315 32.2645V32.266C108.304 32.3969 108.292 32.5263 108.278 32.6557V32.6587C108.172 33.5796 108.007 34.4928 107.783 35.3924C107.676 35.8338 107.561 36.2722 107.434 36.7106C107.419 36.7669 107.402 36.8232 107.385 36.878V36.8795C107.013 38.1545 106.569 39.4072 106.054 40.6316C105.106 42.8858 103.933 45.0388 102.553 47.058C102.454 47.2056 102.352 47.3533 102.249 47.4994V23.6629C102.351 23.6569 102.451 23.6569 102.553 23.6599C102.602 23.6599 102.651 23.6614 102.7 23.6645C103.13 23.687 103.554 23.7695 103.961 23.9095C104.105 23.9567 104.243 24.01 104.38 24.0694C106.043 24.7969 107.349 26.4012 107.916 28.1654C108.341 29.4866 108.426 30.8763 108.315 32.2645Z" fill="#6B9539"/>
<path id="Vector_12" d="M104.38 24.0693C104.377 24.0843 104.371 24.0986 104.364 24.112C103.746 25.3099 103.143 26.5139 102.553 27.724C102.451 27.9325 102.349 28.1425 102.249 28.3511V27.316C102.349 27.109 102.451 26.902 102.553 26.695C103.009 25.7726 103.472 24.8542 103.943 23.94C103.948 23.9293 103.954 23.9191 103.961 23.9095C104.102 23.7086 104.449 23.8456 104.38 24.0693Z" fill="white"/>
<path id="Vector_13" d="M108.364 32.5095C108.336 32.5582 108.309 32.6069 108.278 32.6556C107.831 33.4345 107.298 34.1615 106.69 34.8231C105.523 36.0883 104.117 37.1109 102.553 37.8324C102.453 37.8811 102.351 37.9268 102.249 37.9694V37.4747C102.351 37.429 102.453 37.3818 102.553 37.3331C104.817 36.2546 106.697 34.5118 107.943 32.3375C107.961 32.3065 107.985 32.2796 108.015 32.2589C108.044 32.2381 108.077 32.2238 108.113 32.217C108.148 32.2102 108.184 32.2111 108.219 32.2195C108.254 32.228 108.287 32.2438 108.315 32.266C108.334 32.2788 108.351 32.2952 108.363 32.3144C108.376 32.3335 108.385 32.355 108.39 32.3776C108.394 32.4003 108.394 32.4236 108.39 32.4462C108.385 32.4688 108.376 32.4903 108.364 32.5095Z" fill="white"/>
<path id="Vector_14" d="M103 5.14679V17H102.694V16.8737H0.306092V17H0V5.14679C0.00131442 3.78219 0.533843 2.47386 1.48071 1.50894C2.42759 0.544018 3.71144 0.00133947 5.05052 0H97.9495C99.2886 0.00133947 100.572 0.544018 101.519 1.50894C102.466 2.47386 102.999 3.78219 103 5.14679Z" fill="#FF7A11"/>
<path id="Vector_15" d="M20.7239 11.3398C22.4071 11.3398 23.7716 9.97687 23.7716 8.29558C23.7716 6.61428 22.4071 5.25133 20.7239 5.25133C19.0407 5.25133 17.6763 6.61428 17.6763 8.29558C17.6763 9.97687 19.0407 11.3398 20.7239 11.3398Z" fill="#FFF0CD"/>
<path id="Vector_16" d="M81.8294 11.3398C83.5126 11.3398 84.877 9.97687 84.877 8.29558C84.877 6.61428 83.5126 5.25133 81.8294 5.25133C80.1462 5.25133 78.7817 6.61428 78.7817 8.29558C78.7817 9.97687 80.1462 11.3398 81.8294 11.3398Z" fill="#FFF0CD"/>
<path id="Vector_17" d="M29.5293 42.2392H11.3994C10.6314 42.2384 9.89502 41.9332 9.35191 41.3907C8.80881 40.8482 8.50331 40.1127 8.50244 39.3455V30.7862C8.50331 30.0189 8.80881 29.2834 9.35191 28.7409C9.89502 28.1984 10.6314 27.8932 11.3994 27.8924H29.5293C30.2974 27.8932 31.0337 28.1984 31.5769 28.7409C32.12 29.2834 32.4255 30.0189 32.4263 30.7862V39.3455C32.4255 40.1127 32.12 40.8482 31.5769 41.3907C31.0337 41.9332 30.2974 42.2384 29.5293 42.2392Z" fill="#01988C"/>
<path id="Vector_18" d="M60.3711 42.2392H42.2412C41.4732 42.2384 40.7368 41.9332 40.1937 41.3907C39.6506 40.8482 39.3451 40.1127 39.3442 39.3455V30.7862C39.3451 30.0189 39.6506 29.2834 40.1937 28.7409C40.7368 28.1984 41.4732 27.8932 42.2412 27.8924H60.3711C61.1392 27.8932 61.8755 28.1984 62.4186 28.7409C62.9618 29.2834 63.2673 30.0189 63.2681 30.7862V39.3455C63.2673 40.1127 62.9618 40.8482 62.4186 41.3907C61.8755 41.9332 61.1392 42.2384 60.3711 42.2392Z" fill="#01988C"/>
<path id="Vector_19" d="M60.3715 64.3544H42.2416C41.4503 64.3535 40.6916 64.0391 40.132 63.4802C39.5725 62.9212 39.2577 62.1634 39.2568 61.3729V52.8135C39.2577 52.0231 39.5725 51.2652 40.132 50.7063C40.6916 50.1474 41.4503 49.833 42.2416 49.8321H60.3715C61.1628 49.833 61.9215 50.1474 62.4811 50.7063C63.0407 51.2652 63.3554 52.0231 63.3563 52.8135V61.3729C63.3554 62.1634 63.0407 62.9212 62.4811 63.4801C61.9215 64.0391 61.1628 64.3535 60.3715 64.3544Z" fill="white"/>
<path id="Vector_20" d="M29.4701 64.3544H11.3403C10.5489 64.3535 9.79024 64.0391 9.23068 63.4801C8.67111 62.9212 8.35636 62.1634 8.35547 61.3729V52.8135C8.35636 52.0231 8.67111 51.2652 9.23068 50.7063C9.79024 50.1474 10.5489 49.833 11.3403 49.8321H29.4701C30.2615 49.833 31.0202 50.1474 31.5797 50.7063C32.1393 51.2652 32.454 52.0231 32.4549 52.8135V61.3729C32.454 62.1634 32.1393 62.9212 31.5797 63.4801C31.0202 64.0391 30.2615 64.3535 29.4701 64.3544Z" fill="white"/>
<path id="Vector_21" d="M91.2133 64.3544H73.0834C72.2921 64.3535 71.5334 64.0391 70.9738 63.4801C70.4143 62.9212 70.0995 62.1634 70.0986 61.3729V52.8135C70.0995 52.0231 70.4143 51.2652 70.9738 50.7063C71.5334 50.1474 72.2921 49.833 73.0834 49.8321H91.2133C92.0046 49.833 92.7633 50.1474 93.3229 50.7063C93.8824 51.2652 94.1972 52.0231 94.1981 52.8135V61.3729C94.1972 62.1634 93.8824 62.9212 93.3229 63.4801C92.7633 64.0391 92.0046 64.3535 91.2133 64.3544Z" fill="white"/>
<path id="Vector_22" d="M91.2133 42.2564H73.0834C72.2921 42.2556 71.5334 41.9411 70.9738 41.3822C70.4143 40.8233 70.0995 40.0654 70.0986 39.275V30.7156C70.0995 29.9251 70.4143 29.1673 70.9738 28.6084C71.5334 28.0494 72.2921 27.735 73.0834 27.7341H91.2133C92.0046 27.735 92.7633 28.0494 93.3229 28.6084C93.8824 29.1673 94.1972 29.9251 94.1981 30.7156V39.275C94.1972 40.0654 93.8824 40.8233 93.3229 41.3822C92.7633 41.9411 92.0046 42.2556 91.2133 42.2564Z" fill="white"/>
<path id="Vector_23" d="M20.4645 39.9765C23.1796 39.9765 25.3806 37.7779 25.3806 35.0658C25.3806 32.3537 23.1796 30.1552 20.4645 30.1552C17.7494 30.1552 15.5483 32.3537 15.5483 35.0658C15.5483 37.7779 17.7494 39.9765 20.4645 39.9765Z" fill="white"/>
<path id="Vector_24" d="M19.9772 36.9391C19.8666 36.9393 19.7589 36.9036 19.6704 36.8373L19.6649 36.8332L18.5096 35.9496C18.456 35.9087 18.4111 35.8576 18.3772 35.7993C18.3434 35.741 18.3215 35.6767 18.3126 35.6099C18.3037 35.5431 18.3081 35.4752 18.3255 35.4101C18.3429 35.345 18.3729 35.284 18.414 35.2305C18.455 35.177 18.5061 35.1321 18.5645 35.0984C18.6229 35.0647 18.6874 35.0428 18.7543 35.034C18.8212 35.0252 18.8891 35.0297 18.9543 35.0471C19.0194 35.0645 19.0805 35.0946 19.134 35.1357L19.8823 35.7088L21.6507 33.4051C21.6917 33.3517 21.7429 33.3068 21.8013 33.2732C21.8596 33.2395 21.9241 33.2176 21.9909 33.2088C22.0577 33.2 22.1256 33.2044 22.1907 33.2218C22.2558 33.2392 22.3169 33.2693 22.3704 33.3102L22.3594 33.3251L22.3707 33.3104C22.4786 33.3933 22.5492 33.5155 22.567 33.6502C22.5848 33.785 22.5483 33.9213 22.4657 34.0293L20.3856 36.739C20.3375 36.8015 20.2756 36.852 20.2048 36.8867C20.134 36.9214 20.0561 36.9393 19.9772 36.9391Z" fill="#6B9539"/>
<path id="Vector_25" d="M51.3942 39.9059C54.1093 39.9059 56.3103 37.7074 56.3103 34.9953C56.3103 32.2832 54.1093 30.0846 51.3942 30.0846C48.6791 30.0846 46.478 32.2832 46.478 34.9953C46.478 37.7074 48.6791 39.9059 51.3942 39.9059Z" fill="white"/>
<path id="Vector_26" d="M50.907 36.8686C50.7964 36.8688 50.6887 36.8331 50.6002 36.7668L50.5947 36.7627L49.4394 35.8791C49.3313 35.7964 49.2606 35.6742 49.2427 35.5394C49.2249 35.4046 49.2613 35.2682 49.3441 35.1603C49.4269 35.0524 49.5493 34.9817 49.6842 34.9639C49.8192 34.946 49.9557 34.9824 50.0637 35.0651L50.8121 35.6383L52.5805 33.3346C52.6215 33.2812 52.6727 33.2363 52.731 33.2026C52.7894 33.169 52.8538 33.1471 52.9207 33.1383C52.9875 33.1295 53.0554 33.1339 53.1205 33.1513C53.1856 33.1687 53.2467 33.1987 53.3002 33.2397L53.2892 33.2546L53.3004 33.2399C53.4083 33.3228 53.4789 33.445 53.4967 33.5797C53.5145 33.7145 53.4781 33.8508 53.3954 33.9588L51.3153 36.6685C51.2672 36.7309 51.2054 36.7815 51.1345 36.8162C51.0637 36.8509 50.9859 36.8688 50.907 36.8686Z" fill="#6B9539"/>
<path id="Vector_27" d="M84.6197 58.1679C84.7812 57.9915 84.902 57.7819 84.9736 57.5538C85.0452 57.3257 85.0659 57.0847 85.0342 56.8477C85.0025 56.6108 84.9191 56.3837 84.7901 56.1824C84.661 55.9811 84.4893 55.8105 84.287 55.6827L81.5425 41.044L78.2046 42.2804L81.952 56.281C81.7595 56.6345 81.7036 57.0464 81.7948 57.4384C81.886 57.8304 82.1179 58.1754 82.4468 58.408C82.7756 58.6406 83.1784 58.7446 83.5789 58.7004C83.9794 58.6561 84.3497 58.4667 84.6197 58.1679Z" fill="#A0616A"/>
<path id="Vector_28" d="M57.9855 35.8309C57.9938 35.9217 57.9949 36.0132 57.9888 36.1042L64.4788 41.0937L66.3192 40.3388L67.8228 42.9643L64.6947 44.617C64.442 44.7505 64.1527 44.7985 63.8704 44.7539C63.588 44.7092 63.3278 44.5743 63.1287 44.3693L56.6417 37.6888C56.2983 37.7662 55.9395 37.7373 55.6129 37.6059C55.2864 37.4746 55.0076 37.2471 54.8137 36.9537C54.6197 36.6602 54.5198 36.3148 54.5272 35.9632C54.5347 35.6117 54.649 35.2707 54.8552 34.9857C55.0613 34.7007 55.3495 34.4851 55.6813 34.3677C56.0131 34.2502 56.3728 34.2364 56.7126 34.3282C57.0524 34.4199 57.3562 34.6129 57.5836 34.8813C57.811 35.1497 57.9512 35.4809 57.9855 35.8309Z" fill="#A0616A"/>
<path id="Vector_29" d="M73.1475 84.1505H71.2795L70.3906 78.4748L73.148 78.4749L73.1475 84.1505Z" fill="#A0616A"/>
<path id="Vector_30" d="M73.6243 85.9594L67.6006 85.9592V85.8831C67.6006 85.5755 67.6612 85.271 67.779 84.9868C67.8969 84.7027 68.0696 84.4445 68.2873 84.227C68.505 84.0096 68.7635 83.8371 69.048 83.7194C69.3324 83.6017 69.6373 83.5411 69.9452 83.5411L73.6244 83.5413L73.6243 85.9594Z" fill="#464F53"/>
<path id="Vector_31" d="M80.1573 84.1505H78.2892L77.4004 78.4748L80.1577 78.4749L80.1573 84.1505Z" fill="#A0616A"/>
<path id="Vector_32" d="M80.6336 85.9594L74.6099 85.9592V85.8831C74.6099 85.5755 74.6705 85.271 74.7883 84.9868C74.9062 84.7027 75.0789 84.4445 75.2966 84.227C75.5143 84.0096 75.7728 83.8371 76.0572 83.7194C76.3417 83.6017 76.6466 83.5411 76.9545 83.5411L80.6337 83.5413L80.6336 85.9594Z" fill="#464F53"/>
<path id="Vector_33" d="M70.8919 83.0287C70.7214 83.0289 70.5569 82.9654 70.4308 82.8507C70.3046 82.7361 70.2259 82.5785 70.21 82.4089L68.582 60.5376L68.659 60.5313L79.8623 59.6115L79.8653 59.691L80.7559 82.3479C80.7593 82.44 80.7442 82.5318 80.7113 82.6178C80.6784 82.7039 80.6285 82.7824 80.5645 82.8487C80.5005 82.9151 80.4238 82.9678 80.3389 83.0039C80.2541 83.0399 80.1628 83.0585 80.0706 83.0585H77.8739C77.7099 83.0592 77.5511 83.001 77.4267 82.8943C77.3022 82.7876 77.2204 82.6397 77.1962 82.4777L74.2131 64.1749C74.2102 64.156 74.2003 64.1389 74.1853 64.127C74.1703 64.1151 74.1514 64.1092 74.1323 64.1106C74.1132 64.112 74.0954 64.1205 74.0823 64.1344C74.0692 64.1484 74.0618 64.1668 74.0617 64.1859L73.9263 82.2571C73.9249 82.4316 73.857 82.5991 73.7363 82.7253C73.6155 82.8515 73.4512 82.9269 73.2767 82.9363L70.9287 83.0277C70.9164 83.0284 70.9041 83.0287 70.8919 83.0287Z" fill="#464F53"/>
<path id="Vector_34" d="M72.8042 32.897C74.8712 32.897 76.5469 31.2232 76.5469 29.1585C76.5469 27.0938 74.8712 25.42 72.8042 25.42C70.7372 25.42 69.0615 27.0938 69.0615 29.1585C69.0615 31.2232 70.7372 32.897 72.8042 32.897Z" fill="#A0616A"/>
<path id="Vector_35" d="M73.5283 61.9324C71.8924 61.9275 70.2645 61.7053 68.6874 61.2715C68.5356 61.2274 68.4037 61.1324 68.3139 61.0024C68.224 60.8725 68.1818 60.7156 68.1943 60.5582C68.6981 52.9943 68.8166 47.1244 67.7571 43.0631C67.3055 41.3321 67.5105 39.509 68.3195 38.0614C69.5371 35.8828 71.7749 34.5568 74.1619 34.6026C74.276 34.6047 74.3912 34.6088 74.5075 34.6147C78.1301 34.8011 80.9529 38.0746 80.8 41.9121L80.0714 60.2032C80.0687 60.3367 80.0265 60.4663 79.9502 60.5759C79.8738 60.6854 79.7667 60.7699 79.6424 60.8188C77.6877 61.5533 75.6167 61.9305 73.5283 61.9324Z" fill="#FF7A11"/>
<path id="Vector_36" d="M68.3733 44.4675L65.5698 41.0359C65.49 40.9383 65.4323 40.8246 65.4005 40.7027C65.3686 40.5807 65.3635 40.4534 65.3854 40.3292C65.4073 40.2051 65.4557 40.0872 65.5274 39.9835C65.599 39.8797 65.6922 39.7926 65.8006 39.7281L69.5981 37.4678C70.1006 37.0628 70.7432 36.8735 71.3852 36.9412C72.0272 37.0089 72.6161 37.3281 73.0228 37.8289C73.4295 38.3297 73.6207 38.9711 73.5546 39.6126C73.4885 40.254 73.1705 40.8431 72.6702 41.2506L69.7022 44.5039C69.6172 44.597 69.5131 44.6707 69.397 44.72C69.2809 44.7693 69.1555 44.7931 69.0294 44.7896C68.9033 44.7862 68.7794 44.7556 68.6662 44.7C68.5529 44.6444 68.453 44.5651 68.3733 44.4675Z" fill="#FF7A11"/>
<path id="Vector_37" d="M77.1924 44.0369C77.0772 43.9854 76.9745 43.9097 76.8913 43.815C76.8081 43.7203 76.7463 43.6087 76.7102 43.488L75.4482 39.2709C75.1742 38.6869 75.1433 38.0183 75.3622 37.4116C75.5811 36.8049 76.0319 36.3097 76.6159 36.0346C77.1998 35.7595 77.8691 35.7269 78.477 35.9441C79.0849 36.1612 79.5818 36.6104 79.8587 37.1929L82.2993 40.8747C82.3689 40.9798 82.4151 41.0986 82.4346 41.2231C82.4541 41.3476 82.4465 41.4749 82.4124 41.5962C82.3782 41.7175 82.3183 41.8301 82.2367 41.9262C82.1551 42.0223 82.0537 42.0997 81.9394 42.1531L77.9235 44.0308C77.8092 44.0843 77.6848 44.1125 77.5586 44.1136C77.4324 44.1146 77.3075 44.0884 77.1924 44.0369Z" fill="#FF7A11"/>
<path id="Vector_38" d="M74.6536 32.226L71.8793 31.5917C71.5932 31.5263 71.2494 31.4015 71.2097 31.1109C71.1563 30.7205 71.7188 30.4485 71.667 30.0578C71.6167 29.6795 71.1043 29.6307 70.7389 29.519C70.3986 29.3998 70.1181 29.153 69.9568 28.8308C69.7955 28.5086 69.766 28.1364 69.8745 27.7929C69.4792 28.3494 68.576 28.397 68.0632 27.9462C67.5505 27.4953 67.4521 26.6773 67.7601 26.0682C67.9264 25.769 68.1611 25.5133 68.4451 25.3218C68.729 25.1303 69.0542 25.0084 69.3942 24.9661C70.0778 24.8887 70.7689 25.0174 71.3787 25.3357C71.4193 24.9044 71.9584 24.7296 72.392 24.7257C73.2928 24.7362 74.168 25.0269 74.8957 25.5575C75.6233 26.088 76.1673 26.8319 76.452 27.6857C76.9841 29.3984 76.6282 31.2758 75.1393 32.2779L74.6536 32.226Z" fill="#464F53"/>
</g>
<defs>
<clipPath id="clip0_2542_552">
<rect width="130" height="86" fill="white"/>
</clipPath>
</defs>
</svg>
