<svg width="20" height="20" viewBox="0 0 20 20" fill="none" xmlns="http://www.w3.org/2000/svg">
<mask id="mask0_2496_496" style="mask-type:alpha" maskUnits="userSpaceOnUse" x="0" y="0" width="20" height="20">
<rect width="20" height="20" fill="#D9D9D9"/>
</mask>
<g mask="url(#mask0_2496_496)">
<path d="M6 4.87498C5.23611 5.47873 4.62847 6.22311 4.17708 7.10811C3.72569 7.99324 3.5 8.9572 3.5 9.99998C3.5 11.5139 3.95833 12.8507 4.875 14.0104C5.79167 15.1701 6.95042 15.9296 8.35125 16.2887C8.54764 16.3462 8.70486 16.4592 8.82292 16.6277C8.94097 16.796 9 16.98 9 17.1798C9 17.3794 8.93056 17.5451 8.79167 17.6771C8.65278 17.809 8.48611 17.8541 8.29167 17.8125C6.47222 17.4236 4.96875 16.5069 3.78125 15.0625C2.59375 13.618 2 11.9305 2 9.99998C2 8.7929 2.24306 7.67859 2.72917 6.65706C3.21528 5.63567 3.875 4.74998 4.70833 3.99998H3.75C3.5375 3.99998 3.35938 3.92852 3.21563 3.78561C3.07188 3.64269 3 3.46561 3 3.25436C3 3.04311 3.07174 2.86456 3.21521 2.71873C3.35882 2.5729 3.53667 2.49998 3.74875 2.49998H6.74417C6.95639 2.49998 7.13542 2.57172 7.28125 2.71519C7.42708 2.8588 7.5 3.03665 7.5 3.24873V6.24415C7.5 6.45637 7.42854 6.6354 7.28562 6.78123C7.14271 6.92706 6.96562 6.99998 6.75437 6.99998C6.54313 6.99998 6.36458 6.92811 6.21875 6.78436C6.07292 6.64061 6 6.46248 6 6.24998V4.87498ZM8.9375 10.875L12.3125 7.52081C12.4653 7.36804 12.6389 7.29165 12.8333 7.29165C13.0278 7.29165 13.2047 7.36804 13.3642 7.52081C13.5103 7.67359 13.5833 7.85068 13.5833 8.05206C13.5833 8.25345 13.5069 8.43054 13.3542 8.58331L9.45833 12.4791C9.31056 12.6319 9.13819 12.7083 8.94125 12.7083C8.74431 12.7083 8.56944 12.6319 8.41667 12.4791L6.625 10.6875C6.47222 10.5347 6.39931 10.3576 6.40625 10.1562C6.41319 9.95484 6.49306 9.77776 6.64583 9.62498C6.79861 9.4722 6.97569 9.39581 7.17708 9.39581C7.37847 9.39581 7.55556 9.4722 7.70833 9.62498L8.9375 10.875ZM15.2917 16H16.25C16.4625 16 16.6406 16.0714 16.7844 16.2144C16.9281 16.3573 17 16.5344 17 16.7456C17 16.9569 16.9283 17.1354 16.7848 17.2812C16.6412 17.4271 16.4633 17.5 16.2513 17.5H13.2558C13.0436 17.5 12.8646 17.4282 12.7188 17.2848C12.5729 17.1412 12.5 16.9633 12.5 16.7512V13.7558C12.5 13.5436 12.5715 13.3646 12.7144 13.2187C12.8573 13.0729 13.0344 13 13.2456 13C13.4569 13 13.6354 13.0719 13.7812 13.2156C13.9271 13.3594 14 13.5375 14 13.75V15.125C14.7639 14.5278 15.3715 13.7847 15.8229 12.8958C16.2743 12.0069 16.5 11.0416 16.5 9.99998C16.5 8.48609 16.0417 7.14929 15.125 5.98956C14.2083 4.82984 13.0496 4.0704 11.6488 3.71123C11.4524 3.65373 11.2951 3.54512 11.1771 3.3854C11.059 3.22567 11 3.04498 11 2.84331C11 2.64165 11.0694 2.47151 11.2083 2.3329C11.3472 2.19429 11.5139 2.14581 11.7083 2.18748C13.5278 2.59026 15.0312 3.5104 16.2188 4.9479C17.4062 6.3854 18 8.06942 18 9.99998C18 11.2071 17.7569 12.3214 17.2708 13.3429C16.7847 14.3643 16.125 15.25 15.2917 16Z" fill="#01988C"/>
</g>
</svg>
