<svg width="288" height="202" viewBox="0 0 288 202" fill="none" xmlns="http://www.w3.org/2000/svg">
<path d="M45.5 111C45.5 61.0182 86.0182 20.5 136 20.5C185.982 20.5 226.5 61.0182 226.5 111V201.5L45.5 201.5L45.5 111Z" fill="#EEF7E3"/>
<path d="M58.4074 190.646C58.0826 190.66 57.761 190.578 57.4863 190.41C57.2116 190.242 56.997 189.997 56.8715 189.707C56.7461 189.417 56.7159 189.098 56.7851 188.791C56.8542 188.484 57.0193 188.205 57.2581 187.992C57.2981 187.839 57.3268 187.729 57.3667 187.575C57.0559 186.813 56.5163 186.158 55.8172 185.693C55.1181 185.229 54.2912 184.977 53.4426 184.969C52.5941 184.961 51.7624 185.198 51.0544 185.65C50.3463 186.101 49.794 186.747 49.4683 187.503C47.5889 191.75 45.1565 196.147 46.3662 200.825C38.376 184.476 41.0933 164.139 52.9017 150.158C56.1657 148.422 58.8113 145.338 59.5 141.757C57.8846 142.286 55.8705 141.017 57.0851 139.374C57.6116 138.747 58.1432 138.124 58.6696 137.496C52.5333 131.187 45.222 141.102 51.9763 149.618C49.7668 152.292 47.8529 155.182 46.2659 158.241C46.6324 154.993 46.195 151.708 44.9896 148.655C43.768 145.81 41.4783 143.414 39.462 140.954C37.0103 137.957 31.9646 139.34 31.6347 143.143C33.8972 143.861 34.1912 147.016 31.6031 147.448C32.281 154.523 37.0686 161.025 43.6627 164.128C41.2276 170.724 40.2767 177.746 40.8735 184.724C39.7095 176.568 30.6407 174.589 24.302 171.347C23.8986 171.097 23.4286 170.966 22.9493 170.97C22.4701 170.974 22.0023 171.112 21.6031 171.368C21.2038 171.624 20.8904 171.987 20.701 172.412C20.5116 172.837 20.4544 173.306 20.5364 173.762C21.4113 174.105 22.2487 174.531 23.0362 175.035C23.4052 175.274 23.6885 175.618 23.8471 176.019C24.0058 176.42 24.0321 176.859 23.9224 177.275C23.8127 177.691 23.5725 178.064 23.2345 178.343C22.8966 178.622 22.4776 178.793 22.0348 178.833C25.2299 186.468 33.4906 191.594 41.9747 191.565C42.7901 194.986 43.9714 198.315 45.4997 201.5H58.0918C58.137 201.365 58.1776 201.225 58.2182 201.09C57.0527 201.161 55.8825 201.094 54.7339 200.89C57.8176 197.365 60.2025 195.567 58.4078 190.646L58.4074 190.646Z" fill="#6B9539"/>
<path d="M214.565 190.646C214.881 190.66 215.194 190.578 215.462 190.41C215.73 190.242 215.939 189.997 216.061 189.707C216.183 189.417 216.213 189.098 216.145 188.791C216.078 188.484 215.917 188.205 215.684 187.992C215.645 187.839 215.618 187.729 215.579 187.575C215.881 186.813 216.407 186.158 217.088 185.693C217.77 185.229 218.575 184.977 219.402 184.969C220.229 184.961 221.039 185.198 221.729 185.65C222.419 186.101 222.957 186.747 223.274 187.503C225.106 191.75 227.476 196.147 226.297 200.825C234.082 184.476 231.435 164.139 219.929 150.158C216.749 148.422 214.171 145.338 213.5 141.757C215.074 142.286 217.036 141.017 215.853 139.374C215.34 138.747 214.822 138.124 214.309 137.496C220.288 131.187 227.412 141.102 220.831 149.618C222.984 152.292 224.848 155.182 226.395 158.241C226.038 154.993 226.464 151.708 227.638 148.655C228.829 145.81 231.06 143.414 233.024 140.954C235.413 137.957 240.329 139.34 240.651 143.143C238.446 143.861 238.16 147.016 240.682 147.448C240.021 154.523 235.356 161.025 228.931 164.128C231.304 170.724 232.23 177.746 231.649 184.724C232.783 176.568 241.619 174.589 247.795 171.347C248.189 171.097 248.646 170.966 249.113 170.97C249.58 170.974 250.036 171.112 250.425 171.368C250.814 171.624 251.12 171.987 251.304 172.412C251.489 172.837 251.544 173.306 251.465 173.762C250.612 174.105 249.796 174.531 249.029 175.035C248.669 175.274 248.393 175.618 248.239 176.019C248.084 176.42 248.058 176.859 248.165 177.275C248.272 177.691 248.506 178.064 248.836 178.343C249.165 178.622 249.573 178.793 250.005 178.833C246.891 186.468 238.843 191.594 230.576 191.565C229.781 194.986 228.63 198.315 227.141 201.5H214.872C214.828 201.365 214.788 201.225 214.749 201.09C215.885 201.161 217.025 201.094 218.144 200.89C215.139 197.365 212.816 195.567 214.565 190.646Z" fill="#6B9539"/>
<path d="M103.787 46.5L102.5 38.8162L122.072 29.7153L126.299 22.0093C126.162 21.3331 126.21 20.6312 126.437 19.9811C126.663 19.331 127.06 18.7581 127.583 18.3256C128.106 17.8931 128.735 17.6178 129.4 17.5303C130.065 17.4427 130.741 17.5462 131.353 17.8293C131.965 18.1124 132.489 18.5641 132.867 19.1346C133.245 19.7051 133.462 20.372 133.496 21.0619C133.529 21.7517 133.376 22.4375 133.054 23.0436C132.733 23.6497 132.255 24.1524 131.673 24.4962L124.72 35.5657L103.787 46.5Z" fill="#A0616A"/>
<path d="M98.5 39.9011L107.198 35.5L109.5 44.0639L103.459 48.5L98.5 39.9011Z" fill="#6B9539"/>
<path d="M78.5013 191.5L83.9214 191.5L86.5 170.5L78.5 170.5L78.5013 191.5Z" fill="#A0616A"/>
<path d="M84.7381 192.044V188.5L83.3738 188.584L77.8205 188.915L76.5352 188.995L75.5526 200.864L75.5 201.5H79.1847L79.3031 200.868L79.8383 197.996L81.2201 200.868L81.5227 201.5H91.2916C91.8729 201.496 92.4293 201.262 92.8399 200.847C93.2506 200.433 93.4823 199.872 93.4848 199.286C93.8972 197.346 85.7733 193.153 84.7381 192.044Z" fill="#FF7A11"/>
<path d="M14.7288 107.5L13.5 113.332L32.6867 121.5L34.5 112.893L14.7288 107.5Z" fill="#A0616A"/>
<path d="M12.8863 115.245L16.8412 116.107L17.1153 114.692L18.2423 108.934L18.5 107.601L5.51917 103.709L4.82323 103.5L3.83002 107.267L4.50328 107.542L7.56443 108.788L3.98657 109.501L3.1998 109.657L0.566624 119.643C0.414069 120.239 0.525862 120.864 0.877749 121.385C1.22964 121.906 1.79319 122.279 2.44604 122.424C4.49977 123.318 11.3694 116.033 12.8863 115.245Z" fill="#FF7A11"/>
<path d="M86.5 55.8896L79.673 52.5L66.0585 69.9994L57.7658 72.227C57.171 71.905 56.5041 71.7639 55.8386 71.8193C55.1731 71.8746 54.5349 72.1243 53.9946 72.5406C53.4543 72.957 53.0329 73.5239 52.7769 74.1787C52.5209 74.8335 52.4403 75.5507 52.5439 76.2511C52.6476 76.9515 52.9315 77.6078 53.3644 78.1476C53.7972 78.6874 54.3621 79.0896 54.9966 79.3098C55.6311 79.53 56.3106 79.5596 56.96 79.3954C57.6094 79.2312 58.2034 78.8796 58.6764 78.3793L70.8196 74.2806L86.5 55.8896Z" fill="#A0616A"/>
<path d="M79.5061 83.5C79.5061 83.5 68.0621 90.9444 71.0882 95.8912C71.1925 96.0618 57.4184 114.236 57.4184 114.236L31.4161 112.587L30.5 121.281L53.6491 127.979C53.6491 127.979 59.3122 132.135 63.6872 127.555C68.0621 122.976 82.6346 108.952 82.6346 108.952L83.3375 137.266L76.0222 176.5L86.9448 175.808L97.5759 136.446L101.5 91.8596L79.5061 83.5Z" fill="#01988C"/>
<path d="M87.5586 39.356L82.7084 42.9255L77.1801 54.3837L82.496 61.3949C82.496 61.3949 86.9676 68.9207 79.8102 76.209C72.6527 83.4973 67.1565 91.2815 72.8853 91.0036C78.6142 90.7256 101.817 102.186 101.97 92.7968C102.122 83.4076 102.431 76.209 102.431 76.209L108.514 61.2255C108.514 61.2255 112.139 52.287 109.594 49.6114C107.05 46.9358 103.643 43.5167 103.643 43.5167L97.4469 37.5H91.8525L87.5586 39.356Z" fill="#6B9539"/>
<path d="M96.5651 15.7848C107.44 22.243 98.5122 39.2829 87.4347 33.2151C76.5603 26.7571 85.4879 9.71728 96.5651 15.7848Z" fill="#A0616A"/>
<path d="M102.5 19.6048C101.748 20.5774 100.176 20.1213 97.0981 20.8153C97.1048 19.7783 96.9843 18.7444 96.7392 17.7364C96.5102 18.9844 96.0083 20.1673 95.269 21.2014C92.5964 21.496 95.8727 29.5664 94.5042 35.5C92.7411 22.982 89.0327 26.2616 90.9061 28.7445C92.1055 30.3341 91.3059 35.1026 87.7078 32.7183C81.7711 35.5228 73.3155 21.5917 82.6869 15.0582C82.5195 11.5267 86.4728 10.9688 88.9072 12.0546C94.8152 7.68006 101.565 13.2853 102.5 19.6048Z" fill="#464F53"/>
<path d="M75.0815 9.85795C72.6806 24.9547 59.8119 7.08151 53.7611 21.9382C51.8586 27.3184 55.1227 31.1672 57.1874 35.6331C57.6587 39.3032 52.9901 41.1652 52.5011 44.5435C52.365 52.2886 64.5831 51.8147 67.9987 46.9282C71.5083 41.8129 67.3174 34.9499 69.4269 29.4593C72.3918 21.8363 84.4496 21.7797 85.5 12.9111C83.4656 9.94834 77.9953 6.55503 75.0815 9.85795Z" fill="#464F53"/>
<path d="M188.5 192.275L183.401 193.5L176.5 173.309L184.026 171.5L188.5 192.275Z" fill="#FFB6B6"/>
<path d="M189.5 197.768L173.703 201.5L173.657 201.293C173.286 199.599 173.578 197.822 174.469 196.353C175.36 194.883 176.776 193.841 178.407 193.455L180.794 190.5L186.676 191.501L188.055 191.175L189.5 197.768Z" fill="#FF7A11"/>
<path d="M273.532 95.5L276.5 100.34L259.881 114.5L255.5 107.356L273.532 95.5Z" fill="#FFB6B6"/>
<path d="M278.313 93.5L287.5 107.39L287.317 107.502C285.824 108.412 284.015 108.716 282.289 108.346C280.562 107.976 279.059 106.963 278.111 105.529L274.428 104.214L273.302 98.2576L272.5 97.045L278.313 93.5Z" fill="#FF7A11"/>
<path d="M184.891 93.4455L180.956 103.941L162.5 141.18L178.717 184.5L187.087 182.24L180.189 141.18L199.98 116.582L223.485 132.888C223.485 132.888 233.909 141.212 237.874 133.321C241.84 125.43 267.5 108.645 267.5 108.645L261.152 101.719L231.602 115.863L211.208 86.5L184.891 93.4455Z" fill="#01988C"/>
<path d="M205.156 45.1746L198.585 38.0622L187.312 36.5L173.5 46.2407L173.639 57.0225L180.467 82.4286C180.467 82.4286 177.866 100.682 185.131 100.499C192.395 100.316 196.355 96.6672 199.313 97.4099C202.272 98.1526 214.849 101.313 215.646 98.0026C216.443 94.6918 220.68 97.0623 220.494 93.9304C220.308 90.7984 209.024 68.2224 209.024 68.2224L211.83 45.6443L205.156 45.1746Z" fill="#6B9539"/>
<path d="M246.48 12.2858C246.538 12.89 246.469 13.5001 246.279 14.0733C246.088 14.6464 245.781 15.1686 245.379 15.603C244.977 16.0374 244.489 16.3735 243.95 16.5877C243.411 16.8018 242.834 16.8888 242.26 16.8424L227.471 46.5L223.5 40.0729L238.617 12.0826C238.754 11.0706 239.24 10.1471 239.98 9.48701C240.72 8.82695 241.665 8.47621 242.634 8.50125C243.603 8.5263 244.53 8.9254 245.239 9.6229C245.948 10.3204 246.39 11.2679 246.48 12.2858Z" fill="#FFB6B6"/>
<path d="M198.518 50.9388C198.518 50.9388 197.914 56.1007 203.716 57.3786C209.517 58.6565 225.591 49.4571 228.226 48.052C229.051 47.612 230.171 45.4554 231.32 42.7003C231.836 41.4635 232.357 40.106 232.861 38.7291C233.152 37.9323 234.547 37.7149 234.822 36.9247C235.095 36.1388 234.247 34.7801 234.495 34.0395C235.668 30.5239 236.5 27.7349 236.5 27.7349L232.655 20.5C227.277 23.3478 224.518 29.6206 222.49 36.8474L198.518 50.9388Z" fill="#6B9539"/>
<path d="M132.552 20.1995C132.643 20.7824 132.863 21.3385 133.195 21.8287C133.528 22.3188 133.965 22.7311 134.477 23.0365C134.988 23.3419 135.561 23.5329 136.156 23.5962C136.75 23.6594 137.352 23.5933 137.917 23.4026L160.092 47.5L162.5 40.4388L140.407 17.9931C140.019 17.0768 139.304 16.3327 138.397 15.9018C137.49 15.4709 136.454 15.3831 135.486 15.6551C134.518 15.9271 133.684 16.5399 133.144 17.3775C132.603 18.215 132.392 19.2191 132.552 20.1995Z" fill="#FFB6B6"/>
<path d="M187.185 44.5167C187.185 44.5167 189.02 49.1551 183.833 51.7312C178.645 54.3074 161.156 49.6389 158.314 48.9691C157.425 48.7594 155.835 47.0295 154.072 44.7521C153.281 43.7297 152.454 42.5969 151.64 41.4418C151.169 40.7734 149.793 40.9066 149.339 40.2402C148.888 39.5775 149.359 38.1151 148.943 37.4881C146.971 34.5119 145.5 32.1269 145.5 32.1269L147.375 24.5C153.171 25.8487 157.32 30.9997 161.012 37.2099L187.185 44.5167Z" fill="#6B9539"/>
<path d="M192.5 34.5C198.575 34.5 203.5 29.799 203.5 24C203.5 18.201 198.575 13.5 192.5 13.5C186.425 13.5 181.5 18.201 181.5 24C181.5 29.799 186.425 34.5 192.5 34.5Z" fill="#FFB6B6"/>
<path d="M206.297 17.5853C205.116 15.7776 202.901 14.5728 200.753 14.9114C200.553 13.5548 199.981 12.2785 199.099 11.2215C198.217 10.1645 197.059 9.36719 195.75 8.91649C194.442 8.46579 193.034 8.37894 191.68 8.66539C190.325 8.95185 189.076 9.60062 188.068 10.5411C187.736 10.3101 187.35 10.1678 186.947 10.1278C186.544 10.0879 186.137 10.1517 185.766 10.3131C185.026 10.6457 184.383 11.1566 183.895 11.7989C182.663 13.32 181.87 15.1433 181.602 17.0749C181.333 19.0064 181.599 20.9739 182.371 22.7678C182.108 21.8234 183.065 20.9349 184.031 20.723C184.997 20.511 186.01 20.7115 186.99 20.5735C188.246 20.3967 189.375 19.6757 190.633 19.5134C191.699 19.4447 192.769 19.5808 193.784 19.9141C194.798 20.2474 195.866 20.3894 196.934 20.3327C197.992 20.2083 199.356 24.1788 199.338 26.9754C199.334 27.5054 199.444 28.1858 199.968 28.2983C200.612 28.4368 200.986 27.5564 201.599 27.3166C201.882 27.2364 202.185 27.268 202.445 27.4046C202.704 27.5413 202.9 27.7724 202.991 28.0492C203.068 28.3306 203.077 28.6262 203.015 28.9114C202.954 29.1966 202.824 29.4632 202.638 29.6889C202.261 30.1364 201.813 30.5207 201.312 30.8269L201.565 31.0349C201.805 31.2857 202.125 31.4461 202.471 31.4886C202.818 31.5312 203.168 31.4533 203.463 31.2682C204.042 30.88 204.511 30.3514 204.825 29.7328C206.009 27.9209 206.855 25.9136 207.324 23.8063C207.72 21.6898 207.478 19.3929 206.297 17.5853Z" fill="#464F53"/>
<path d="M115.5 83.5H131.5C131.324 82.7 130.705 82.0666 129.912 81.8701C129.957 81.6935 129.981 81.508 129.981 81.3175C129.981 80.0736 128.97 79.0641 127.724 79.0641C127.369 79.0641 127.033 79.1459 126.734 79.2915C126.255 78.2352 125.189 77.5 123.952 77.5C122.636 77.5 121.515 78.3299 121.084 79.494C120.709 79.2486 120.263 79.105 119.781 79.105C118.468 79.105 117.403 80.1673 117.403 81.4781C117.403 81.5918 117.412 81.7035 117.427 81.8132C116.476 81.893 115.701 82.5883 115.5 83.499V83.5Z" fill="white"/>
<path d="M144.503 73.8983H164.194C163.978 72.9116 163.216 72.1302 162.239 71.8874C162.294 71.6695 162.323 71.4405 162.323 71.206C162.323 69.6711 161.08 68.4276 159.545 68.4276C159.108 68.4276 158.696 68.5289 158.328 68.708C157.737 67.4062 156.427 66.5 154.903 66.5C153.283 66.5 151.904 67.5228 151.374 68.9591C150.913 68.6566 150.362 68.4804 149.769 68.4804C148.153 68.4804 146.843 69.7904 146.843 71.4072C146.843 71.5474 146.854 71.6861 146.872 71.8208C145.7 71.9193 144.747 72.7769 144.5 73.8997L144.503 73.8983Z" fill="white"/>
<path d="M129.5 53.135H147.158C146.964 52.251 146.281 51.5488 145.405 51.3323C145.455 51.1366 145.482 50.9312 145.482 50.7202C145.482 49.345 144.366 48.2292 142.991 48.2292C142.599 48.2292 142.229 48.3194 141.898 48.4804C141.368 47.3119 140.193 46.5 138.827 46.5C137.376 46.5 136.138 47.4173 135.663 48.7052C135.25 48.4332 134.756 48.275 134.224 48.275C132.775 48.275 131.6 49.4504 131.6 50.8993C131.6 51.0256 131.609 51.1491 131.626 51.2698C130.576 51.3586 129.721 52.1275 129.5 53.1336V53.135Z" fill="white"/>
<path d="M138.751 150.142L132.501 150.137L132.344 129.249L138.594 129.254L138.751 150.142Z" fill="#D69500"/>
<path d="M135.474 146.067L125.211 157.098L145.883 157.133L135.474 146.067L125.211 157.098L145.883 157.133L135.474 146.067Z" fill="#FFC43E"/>
<path d="M121.589 129.922C120.786 129.872 101.924 128.56 101.826 114.693C101.801 111.204 102.774 108.367 104.715 106.262C109.179 101.42 117.235 102.473 117.575 102.52L117.226 106.564C117.158 106.555 110.315 105.677 106.976 109.308C105.764 110.627 105.182 112.391 105.198 114.7C105.268 124.712 121.563 125.848 121.728 125.858L121.589 129.923V129.922Z" fill="#D69500"/>
<path d="M149.717 129.967C150.519 129.92 169.365 128.669 169.267 114.802C169.243 111.313 168.231 108.473 166.261 106.361C161.728 101.504 153.687 102.53 153.347 102.577L153.753 106.622C153.822 106.613 160.652 105.757 164.042 109.4C165.274 110.723 165.879 112.489 165.896 114.797C165.966 124.809 149.685 125.892 149.521 125.902L149.716 129.968L149.717 129.967Z" fill="#D69500"/>
<path d="M112.555 95.5C111.835 95.5 111.242 96.0699 111.223 96.7892C111.202 97.5564 111.191 98.3289 111.197 99.1065C111.35 122.28 122.377 141.084 135.824 141.107C149.273 141.13 160.05 122.363 159.896 99.1896C159.891 98.4042 159.871 97.6239 159.839 96.8502C159.81 96.14 159.224 95.5792 158.513 95.5779L112.555 95.5Z" fill="#FFC43E"/>
<path d="M148.532 161.071C148.532 161.203 148.428 161.311 148.3 161.311H122.794C122.666 161.311 122.562 161.203 122.562 161.071V157.278C122.562 157.146 122.666 157.038 122.794 157.038H148.3C148.428 157.038 148.532 157.146 148.532 157.278V161.071Z" fill="#FFC43E"/>
<path fill-rule="evenodd" clip-rule="evenodd" d="M152.074 104.742C152.733 105.244 152.86 106.186 152.358 106.845L136.358 127.845C136.095 128.189 135.697 128.403 135.265 128.432C134.833 128.461 134.41 128.302 134.104 127.996L125.104 118.996C124.518 118.41 124.518 117.461 125.104 116.875C125.69 116.289 126.639 116.289 127.225 116.875L135.012 124.661L149.971 105.026C150.473 104.367 151.415 104.24 152.074 104.742Z" fill="#D69500"/>
<rect x="112.5" y="160.5" width="45" height="41" fill="#D69500"/>
<path d="M81.1409 17.4108C80.971 17.4102 80.8083 17.3425 80.6882 17.2223C80.5682 17.1022 80.5005 16.9394 80.5001 16.7695C80.4993 16.719 80.505 16.6687 80.5169 16.6197L83.8357 2.0013C83.8608 1.89121 83.9144 1.78965 83.9911 1.70678C84.0678 1.62391 84.165 1.56264 84.2728 1.5291C84.3806 1.49556 84.4954 1.49092 84.6055 1.51566C84.7157 1.54039 84.8175 1.59362 84.9006 1.67003L95.9033 11.8588C95.9861 11.9355 96.0472 12.0327 96.0807 12.1405C96.1141 12.2483 96.1187 12.363 96.0939 12.4731C96.0691 12.5832 96.0159 12.6849 95.9395 12.768C95.8631 12.8511 95.7663 12.9127 95.6586 12.9467L81.3338 17.3819C81.2713 17.401 81.2063 17.4107 81.1409 17.4108Z" fill="#FF7A11"/>
<path d="M90.1402 6.72434L83.229 5.34901L83.3378 4.86902L89.4478 6.08375L90.1402 6.72434Z" fill="white"/>
<path d="M95.5822 11.7656L82.3682 9.13619L82.4769 8.65381L94.8894 11.1223L95.5822 11.7656Z" fill="white"/>
<path d="M90.8549 14.2787L89.863 14.5853L81.5098 12.9231L81.6185 12.4407L90.8549 14.2787Z" fill="white"/>
<path d="M201.468 16.4108C201.638 16.4102 201.801 16.3425 201.921 16.2223C202.041 16.1022 202.109 15.9394 202.109 15.7695C202.11 15.719 202.104 15.6687 202.092 15.6197L198.774 1.0013C198.749 0.891206 198.695 0.789646 198.618 0.706777C198.542 0.623908 198.444 0.562639 198.337 0.529098C198.229 0.495557 198.114 0.490925 198.004 0.515659C197.894 0.540393 197.792 0.593622 197.709 0.670034L186.706 10.8588C186.623 10.9355 186.562 11.0327 186.529 11.1405C186.495 11.2483 186.491 11.363 186.515 11.4731C186.54 11.5832 186.593 11.6849 186.67 11.768C186.746 11.8511 186.843 11.9127 186.951 11.9467L201.276 16.3819C201.338 16.401 201.403 16.4107 201.468 16.4108Z" fill="#FF7A11"/>
<path d="M192.469 5.72434L199.38 4.34901L199.272 3.86902L193.162 5.08375L192.469 5.72434Z" fill="white"/>
<path d="M187.027 10.7656L200.241 8.13619L200.132 7.65381L187.72 10.1223L187.027 10.7656Z" fill="white"/>
<path d="M191.754 13.2787L192.746 13.5853L201.1 11.9231L200.991 11.4407L191.754 13.2787Z" fill="white"/>
<path d="M165.927 83.3542C167.268 83.3542 168.354 82.2676 168.354 80.9271C168.354 79.5867 167.268 78.5 165.927 78.5C164.587 78.5 163.5 79.5867 163.5 80.9271C163.5 82.2676 164.587 83.3542 165.927 83.3542Z" fill="#01988C"/>
<path d="M149.67 8.96731C150.628 8.96731 151.404 8.19112 151.404 7.23365C151.404 6.27618 150.628 5.5 149.67 5.5C148.713 5.5 147.937 6.27618 147.937 7.23365C147.937 8.19112 148.713 8.96731 149.67 8.96731Z" fill="#FF7A11"/>
<path d="M146.234 91.9673C147.191 91.9673 147.967 91.1911 147.967 90.2337C147.967 89.2762 147.191 88.5 146.234 88.5C145.276 88.5 144.5 89.2762 144.5 90.2337C144.5 91.1911 145.276 91.9673 146.234 91.9673Z" fill="#FF7A11"/>
<path d="M111.877 62.7106C112.834 62.7106 113.61 61.9344 113.61 60.9769C113.61 60.0195 112.834 59.2433 111.877 59.2433C110.919 59.2433 110.143 60.0195 110.143 60.9769C110.143 61.9344 110.919 62.7106 111.877 62.7106Z" fill="#FF7A11"/>
<path d="M165.234 60.9673C166.191 60.9673 166.967 60.1911 166.967 59.2337C166.967 58.2762 166.191 57.5 165.234 57.5C164.276 57.5 163.5 58.2762 163.5 59.2337C163.5 60.1911 164.276 60.9673 165.234 60.9673Z" fill="#01988C"/>
<path d="M119.851 80.3938C120.809 80.3938 121.585 79.6176 121.585 78.6602C121.585 77.7027 120.809 76.9265 119.851 76.9265C118.894 76.9265 118.118 77.7027 118.118 78.6602C118.118 79.6176 118.894 80.3938 119.851 80.3938Z" fill="#01988C"/>
<path d="M174.635 85.2481C175.592 85.2481 176.369 84.4719 176.369 83.5144C176.369 82.5569 175.592 81.7808 174.635 81.7808C173.678 81.7808 172.901 82.5569 172.901 83.5144C172.901 84.4719 173.678 85.2481 174.635 85.2481Z" fill="#A7B7BE"/>
<path d="M159.379 23.5301C160.336 23.5301 161.112 22.7539 161.112 21.7964C161.112 20.8389 160.336 20.0627 159.379 20.0627C158.421 20.0627 157.645 20.8389 157.645 21.7964C157.645 22.7539 158.421 23.5301 159.379 23.5301Z" fill="#A7B7BE"/>
<path d="M93.8525 42.5921C95.6679 42.7065 97.4302 43.2494 98.9952 44.1764C100.56 45.1034 101.883 46.3881 102.856 47.9251C103.128 48.3609 103.484 48.8397 103.295 49.376C103.23 49.5817 103.096 49.7589 102.917 49.8789C102.737 49.9988 102.522 50.0542 102.307 50.0362C102.039 49.9784 101.797 49.834 101.619 49.6253C101.441 49.4165 101.337 49.1549 101.322 48.881C101.307 48.607 101.383 48.3358 101.538 48.1092C101.692 47.8826 101.917 47.7132 102.178 47.6271C103.437 47.09 104.707 47.92 105.733 48.5824C108.07 50.0917 110.64 51.4567 113.472 51.6287C116.091 51.7879 118.901 50.7606 120.358 48.4887C120.613 48.0912 119.98 47.7239 119.726 48.1194C118.281 50.3726 115.359 51.1819 112.819 50.8336C111.305 50.5947 109.844 50.0984 108.497 49.3663C107.799 49.0039 107.122 48.6023 106.458 48.18C105.827 47.7395 105.158 47.3558 104.459 47.0336C103.293 46.5546 101.749 46.5921 100.934 47.6949C100.175 48.7237 100.762 50.4366 102.033 50.7259C102.312 50.7809 102.6 50.7658 102.871 50.682C103.143 50.5982 103.389 50.4484 103.589 50.2459C103.788 50.0434 103.934 49.7946 104.014 49.5218C104.093 49.249 104.104 48.9607 104.045 48.6828C103.918 48.0769 103.462 47.484 103.108 46.9888C102.047 45.4962 100.665 44.2606 99.0631 43.3731C97.4612 42.4855 95.6806 41.9687 93.8525 41.8605C93.3819 41.8372 93.3832 42.5689 93.8525 42.5921Z" fill="#A7B7BE"/>
<path d="M196.385 64.7381C195.169 63.955 194.155 62.8948 193.428 61.6444C192.7 60.394 192.279 58.9889 192.199 57.5444C192.179 57.1362 192.118 56.6657 192.457 56.3664C192.582 56.249 192.743 56.1777 192.915 56.164C193.086 56.1503 193.256 56.1951 193.399 56.291C193.563 56.4351 193.675 56.6291 193.717 56.8431C193.76 57.0571 193.731 57.2792 193.635 57.4752C193.539 57.6712 193.381 57.8301 193.186 57.9275C192.991 58.0249 192.769 58.0554 192.555 58.0142C191.472 57.8991 190.912 56.8303 190.456 55.9727C189.418 54.0187 188.162 52.0744 186.262 50.8574C184.505 49.7313 182.155 49.3557 180.263 50.3687C179.932 50.546 180.229 51.0464 180.558 50.87C182.435 49.8654 184.778 50.4359 186.407 51.6624C187.366 52.4151 188.189 53.3264 188.84 54.3567C189.184 54.879 189.499 55.4205 189.796 55.9709C190.064 56.5216 190.38 57.0474 190.741 57.5422C191.365 58.3269 192.451 58.8993 193.445 58.4491C193.666 58.3346 193.857 58.1699 194.004 57.9681C194.15 57.7664 194.247 57.5332 194.287 57.2873C194.327 57.0414 194.309 56.7895 194.234 56.5518C194.159 56.3141 194.03 56.0971 193.857 55.9183C193.684 55.7721 193.478 55.6709 193.257 55.6238C193.036 55.5767 192.807 55.5852 192.59 55.6486C192.373 55.7119 192.175 55.8281 192.014 55.9867C191.853 56.1453 191.734 56.3414 191.668 56.5574C191.565 57.0653 191.563 57.5881 191.661 58.0968C191.819 59.5447 192.3 60.9387 193.069 62.176C193.837 63.4133 194.874 64.4625 196.101 65.2462C196.419 65.4448 196.702 64.9361 196.385 64.7381Z" fill="#A7B7BE"/>
<path d="M128.628 13.6999C127.184 13.609 125.783 13.1772 124.538 12.4399C123.293 11.7026 122.241 10.6808 121.468 9.45836C121.251 9.1118 120.968 8.73096 121.118 8.30438C121.17 8.14082 121.276 7.99983 121.419 7.90447C121.562 7.8091 121.733 7.76499 121.904 7.77935C122.117 7.82528 122.31 7.94012 122.451 8.10616C122.593 8.27221 122.676 8.48023 122.688 8.69815C122.699 8.91606 122.639 9.13177 122.516 9.312C122.393 9.49222 122.214 9.62695 122.007 9.69541C121.005 10.1226 119.995 9.46243 119.179 8.93559C117.321 7.73515 115.276 6.64952 113.024 6.51272C110.941 6.38616 108.706 7.20316 107.547 9.01013C107.344 9.32627 107.848 9.61839 108.05 9.30381C109.199 7.51175 111.523 6.86812 113.543 7.1451C114.747 7.3351 115.91 7.72981 116.981 8.31213C117.536 8.60032 118.074 8.9198 118.602 9.25563C119.104 9.60601 119.637 9.91114 120.193 10.1674C121.12 10.5484 122.348 10.5186 122.996 9.64148C123.133 9.43363 123.22 9.19651 123.249 8.94908C123.279 8.70165 123.25 8.45078 123.165 8.21652C123.08 7.98225 122.942 7.7711 122.76 7.59994C122.579 7.42878 122.361 7.30235 122.122 7.23078C121.9 7.18706 121.671 7.19906 121.455 7.26568C121.239 7.33231 121.043 7.45149 120.885 7.61254C120.726 7.77358 120.61 7.97146 120.547 8.18843C120.483 8.40541 120.475 8.63469 120.522 8.85574C120.68 9.34898 120.933 9.80663 121.267 10.2031C122.111 11.3902 123.21 12.3729 124.484 13.0788C125.758 13.7847 127.174 14.1958 128.628 14.2818C129.003 14.3003 129.002 13.7184 128.628 13.6999Z" fill="#A7B7BE"/>
<path d="M137.882 35.1703H136.148V40.8666H137.882V35.1703Z" fill="#A7B7BE"/>
<path d="M109.851 31.1951L111.056 29.9902L107.097 26.0315L105.892 27.2363L109.851 31.1951Z" fill="#A7B7BE"/>
<path d="M140.5 65.4587L141.705 66.6636L145.664 62.7048L144.459 61.5L140.5 65.4587Z" fill="#A7B7BE"/>
<path d="M109.359 92.4017L110.564 93.6066L114.523 89.6478L113.318 88.4429L109.359 92.4017Z" fill="#FF7A11"/>
</svg>
