<svg width="482" height="624" viewBox="0 0 482 624" fill="none" xmlns="http://www.w3.org/2000/svg">
<g clip-path="url(#clip0_811_2370)">
<rect width="482" height="624" rx="10" fill="#E7F4D7"/>
<path d="M96 312.053C96 233.323 159.823 169.5 238.553 169.5V169.5C317.282 169.5 381.106 233.323 381.106 312.053L381.106 454.606L96 454.606L96 312.053Z" fill="#6B9539"/>
<g clip-path="url(#clip1_811_2370)">
<path d="M303.724 335.951C304.716 335.951 305.668 336.344 306.37 337.044C307.072 337.745 307.467 338.694 307.467 339.684V375.801H379.268C380.26 375.801 381.213 376.194 381.914 376.894C382.616 377.595 383.011 378.544 383.011 379.534C383.011 380.524 382.616 381.474 381.914 382.174C381.213 382.874 380.26 383.268 379.268 383.268H307.467V508.167H299.98V339.684C299.98 338.694 300.375 337.745 301.077 337.044C301.779 336.344 302.731 335.951 303.724 335.951Z" fill="white"/>
<path d="M103.91 507.319L90.4131 507.691C88.3629 507.796 86.3345 507.229 84.6379 506.076C83.1722 504.989 82.4998 503.519 82.7946 502.042L85.4506 488.729C85.9511 486.218 89.0369 484.319 92.7872 484.216L100.241 484.01C103.991 483.907 107.178 485.633 107.816 488.113L111.205 501.26C111.581 502.718 110.991 504.223 109.588 505.389C107.957 506.633 105.963 507.311 103.91 507.319Z" fill="#3F3D56"/>
<path d="M186.009 506.939L172.512 507.311C170.462 507.416 168.433 506.849 166.737 505.696C165.271 504.608 164.598 503.138 164.893 501.662L167.549 488.349C168.05 485.837 171.136 483.938 174.886 483.835L182.34 483.63C186.09 483.526 189.276 485.252 189.915 487.733L193.304 500.879C193.68 502.337 193.089 503.842 191.686 505.009C190.056 506.253 188.062 506.931 186.009 506.939Z" fill="#3F3D56"/>
<path d="M57.042 393.915C56.4254 393.65 55.9179 393.183 55.6036 392.591C55.2893 391.999 55.187 391.318 55.3136 390.661C55.4402 390.003 55.7881 389.408 56.2998 388.974C56.8115 388.541 57.4563 388.294 58.1275 388.276L211.576 384.05C211.963 384.039 212.348 384.104 212.709 384.242C213.071 384.38 213.402 384.587 213.683 384.853C213.964 385.118 214.19 385.436 214.348 385.788C214.506 386.14 214.593 386.52 214.603 386.906C214.624 387.685 214.334 388.441 213.797 389.007C213.26 389.573 212.52 389.904 211.739 389.926L58.2903 394.152C57.8618 394.165 57.4357 394.084 57.042 393.915Z" fill="#3F3D56"/>
<path d="M113.673 343.249L69.8105 344.457L73.8999 492.163L117.763 490.955L113.673 343.249Z" fill="white"/>
<path d="M114.785 340.595L106.354 363.504L106.361 467.876L116.635 470.815L114.785 340.595Z" fill="#CCCCCC"/>
<path d="M91.5124 304.648C83.3064 304.88 77.0455 319.044 77.196 324.572L77.473 334.578L107.186 333.76L106.909 323.753C106.754 318.226 99.7188 304.428 91.5124 304.648Z" fill="#3F3D56"/>
<path d="M70.3789 405.625C68.8457 405.666 67.359 405.098 66.245 404.047C65.131 402.995 64.4806 401.546 64.4365 400.017L63.9856 383.732C63.9433 382.202 64.5119 380.719 65.5664 379.607C66.6209 378.496 68.075 377.847 69.6087 377.805C71.1423 377.763 72.63 378.33 73.7444 379.382C74.8588 380.434 75.5087 381.884 75.551 383.414L76.0019 399.699C76.0425 401.228 75.4732 402.711 74.4191 403.822C73.3649 404.933 71.912 405.581 70.3789 405.625Z" fill="#3F3D56"/>
<path d="M81.5103 344.807L81.3027 334.045L84.1326 333.975L84.3402 344.702L86.9053 501.062L84.0747 501.14" fill="#3F3D56"/>
<path d="M118.702 369.975L67.8365 371.376C62.9782 365.467 62.5369 340.292 72.676 335.5L76.6522 328.766L107.307 327.274L110.89 334.364C115.933 338.644 118.534 363.662 118.702 369.975Z" fill="white"/>
<path d="M99.5575 357.901L86.6946 358.255C84.2124 358.323 82.1021 355.111 81.9909 351.096C81.8797 347.081 83.8092 343.758 86.2913 343.689L99.1543 343.335C101.636 343.267 103.747 346.478 103.858 350.494C103.969 354.509 102.04 357.832 99.5575 357.901Z" fill="#FF7A11"/>
<path d="M74.6486 430.529L48.134 449.21L43.502 491.329L74.4328 481.022L74.6486 430.529Z" fill="white"/>
<path d="M198.344 341.44L154.481 342.648L158.571 490.354L202.434 489.146L198.344 341.44Z" fill="white"/>
<path d="M155.531 341.088L164.556 363.771L167.264 468.109L157.07 471.312L155.531 341.088Z" fill="#CCCCCC"/>
<path d="M220.279 300.432C223.454 300.432 226.028 296.989 226.028 292.743C226.028 288.496 223.454 285.053 220.279 285.053C217.104 285.053 214.53 288.496 214.53 292.743C214.53 296.989 217.104 300.432 220.279 300.432Z" fill="white"/>
<path d="M175.328 302.862C167.122 303.095 160.861 317.259 161.011 322.786L161.288 332.793L191.002 331.975L190.725 321.968C190.569 316.441 183.534 302.643 175.328 302.862Z" fill="#3F3D56"/>
<path d="M183.824 348.176L183.616 337.413L186.446 337.343L186.654 348.071L189.219 504.431L186.388 504.509" fill="#3F3D56"/>
<path d="M202.517 368.189L151.652 369.59C150.765 364.244 151.912 339.293 156.491 333.715L160.468 326.981L191.123 325.488L194.705 332.579C203.756 333.314 206.922 357.832 202.517 368.189Z" fill="white"/>
<path d="M183.435 358.363L170.572 358.717C168.09 358.785 165.965 355.069 165.837 350.434C165.709 345.8 167.624 341.972 170.106 341.904L182.969 341.55C185.452 341.481 187.576 345.197 187.704 349.832C187.832 354.467 185.917 358.294 183.435 358.363Z" fill="#FF7A11"/>
<path d="M200.511 419.732L226.144 439.599L228.843 481.887L198.417 470.181L200.511 419.732Z" fill="white"/>
<path d="M73.505 255.439C70.8766 257.186 68.1865 253.029 70.8654 251.36C73.4937 249.613 76.1838 253.77 73.505 255.439Z" fill="white"/>
<path d="M170.827 119C168.199 120.747 165.509 116.589 168.188 114.92C170.816 113.174 173.506 117.331 170.827 119Z" fill="white"/>
<path d="M228.186 199.894L226.513 199.528L226.88 197.86L225.765 197.616L225.398 199.285L223.726 198.919L223.481 200.031L225.154 200.397L224.787 202.065L225.902 202.309L226.269 200.64L227.941 201.006L228.186 199.894Z" fill="white"/>
<path d="M128.186 127.527C119.98 127.759 113.719 141.923 113.87 147.451L114.147 157.457L143.86 156.639L143.583 146.632C143.428 141.105 136.393 127.307 128.186 127.527Z" fill="#3F3D56"/>
<path d="M145.878 506.447L132.381 506.819C130.331 506.924 128.302 506.357 126.606 505.204C125.14 504.116 124.468 502.646 124.762 501.17L127.418 487.857C127.919 485.345 131.005 483.447 134.755 483.343L142.209 483.138C145.959 483.035 149.145 484.761 149.784 487.241L153.173 500.388C153.549 501.845 152.959 503.35 151.555 504.517C149.925 505.761 147.931 506.439 145.878 506.447Z" fill="#3F3D56"/>
<path d="M151.898 191.229L108.035 192.437L116.301 491.007L160.164 489.799L151.898 191.229Z" fill="white"/>
<path d="M134.346 335.755L134.139 324.993L136.969 324.923L137.176 335.651L139.741 492.01L136.911 492.088" fill="#3F3D56"/>
<path d="M160.533 218.555L101.101 220.192C100.065 213.944 101.405 184.792 106.755 178.274L108.222 170.494L149.258 169.363L151.405 176.946C157.298 181.948 160.337 211.179 160.533 218.555Z" fill="white"/>
<path d="M150.556 170.281L108.208 171.448C106.645 171.491 105.355 170.672 105.326 169.619C105.322 169.468 105.344 169.317 105.391 169.172L111.969 148.961C112.251 148.096 113.372 147.46 114.681 147.424L142.764 146.65C144.073 146.614 145.228 147.187 145.557 148.036L153.243 167.855C153.636 168.868 152.728 169.923 151.215 170.211C150.997 170.252 150.777 170.275 150.556 170.281Z" fill="white"/>
<path d="M112.385 334.382C112.003 334.219 111.642 334.01 111.31 333.761C110.833 333.428 110.44 332.99 110.159 332.482C109.878 331.973 109.718 331.407 109.69 330.828L108.152 275.249C108.088 272.948 110.347 271.013 113.186 270.934L151.097 269.89C153.937 269.811 156.298 271.62 156.362 273.921L157.901 329.5C157.906 330.08 157.777 330.654 157.525 331.177C157.273 331.7 156.904 332.159 156.447 332.518C155.434 333.341 154.172 333.798 152.866 333.814L114.956 334.858C114.075 334.888 113.198 334.725 112.385 334.382Z" fill="#3F3D56"/>
<path d="M136.65 166.705L123.787 167.059C121.305 167.127 119.206 164.33 119.109 160.825C119.012 157.319 120.953 154.411 123.435 154.342L136.298 153.988C138.78 153.92 140.879 156.717 140.976 160.222C141.073 163.728 139.132 166.636 136.65 166.705Z" fill="#FF7A11"/>
<path d="M440.702 496.346H425.729V387.821C438.253 386.925 447.666 383.1 447.666 378.516C447.666 373.268 435.325 369.013 420.102 369.013C404.88 369.013 392.539 373.268 392.539 378.516C392.539 383.144 402.135 386.997 414.84 387.844V496.346H399.867C398.423 496.346 397.038 496.918 396.017 497.936C394.996 498.955 394.422 500.336 394.422 501.776C394.422 503.216 394.996 504.598 396.017 505.616C397.038 506.635 398.423 507.207 399.867 507.207H440.702C442.146 507.207 443.531 506.635 444.552 505.616C445.573 504.598 446.146 503.216 446.146 501.776C446.146 500.336 445.573 498.955 444.552 497.936C443.531 496.918 442.146 496.346 440.702 496.346Z" fill="white"/>
<path d="M410.646 441.251L405.728 446.596L382.715 430.219L389.973 422.33L410.646 441.251Z" fill="#A0616A"/>
<path d="M398.07 455.36C398.119 456.555 398.404 457.729 398.911 458.813C399.417 459.898 400.135 460.871 401.021 461.677L401.238 461.878L407.688 454.867L417.094 444.642L410.15 438.284L408.896 439.65L408.765 439.791L402.517 442.739L401.192 443.367L400.966 443.472L400.467 448.811V448.816C399.652 449.693 399.021 450.724 398.609 451.847C398.198 452.971 398.015 454.165 398.07 455.36Z" fill="#2F2E41"/>
<path d="M436.127 494.578L429.167 496.687L417.699 470.914L427.972 467.802L436.127 494.578Z" fill="#A0616A"/>
<path d="M417.422 507.284L417.507 507.571L439.95 500.77L437.211 491.776L435.438 492.313L435.252 492.368L426.908 491.605L426.661 491.585L423.504 495.929C421.188 496.631 419.246 498.221 418.105 500.35C416.965 502.48 416.719 504.974 417.422 507.284Z" fill="#2F2E41"/>
<path d="M378.734 359.635C378.734 359.635 334.297 402.428 362.39 415.674H371.073C372.96 409.555 375.861 403.794 379.655 398.631C380.476 397.56 383.549 397.777 384.403 396.734C389.614 390.362 395.263 384.89 399.165 385.107L398.232 414.674L396.721 425.221C395.928 430.673 418.314 478.277 418.314 478.277L432.384 472.762C432.384 472.762 417.725 433.553 417.553 427.9L429.301 365.748L378.734 359.635Z" fill="#2F2E41"/>
<path d="M375.028 361.745C375.255 362.068 375.551 362.335 375.894 362.529C376.461 362.848 377.074 363.075 377.712 363.202C387.717 365.467 420.402 370.163 428.886 367.923C429.929 367.651 430.608 367.27 430.83 366.768C431.54 365.181 431.449 358.476 431.031 350.38C430.956 348.863 429.279 347.221 429.178 345.634C429.108 344.444 430.613 343.324 430.533 342.113C429.979 333.927 429.264 325.585 428.786 320.312C428.484 316.922 428.277 314.803 428.277 314.803L433.438 282.344L433.197 281.947L432.925 281.812L416.283 273.595L415.377 271.285C415.114 270.62 414.657 270.048 414.066 269.645C413.474 269.241 412.775 269.023 412.058 269.02L401.096 268.975C400.528 268.972 399.966 269.104 399.459 269.361C398.952 269.618 398.514 269.992 398.181 270.451L395.21 274.555L375.572 287.11L375.648 287.341L384.862 315.31L384.908 317.489V317.494L385.25 335.022L384.298 337.398L385.371 341.295C385.371 341.295 384.877 345.85 382.234 349.235C379.837 352.309 376.786 355.513 375.406 358.114V358.119C374.641 359.556 374.384 360.801 375.028 361.745Z" fill="#FF7A11"/>
<path d="M360.256 413.132L362.631 416.125C362.631 416.125 384.476 431.368 385.226 432.793L388.679 436.051L397.032 427.145L392.688 421.714C389.211 417.368 384.72 413.939 379.606 411.725L372.949 405.834L360.256 413.132Z" fill="#2F2E41"/>
<path d="M438.943 371.855L434.965 333.45L433.915 317.644L445.05 315.636C445.05 315.636 444.608 326.938 446.067 333.314C447.506 339.607 446.258 371.012 446.169 371.852C446.987 372.581 447.563 373.541 447.822 374.604C448.081 375.667 448.01 376.784 447.619 377.806C447.228 378.828 446.535 379.708 445.632 380.329C444.728 380.949 443.658 381.282 442.561 381.283C441.464 381.283 440.392 380.952 439.488 380.332C438.585 379.712 437.891 378.833 437.499 377.811C437.107 376.789 437.035 375.672 437.293 374.609C437.551 373.546 438.126 372.585 438.943 371.855Z" fill="#A0616A"/>
<path d="M425.685 313.693L428.786 320.312L429.869 322.617L432.784 337.845L434.24 339.386L435.493 344.363L436.083 344.243L446.707 342.048L449.804 341.41C450.502 340.25 450.777 338.886 450.582 337.547C450.388 336.208 449.736 334.977 448.736 334.063C448.525 333.872 448.349 333.686 448.354 333.51C448.53 322.919 447.88 303.578 442.014 295.618C440.151 293.092 439.033 290.575 437.407 288.818C437.402 288.813 437.402 288.808 437.397 288.808L433.439 282.344L433.197 281.947L432.925 281.812L425.685 313.693Z" fill="#FF7A11"/>
<path d="M407.435 266.254C415.49 266.254 422.02 259.741 422.02 251.707C422.02 243.673 415.49 237.16 407.435 237.16C399.38 237.16 392.85 243.673 392.85 251.707C392.85 259.741 399.38 266.254 407.435 266.254Z" fill="#A0616A"/>
<path d="M424.754 248.577C425.181 246.132 425.514 242.963 424.29 240.146C423.256 237.775 420.669 235.552 417.794 235.852C417.93 235.317 417.915 234.754 417.75 234.227C417.585 233.7 417.277 233.229 416.86 232.866C415.923 232.133 414.832 231.621 413.669 231.37C410.967 230.577 408.167 229.756 405.277 229.741C402.032 229.723 399.158 230.832 397.395 232.786L397.352 232.849L396.824 234.108C396.753 234.276 396.647 234.428 396.512 234.552C396.377 234.676 396.216 234.769 396.042 234.825C395.867 234.883 395.682 234.901 395.499 234.879C395.316 234.856 395.14 234.794 394.985 234.696C394.814 234.591 394.618 234.533 394.418 234.526C394.217 234.52 394.018 234.566 393.841 234.659C393.664 234.753 393.514 234.891 393.406 235.06C393.299 235.229 393.237 235.423 393.228 235.623L393.2 236.16L392.443 235.859C392.254 235.783 392.047 235.758 391.844 235.788C391.642 235.818 391.451 235.901 391.291 236.029C391.132 236.157 391.01 236.325 390.937 236.516C390.865 236.707 390.845 236.914 390.879 237.115L390.98 237.754C390.817 237.725 390.65 237.728 390.489 237.764C390.327 237.801 390.175 237.869 390.041 237.965C389.848 238.106 389.706 238.304 389.634 238.531C389.562 238.758 389.564 239.002 389.639 239.228C390.227 240.899 391.23 242.394 392.555 243.572C393.15 244.108 393.816 244.56 394.534 244.914C394.684 244.989 394.839 245.06 395 245.128C400.813 247.613 407.032 249.018 413.351 249.274C412.753 250.411 412.367 251.646 412.211 252.92C412.125 253.643 412.239 254.376 412.541 255.039C412.842 255.702 413.32 256.27 413.922 256.682C414.184 256.831 414.458 256.956 414.742 257.056C415.013 257.156 415.276 257.277 415.528 257.419C415.897 257.642 416.2 257.958 416.408 258.335C416.615 258.712 416.719 259.137 416.708 259.567C416.698 259.997 416.574 260.417 416.349 260.784C416.124 261.151 415.806 261.452 415.427 261.657C415.427 261.657 416.512 262.978 416.686 262.956C417.377 262.8 418.002 262.431 418.472 261.902C421.631 258.843 423.744 254.362 424.754 248.577Z" fill="#2F2E41"/>
<path d="M199.43 402.018C197.897 402.058 196.411 401.491 195.297 400.439C194.183 399.388 193.532 397.939 193.488 396.409L193.037 380.124C192.997 378.596 193.566 377.114 194.621 376.004C195.675 374.894 197.128 374.247 198.66 374.205C200.193 374.163 201.679 374.729 202.793 375.779C203.908 376.829 204.558 378.278 204.603 379.806L205.053 396.091C205.094 397.62 204.525 399.103 203.471 400.214C202.416 401.325 200.964 401.974 199.43 402.018Z" fill="#3F3D56"/>
<path d="M360.798 364.586C355.752 364.486 328.647 363.71 324.203 363.901C323.951 363.023 315.526 373.793 315.321 373.86C315.184 374.003 315.084 374.178 315.03 374.369C314.976 374.559 314.969 374.76 315.009 374.954C315.05 375.148 315.137 375.329 315.262 375.482C315.388 375.635 315.55 375.756 315.732 375.833C316.228 376.133 359.923 375.327 360.453 375.432C360.682 375.429 360.905 375.361 361.097 375.236C361.289 375.111 361.442 374.935 361.537 374.728L361.829 374.075C361.86 372.959 362.226 367.255 361.897 366.279C361.978 366.096 362.012 365.896 361.996 365.697C361.98 365.497 361.914 365.305 361.805 365.137C361.696 364.969 361.547 364.831 361.371 364.735C361.195 364.639 360.998 364.588 360.798 364.586Z" fill="white"/>
<path opacity="0.17" d="M361.829 374.074C361.573 374.689 361.245 375.461 360.452 375.433L316.193 375.928C315.984 375.926 315.779 375.87 315.598 375.765C315.416 375.661 315.265 375.512 315.158 375.333C315.051 375.153 314.992 374.949 314.987 374.741C314.982 374.532 315.03 374.325 315.128 374.141L361.829 374.074Z" fill="black"/>
<path d="M324.409 363.769C323.933 362.947 312.1 304.551 311.113 304.063L303.034 294.206L302.312 293.664C301.308 293.114 298.899 293.486 299.116 295.016C301.014 304.091 313.222 355.781 313.489 363.84L314.959 374.106C314.985 374.281 315.047 374.448 315.142 374.597C315.237 374.746 315.363 374.874 315.51 374.972C315.658 375.07 315.824 375.136 315.999 375.165C316.173 375.195 316.352 375.188 316.524 375.145C316.945 375.099 317.347 374.946 317.69 374.698C318.034 374.451 318.307 374.118 318.482 373.733C318.592 373.371 324.963 363.979 324.409 363.769Z" fill="white"/>
<path opacity="0.17" d="M303.032 294.206L318.483 373.736C317.966 375.04 315.549 375.954 314.985 374.243C314.976 374.24 299.134 295.065 299.118 295.017C298.949 293.112 302.106 293.052 303.032 294.206Z" fill="black"/>
<path d="M303.498 297.458L311.345 308.368L320.153 350.091L316.059 353.653L303.498 297.458Z" fill="#14B8AA"/>
<path d="M355.732 370.212L357.903 370.3C357.937 369.666 358.042 369.038 358.217 368.427C358.543 366.879 358.836 365.04 357.481 365.046C356.563 364.958 356.25 366.119 356.086 367.381C356.044 368.333 355.926 369.279 355.732 370.212Z" fill="#2F2E41"/>
<path d="M343.277 367.3L344.741 367.354L345.448 367.381C345.435 366.608 345.795 365.012 344.918 364.619C344.778 364.559 344.627 364.529 344.475 364.53C343.652 364.483 343.407 365.107 343.332 365.827C343.284 366.261 343.304 366.723 343.291 367.083C343.291 367.157 343.284 367.232 343.277 367.3Z" fill="#2F2E41"/>
<path d="M338.942 367.123L340.412 367.185L341.113 367.212C341.1 366.323 341.569 364.381 340.14 364.354C338.82 364.279 338.99 365.956 338.956 366.906C338.956 366.981 338.949 367.056 338.942 367.123Z" fill="#2F2E41"/>
<path d="M334.607 366.954L336.071 367.008L336.778 367.035C336.765 366.153 337.234 364.212 335.805 364.185C334.485 364.103 334.655 365.78 334.621 366.737C334.621 366.811 334.614 366.886 334.607 366.954Z" fill="#2F2E41"/>
<path d="M330.271 366.777L331.742 366.838L332.443 366.866C332.429 365.976 332.898 364.042 331.469 364.008C330.149 363.933 330.319 365.61 330.285 366.56C330.285 366.635 330.278 366.709 330.271 366.777Z" fill="#2F2E41"/>
<path d="M325.937 366.608L327.4 366.662L328.108 366.689C328.094 365.874 328.489 364.171 327.441 363.879H327.434C327.337 363.85 327.236 363.836 327.134 363.838C327.011 363.827 326.886 363.839 326.767 363.872H326.76C325.848 364.11 325.977 365.535 325.95 366.39C325.95 366.465 325.943 366.54 325.937 366.608Z" fill="#2F2E41"/>
<path d="M351.355 366.146L353.527 366.234C353.527 366.153 353.526 366.065 353.533 365.963C353.587 365.446 353.596 364.926 353.561 364.408C353.486 363.838 353.241 363.39 352.553 363.376C351.852 363.336 351.573 363.784 351.464 364.361C351.439 364.459 351.421 364.559 351.41 364.659V364.666C351.355 365.196 351.389 365.766 351.355 366.146Z" fill="#2F2E41"/>
<path d="M347.021 365.97L349.192 366.058C349.238 365.475 349.251 364.891 349.232 364.306C349.171 363.709 348.933 363.22 348.218 363.207C347.497 363.159 347.218 363.648 347.109 364.252C347.007 364.836 347.061 365.535 347.021 365.97Z" fill="#2F2E41"/>
<path d="M342.686 365.8L343.332 365.827L344.857 365.888C344.85 365.562 344.911 365.087 344.918 364.619C344.924 364.478 344.919 364.338 344.904 364.198C344.85 363.567 344.625 363.044 343.883 363.03C343.128 362.99 342.862 363.512 342.767 364.15C342.672 364.72 342.726 365.379 342.686 365.8Z" fill="#2F2E41"/>
<path d="M351.396 370.042L353.568 370.124C353.561 369.241 354.023 367.3 352.594 367.273C351.165 367.185 351.478 369.153 351.396 370.042Z" fill="#2F2E41"/>
<path d="M347.062 369.866L349.233 369.954C349.226 369.065 349.689 367.123 348.259 367.096C346.83 367.015 347.143 368.983 347.062 369.866Z" fill="#2F2E41"/>
<path d="M342.727 369.696L344.898 369.778C344.891 369.146 345.129 367.979 344.741 367.354C344.656 367.216 344.536 367.103 344.392 367.028C344.248 366.953 344.087 366.918 343.924 366.927C343.702 366.903 343.478 366.958 343.291 367.083C342.597 367.538 342.795 368.977 342.727 369.696Z" fill="#2F2E41"/>
<path d="M338.391 369.52L340.562 369.608C340.555 368.977 340.786 367.816 340.412 367.185C340.327 367.044 340.206 366.929 340.061 366.853C339.916 366.776 339.752 366.741 339.588 366.75C339.366 366.726 339.141 366.781 338.955 366.906C338.261 367.375 338.459 368.807 338.391 369.52Z" fill="#2F2E41"/>
<path d="M334.056 369.35L336.227 369.431C336.22 368.8 336.458 367.633 336.07 367.008C335.986 366.87 335.865 366.757 335.721 366.682C335.577 366.606 335.416 366.571 335.253 366.58C335.031 366.557 334.807 366.612 334.621 366.737C333.926 367.191 334.124 368.63 334.056 369.35Z" fill="#2F2E41"/>
<path d="M329.721 369.173L331.892 369.262C331.885 368.63 332.116 367.47 331.742 366.838C331.658 366.697 331.537 366.582 331.392 366.506C331.246 366.429 331.083 366.394 330.918 366.404C330.696 366.379 330.471 366.435 330.286 366.56C329.591 367.028 329.789 368.461 329.721 369.173Z" fill="#2F2E41"/>
<path d="M325.385 369.004L327.556 369.085C327.549 368.454 327.78 367.293 327.399 366.662C327.315 366.523 327.195 366.41 327.051 366.334C326.907 366.259 326.745 366.224 326.583 366.234C326.36 366.211 326.136 366.266 325.95 366.39C325.255 366.852 325.453 368.284 325.385 369.004Z" fill="#2F2E41"/>
<path d="M349.904 362.729L366.451 327.824L372.707 313.264L362.874 307.68C362.874 307.68 359.525 318.486 356.025 324.017C352.571 329.475 343.285 359.509 343.09 360.331C342.075 360.748 341.212 361.462 340.613 362.379C340.015 363.296 339.71 364.372 339.738 365.466C339.766 366.56 340.127 367.619 340.772 368.504C341.417 369.389 342.317 370.058 343.351 370.422C344.385 370.786 345.506 370.828 346.565 370.543C347.624 370.258 348.572 369.659 349.282 368.825C349.992 367.991 350.432 366.962 350.543 365.873C350.654 364.785 350.431 363.688 349.904 362.729Z" fill="#A0616A"/>
<path d="M349.803 330.413L362.317 337.943L365.155 333.664L367.046 332.692L374.868 319.294L381.785 312.266L390.923 283.132L379.033 284.911L379.018 284.917C376.9 286.037 375.005 288.04 372.407 289.806C364.223 295.369 357.166 313.395 353.804 323.446C353.748 323.611 353.522 323.726 353.259 323.839C352.012 324.37 350.988 325.315 350.358 326.512C349.728 327.71 349.532 329.088 349.803 330.413Z" fill="#FF7A11"/>
</g>
</g>
<defs>
<clipPath id="clip0_811_2370">
<rect width="482" height="624" rx="10" fill="white"/>
</clipPath>
<clipPath id="clip1_811_2370">
<rect width="582" height="395" fill="white" transform="translate(-50 114.5)"/>
</clipPath>
</defs>
</svg>
