<svg width="482" height="624" viewBox="0 0 482 624" fill="none" xmlns="http://www.w3.org/2000/svg">
<g clip-path="url(#clip0_4413_1788)">
<rect width="482" height="624" rx="10" fill="#FFF0CD"/>
<path d="M99.2295 321.344C99.2295 266.115 144.001 221.344 199.229 221.344H276.984C332.213 221.344 376.984 266.115 376.984 321.344L376.984 499.099L99.2295 499.099L99.2295 321.344Z" fill="#FFC43E"/>
<g clip-path="url(#clip1_4413_1788)">
<path d="M63.2288 489.283L68.4714 480.864L69.5186 485.675C69.7022 486.518 69.8858 487.374 70.0558 488.223C71.5449 486.952 73.1293 485.777 74.6795 484.649C79.4393 481.197 84.197 477.74 88.9524 474.279L87.4633 482.909C86.5452 488.223 85.5864 493.646 83.3153 498.505C83.0637 499.056 82.7918 499.599 82.4992 500.129H60.3727C60.1948 499.637 60.0716 499.126 60.0055 498.607C60 498.573 59.9978 498.539 59.9989 498.505C59.6519 495.209 61.4744 492.104 63.2288 489.283Z" fill="#F0F0F0"/>
<path d="M396.415 122.972H84.9871C82.3115 122.977 79.7466 124.041 77.8546 125.932C75.9626 127.822 74.8978 130.386 74.8936 133.06V343.084C74.8961 345.759 75.9604 348.323 77.8528 350.214C79.7451 352.105 82.3109 353.169 84.9871 353.171H396.415C399.092 353.169 401.657 352.105 403.55 350.214C405.442 348.323 406.506 345.759 406.509 343.084V133.06C406.505 130.386 405.44 127.822 403.548 125.932C401.656 124.041 399.091 122.977 396.415 122.972Z" fill="#E6E6E6"/>
<path d="M394.496 346.218H190.438C161.845 346.134 134.447 334.746 114.228 314.54C94.0102 294.334 82.6147 266.953 82.5312 238.377V135.664C82.5315 134.142 83.1358 132.683 84.2115 131.606C85.2872 130.528 86.7465 129.922 88.2692 129.919H394.496C396.019 129.922 397.478 130.528 398.554 131.606C399.63 132.683 400.234 134.142 400.234 135.664V340.483C400.232 342.004 399.627 343.461 398.552 344.536C397.476 345.611 396.017 346.216 394.496 346.218Z" fill="#FEFEFE"/>
<path d="M378.422 158.478H91.8872C91.5893 158.471 91.3058 158.348 91.0975 158.135C90.8891 157.923 90.7725 157.637 90.7725 157.339C90.7725 157.041 90.8891 156.755 91.0975 156.542C91.3058 156.33 91.5893 156.207 91.8872 156.2H378.422C378.72 156.207 379.004 156.33 379.212 156.542C379.42 156.755 379.537 157.041 379.537 157.339C379.537 157.637 379.42 157.923 379.212 158.135C379.004 158.348 378.72 158.471 378.422 158.478Z" fill="#CACACA"/>
<path d="M111.392 150.386C115.08 150.386 118.07 147.331 118.07 143.563C118.07 139.795 115.08 136.741 111.392 136.741C107.704 136.741 104.714 139.795 104.714 143.563C104.714 147.331 107.704 150.386 111.392 150.386Z" fill="#3F3D56"/>
<path d="M134.461 150.386C138.149 150.386 141.139 147.331 141.139 143.563C141.139 139.795 138.149 136.741 134.461 136.741C130.773 136.741 127.783 139.795 127.783 143.563C127.783 147.331 130.773 150.386 134.461 150.386Z" fill="#3F3D56"/>
<path d="M157.529 150.386C161.217 150.386 164.207 147.331 164.207 143.563C164.207 139.795 161.217 136.741 157.529 136.741C153.841 136.741 150.852 139.795 150.852 143.563C150.852 147.331 153.841 150.386 157.529 150.386Z" fill="#3F3D56"/>
<path d="M287.022 260.849H170.985C168.886 260.875 166.854 260.107 165.299 258.697C163.744 257.287 162.782 255.341 162.605 253.251C162.532 252.182 162.671 251.109 163.013 250.093C163.356 249.078 163.895 248.14 164.6 247.333C165.305 246.525 166.162 245.865 167.123 245.389C168.083 244.913 169.128 244.63 170.198 244.558C170.38 244.545 170.563 244.539 170.746 244.539H287.022C289.186 244.539 291.262 245.398 292.792 246.927C294.322 248.457 295.182 250.531 295.182 252.694C295.182 254.857 294.322 256.931 292.792 258.46C291.262 259.989 289.186 260.849 287.022 260.849Z" fill="#FF7A11"/>
<path d="M287.236 215.177C291.308 215.177 294.608 211.879 294.608 207.81C294.608 203.741 291.308 200.442 287.236 200.442C283.165 200.442 279.864 203.741 279.864 207.81C279.864 211.879 283.165 215.177 287.236 215.177Z" fill="#E6E6E6"/>
<path d="M286.231 211.644C286.104 211.644 285.978 211.615 285.864 211.558C285.751 211.501 285.652 211.418 285.575 211.316L283.564 208.636C283.499 208.55 283.451 208.452 283.424 208.348C283.397 208.243 283.39 208.134 283.405 208.027C283.42 207.921 283.456 207.818 283.511 207.725C283.566 207.632 283.639 207.55 283.726 207.486C283.812 207.421 283.91 207.374 284.015 207.347C284.12 207.321 284.229 207.315 284.336 207.33C284.443 207.346 284.545 207.382 284.638 207.438C284.731 207.493 284.812 207.566 284.876 207.653L286.192 209.406L289.571 204.34C289.691 204.159 289.878 204.033 290.091 203.989C290.305 203.946 290.526 203.989 290.708 204.109C290.889 204.229 291.015 204.416 291.059 204.629C291.102 204.842 291.059 205.063 290.939 205.245L290.936 205.249L286.913 211.279C286.841 211.388 286.743 211.478 286.628 211.542C286.513 211.605 286.385 211.64 286.254 211.644L286.231 211.644Z" fill="#FEFEFE"/>
<path d="M287.236 304.88C291.308 304.88 294.608 301.581 294.608 297.512C294.608 293.443 291.308 290.145 287.236 290.145C283.165 290.145 279.864 293.443 279.864 297.512C279.864 301.581 283.165 304.88 287.236 304.88Z" fill="#E6E6E6"/>
<path d="M286.231 301.346C286.104 301.346 285.978 301.317 285.864 301.26C285.751 301.203 285.652 301.12 285.575 301.019L283.564 298.339C283.499 298.252 283.451 298.154 283.424 298.05C283.397 297.945 283.39 297.837 283.405 297.73C283.42 297.623 283.456 297.52 283.511 297.427C283.566 297.334 283.639 297.253 283.726 297.188C283.812 297.123 283.91 297.076 284.015 297.049C284.12 297.023 284.229 297.017 284.336 297.033C284.443 297.048 284.545 297.085 284.638 297.14C284.731 297.195 284.812 297.268 284.876 297.355L286.192 299.108L289.571 294.042C289.691 293.861 289.878 293.735 290.091 293.691C290.305 293.648 290.526 293.691 290.708 293.811C290.889 293.931 291.015 294.118 291.059 294.331C291.102 294.544 291.059 294.765 290.939 294.947L290.936 294.952L286.913 300.981C286.841 301.091 286.743 301.181 286.628 301.244C286.513 301.307 286.385 301.343 286.254 301.346L286.231 301.346Z" fill="#FEFEFE"/>
<path d="M227.864 215.997H170.985C168.886 216.024 166.854 215.255 165.299 213.846C163.744 212.436 162.782 210.49 162.605 208.399C162.532 207.33 162.671 206.257 163.013 205.242C163.356 204.226 163.895 203.288 164.6 202.481C165.305 201.674 166.162 201.013 167.123 200.537C168.083 200.061 169.128 199.779 170.198 199.706C170.38 199.694 170.563 199.688 170.746 199.688H227.864C230.028 199.688 232.104 200.547 233.634 202.076C235.164 203.605 236.024 205.68 236.024 207.842C236.024 210.005 235.164 212.079 233.634 213.609C232.104 215.138 230.028 215.997 227.864 215.997Z" fill="#FF7A11"/>
<path d="M287.022 216.337H170.746C168.492 216.337 166.33 215.442 164.736 213.849C163.142 212.256 162.246 210.096 162.246 207.843C162.246 205.59 163.142 203.429 164.736 201.836C166.33 200.243 168.492 199.348 170.746 199.348H287.022C289.276 199.348 291.438 200.243 293.032 201.836C294.626 203.429 295.522 205.59 295.522 207.843C295.522 210.096 294.626 212.256 293.032 213.849C291.438 215.442 289.276 216.337 287.022 216.337ZM170.746 200.707C168.852 200.707 167.036 201.459 165.697 202.797C164.358 204.135 163.606 205.95 163.606 207.843C163.606 209.735 164.358 211.55 165.697 212.888C167.036 214.226 168.852 214.978 170.746 214.978H287.022C288.916 214.978 290.732 214.226 292.071 212.888C293.41 211.55 294.162 209.735 294.162 207.843C294.162 205.95 293.41 204.135 292.071 202.797C290.732 201.459 288.916 200.707 287.022 200.707H170.746Z" fill="#E0E7EB"/>
<path d="M287.022 261.188H170.746C168.492 261.188 166.33 260.293 164.736 258.7C163.142 257.107 162.246 254.947 162.246 252.694C162.246 250.441 163.142 248.28 164.736 246.687C166.33 245.094 168.492 244.199 170.746 244.199H287.022C289.276 244.199 291.438 245.094 293.032 246.687C294.626 248.28 295.522 250.441 295.522 252.694C295.522 254.947 294.626 257.107 293.032 258.7C291.438 260.293 289.276 261.188 287.022 261.188ZM170.746 245.558C168.852 245.558 167.036 246.31 165.697 247.648C164.358 248.986 163.606 250.801 163.606 252.694C163.606 254.586 164.358 256.401 165.697 257.739C167.036 259.077 168.852 259.829 170.746 259.829H287.022C288.916 259.829 290.732 259.077 292.071 257.739C293.41 256.401 294.162 254.586 294.162 252.694C294.162 250.801 293.41 248.986 292.071 247.648C290.732 246.31 288.916 245.558 287.022 245.558H170.746Z" fill="#E0E7EB"/>
<path d="M203.385 305.7H170.985C168.886 305.727 166.854 304.958 165.299 303.548C163.744 302.138 162.782 300.192 162.605 298.102C162.532 297.033 162.671 295.96 163.013 294.944C163.356 293.929 163.895 292.991 164.6 292.184C165.305 291.376 166.162 290.716 167.123 290.24C168.083 289.764 169.128 289.481 170.198 289.409C170.38 289.396 170.563 289.39 170.746 289.39H203.385C205.549 289.39 207.624 290.249 209.155 291.779C210.685 293.308 211.545 295.382 211.545 297.545C211.545 299.708 210.685 301.782 209.155 303.311C207.624 304.84 205.549 305.7 203.385 305.7Z" fill="#FF7A11"/>
<path d="M287.022 306.039H170.746C168.492 306.039 166.33 305.144 164.736 303.551C163.142 301.958 162.246 299.798 162.246 297.545C162.246 295.292 163.142 293.131 164.736 291.538C166.33 289.945 168.492 289.05 170.746 289.05H287.022C289.276 289.05 291.438 289.945 293.032 291.538C294.626 293.131 295.522 295.292 295.522 297.545C295.522 299.798 294.626 301.958 293.032 303.551C291.438 305.144 289.276 306.039 287.022 306.039ZM170.746 290.409C168.852 290.409 167.036 291.161 165.697 292.499C164.358 293.838 163.606 295.652 163.606 297.545C163.606 299.437 164.358 301.252 165.697 302.59C167.036 303.928 168.852 304.68 170.746 304.68H287.022C288.916 304.68 290.732 303.928 292.071 302.59C293.41 301.252 294.162 299.437 294.162 297.545C294.162 295.652 293.41 293.838 292.071 292.499C290.732 291.161 288.916 290.409 287.022 290.409H170.746Z" fill="#E0E7EB"/>
<path d="M192.505 190.928H165.306C164.584 190.928 163.893 190.642 163.383 190.132C162.872 189.622 162.586 188.931 162.586 188.21C162.586 187.489 162.872 186.798 163.383 186.288C163.893 185.778 164.584 185.492 165.306 185.492H192.505C193.226 185.492 193.918 185.778 194.428 186.288C194.938 186.798 195.225 187.489 195.225 188.21C195.225 188.931 194.938 189.622 194.428 190.132C193.918 190.642 193.226 190.928 192.505 190.928Z" fill="#CCCCCC"/>
<path d="M192.505 235.779H165.306C164.584 235.779 163.893 235.493 163.383 234.983C162.872 234.474 162.586 233.782 162.586 233.061C162.586 232.34 162.872 231.649 163.383 231.139C163.893 230.629 164.584 230.343 165.306 230.343H192.505C193.226 230.343 193.918 230.629 194.428 231.139C194.938 231.649 195.225 232.34 195.225 233.061C195.225 233.782 194.938 234.474 194.428 234.983C193.918 235.493 193.226 235.779 192.505 235.779Z" fill="#CCCCCC"/>
<path d="M192.505 280.631H165.306C164.584 280.631 163.893 280.344 163.383 279.834C162.872 279.325 162.586 278.633 162.586 277.912C162.586 277.191 162.872 276.5 163.383 275.99C163.893 275.48 164.584 275.194 165.306 275.194H192.505C193.226 275.194 193.918 275.48 194.428 275.99C194.938 276.5 195.225 277.191 195.225 277.912C195.225 278.633 194.938 279.325 194.428 279.834C193.918 280.344 193.226 280.631 192.505 280.631Z" fill="#CCCCCC"/>
<path d="M151.714 191.513C153.347 191.513 154.67 190.162 154.67 188.494C154.67 186.826 153.347 185.474 151.714 185.474C150.082 185.474 148.759 186.826 148.759 188.494C148.759 190.162 150.082 191.513 151.714 191.513Z" fill="#3F3D56"/>
<path d="M151.714 236.364C153.347 236.364 154.67 235.013 154.67 233.345C154.67 231.677 153.347 230.325 151.714 230.325C150.082 230.325 148.759 231.677 148.759 233.345C148.759 235.013 150.082 236.364 151.714 236.364Z" fill="#3F3D56"/>
<path d="M151.714 281.216C153.347 281.216 154.67 279.864 154.67 278.196C154.67 276.528 153.347 275.177 151.714 275.177C150.082 275.177 148.759 276.528 148.759 278.196C148.759 279.864 150.082 281.216 151.714 281.216Z" fill="#3F3D56"/>
<path d="M346.472 492.784L339.74 492.783L336.537 466.831L346.474 466.831L346.472 492.784Z" fill="#FFB6B6"/>
<path d="M346.709 499.803L326.006 499.802V499.54C326.006 497.405 326.855 495.356 328.366 493.846C329.877 492.336 331.927 491.487 334.064 491.487L337.846 488.62L344.902 491.488L346.71 491.488L346.709 499.803Z" fill="#2F2E41"/>
<path d="M372.992 492.784L366.259 492.783L363.057 466.831L372.993 466.831L372.992 492.784Z" fill="#FFB6B6"/>
<path d="M373.228 499.803L352.524 499.802V499.54C352.525 497.405 353.374 495.356 354.885 493.846C356.396 492.336 358.446 491.487 360.583 491.487L364.365 488.62L371.421 491.488L373.228 491.488L373.228 499.803Z" fill="#2F2E41"/>
<path d="M323.304 330.239L318.544 346.548L324.151 415.622C324.151 415.622 321.264 419.941 323.304 419.941C325.344 419.941 327.96 420.899 326.312 423.478C324.664 426.057 330.296 435.316 330.296 435.316L338.263 484.499L348.415 484.35C348.415 484.35 353.576 481.476 350.679 478.571C347.783 475.665 345.743 475.665 348.463 472.947C351.183 470.229 351.183 471.047 351.183 468.939C351.183 466.831 353.908 441.066 347.446 431.183L349.393 390.888L353.979 430.413L363.423 483.14L373.202 483.06C373.202 483.06 377.719 478.709 377.71 475.488C377.702 472.267 374.92 472 376.991 470.095C379.062 468.19 379.062 438.926 372.942 422.659L372.989 349.898C372.989 349.898 379.002 333.567 372.912 327.146C366.822 320.725 323.304 330.239 323.304 330.239Z" fill="#2F2E41"/>
<path d="M384.597 301.783L388.697 259.345C388.865 257.546 388.319 255.754 387.177 254.354C386.034 252.954 384.387 252.06 382.59 251.863C380.775 251.664 378.955 252.194 377.53 253.337C376.106 254.479 375.194 256.14 374.995 257.955C374.982 258.076 374.972 258.197 374.965 258.318L372.059 302.532L369.16 329.323C367.978 329.678 366.935 330.388 366.171 331.356C365.407 332.325 364.96 333.505 364.89 334.736C364.821 335.967 365.132 337.19 365.782 338.238C366.432 339.286 367.39 340.109 368.524 340.594C369.658 341.08 370.914 341.205 372.122 340.952C373.33 340.699 374.43 340.081 375.274 339.181C376.118 338.282 376.664 337.144 376.839 335.923C377.013 334.703 376.807 333.458 376.249 332.358L384.597 301.783Z" fill="#FFB6B6"/>
<path d="M369.225 237.833L383.995 239.684C383.995 239.684 395.063 260.532 392.785 262.301C390.507 264.07 380.213 275.108 372.624 270.048C365.036 264.988 369.225 237.833 369.225 237.833Z" fill="#3F3D56"/>
<path d="M343.788 217.831C352.446 217.831 359.465 210.816 359.465 202.163C359.465 193.51 352.446 186.495 343.788 186.495C335.129 186.495 328.11 193.51 328.11 202.163C328.11 210.816 335.129 217.831 343.788 217.831Z" fill="#FFB6B6"/>
<path d="M349.845 216.547C345.346 216.399 344.938 215.212 340.439 215.064C339.006 215.017 337.316 214.821 336.623 213.567C336.422 213.097 336.332 212.587 336.361 212.077C336.39 211.566 336.538 211.07 336.791 210.626C337.305 209.745 337.767 208.835 338.177 207.901C338.424 207.169 338.489 206.388 338.366 205.625C338.243 204.862 337.936 204.14 337.471 203.523C337.007 202.905 336.399 202.409 335.7 202.079C335.001 201.749 334.232 201.594 333.459 201.627C332.09 201.686 330.804 202.33 329.439 202.447C327.567 202.609 323.426 196.43 324.288 194.761C325.128 193.137 326.816 191.911 327.082 190.102C327.255 188.919 326.767 187.744 326.7 186.55C326.601 184.78 331.091 188.771 330.269 187.2C328.251 183.346 347.26 178.569 350.389 183.396C351.559 185.2 353.643 185.077 355.501 186.16C356.718 186.87 359.793 189.32 360.492 190.847C361.134 192.405 361.438 194.082 361.382 195.766C361.41 203.599 360.216 210.804 353.894 215.434" fill="#2F2E41"/>
<path d="M339.623 222.188L352.543 219.47L362.466 224.24C362.466 224.24 385.939 233.676 385.859 242.98C385.779 252.284 381.653 272.671 376.916 274.71C372.179 276.749 381.019 283.544 378.299 287.622C375.579 291.699 371.459 319.555 371.459 319.555C371.459 319.555 381.091 338.731 372.942 342.471C364.793 346.211 330.356 349.708 328.148 344.828C325.941 339.948 325.92 342.611 320.831 341.279C315.741 339.948 320.836 321.279 325.428 319.4C330.021 317.522 332.74 276.749 332.74 276.749L325.428 245.045L336.585 229.35L339.623 222.188Z" fill="#3F3D56"/>
<path d="M330.575 309.335L342.247 268.326C342.736 266.587 342.522 264.726 341.65 263.144C340.778 261.561 339.319 260.385 337.587 259.869C335.837 259.347 333.951 259.541 332.345 260.409C330.738 261.276 329.542 262.746 329.02 264.495C328.985 264.612 328.953 264.729 328.925 264.848L318.106 307.817L310.432 333.65C309.205 333.787 308.051 334.298 307.125 335.113C306.199 335.928 305.547 337.008 305.257 338.207C304.967 339.406 305.053 340.664 305.504 341.812C305.955 342.96 306.748 343.942 307.777 344.623C308.805 345.305 310.018 345.654 311.252 345.622C312.485 345.59 313.679 345.18 314.671 344.447C315.663 343.713 316.405 342.693 316.797 341.523C317.188 340.354 317.21 339.092 316.859 337.91L330.575 309.335Z" fill="#FFB6B6"/>
<path d="M326.965 243.665L341.162 248.141C341.162 248.141 350.396 261.692 346.939 263.625C343.482 265.558 342.185 265.149 343.961 268.559C345.736 271.969 348.295 270.639 345.736 271.969C343.177 273.3 331.064 282.307 324.51 275.965C317.956 269.623 326.965 243.665 326.965 243.665Z" fill="#3F3D56"/>
<path d="M287.236 266.532C294.902 266.532 301.116 260.322 301.116 252.661C301.116 245 294.902 238.79 287.236 238.79C279.571 238.79 273.356 245 273.356 252.661C273.356 260.322 279.571 266.532 287.236 266.532Z" fill="#FF7A11"/>
<path d="M285.343 259.88C285.103 259.88 284.867 259.825 284.653 259.717C284.438 259.61 284.252 259.455 284.108 259.263L280.321 254.217C280.076 253.89 279.97 253.478 280.028 253.073C280.086 252.668 280.303 252.303 280.63 252.057C280.958 251.812 281.37 251.706 281.775 251.764C282.18 251.822 282.546 252.038 282.792 252.366L285.269 255.667L291.632 246.129C291.858 245.787 292.21 245.55 292.611 245.468C293.012 245.386 293.43 245.467 293.771 245.693C294.113 245.919 294.351 246.271 294.432 246.672C294.514 247.073 294.433 247.49 294.207 247.831L294.201 247.84L286.628 259.193C286.491 259.399 286.307 259.568 286.09 259.688C285.874 259.807 285.633 259.873 285.386 259.88L285.343 259.88Z" fill="#FEFEFE"/>
</g>
</g>
<defs>
<clipPath id="clip0_4413_1788">
<rect width="482" height="624" rx="10" fill="white"/>
</clipPath>
<clipPath id="clip1_4413_1788">
<rect width="488" height="378.055" fill="white" transform="translate(-3 122.972)"/>
</clipPath>
</defs>
</svg>
