<svg width="312" height="223" viewBox="0 0 312 223" fill="none" xmlns="http://www.w3.org/2000/svg">
<rect width="312" height="223" rx="4.44136" fill="#EDF8F7"/>
<path d="M93.127 135.682C93.127 100.715 121.473 72.3692 156.44 72.3692C191.406 72.3692 219.752 100.715 219.752 135.682V198.995H93.127V135.682Z" fill="#14B8AA"/>
<g clip-path="url(#clip0_1616_2849)">
<path d="M220.271 55.88C219.152 68.229 215.963 81.2502 210.963 93.814C204.779 109.351 196.331 123.036 186.531 133.389L185.987 132.914C195.74 122.61 204.15 108.986 210.307 93.5136C215.873 79.5314 219.183 64.9807 219.884 51.4412L220.579 51.5577C220.505 52.9877 220.403 54.4284 220.271 55.88Z" fill="#F2F2F2"/>
<path d="M224.729 127.6C210.964 149.531 194.264 165.2 177.706 171.722L177.371 171.107C193.815 164.631 210.417 149.041 224.118 127.211L224.729 127.6Z" fill="#F2F2F2"/>
<path d="M219.937 71.2549C218.818 83.6039 215.629 96.6251 210.629 109.189C204.445 124.726 195.997 138.41 186.197 148.764L185.653 148.289C195.406 137.985 203.816 124.361 209.973 108.888C215.539 94.9062 218.849 80.3556 219.55 66.8161L220.245 66.9326C220.171 68.3625 220.069 69.8033 219.937 71.2549Z" fill="#F2F2F2"/>
<path d="M65.4112 102.958H56.3799C56.1869 102.959 55.9964 102.915 55.8225 102.832C55.6487 102.748 55.4961 102.626 55.3761 102.474C55.2576 102.327 55.174 102.154 55.1316 101.97C55.0892 101.785 55.089 101.594 55.1311 101.409C55.9913 97.6081 55.9372 93.657 54.9735 89.8811C54.9125 89.6325 54.9272 89.3713 55.0158 89.1312C55.1043 88.891 55.2626 88.6829 55.4703 88.5336C60.1142 85.1888 63.7714 85.2858 66.3404 88.8226C66.4562 88.9838 66.5332 89.1697 66.5652 89.3657C67.2516 93.4983 67.2896 97.713 66.6778 101.857C66.6353 102.163 66.4835 102.443 66.2506 102.646C66.0178 102.848 65.7195 102.959 65.4112 102.958Z" fill="#E6E6E6"/>
<path d="M62.611 93.9011H59.5042C59.3324 93.9011 59.1676 93.8327 59.0462 93.7111C58.9247 93.5894 58.8564 93.4244 58.8564 93.2524C58.8564 93.0803 58.9247 92.9153 59.0462 92.7937C59.1676 92.672 59.3324 92.6037 59.5042 92.6037H62.611C62.7825 92.604 62.947 92.6725 63.0681 92.7941C63.1893 92.9158 63.2574 93.0805 63.2574 93.2524C63.2574 93.4242 63.1893 93.589 63.0681 93.7106C62.947 93.8322 62.7825 93.9007 62.611 93.9011Z" fill="white"/>
<path d="M62.611 96.1762H59.5042C59.3324 96.1762 59.1676 96.1078 59.0462 95.9862C58.9247 95.8645 58.8564 95.6995 58.8564 95.5274C58.8564 95.3554 58.9247 95.1904 59.0462 95.0687C59.1676 94.9471 59.3324 94.8787 59.5042 94.8787H62.611C62.7825 94.8791 62.947 94.9476 63.0681 95.0692C63.1893 95.1908 63.2574 95.3556 63.2574 95.5274C63.2574 95.6993 63.1893 95.8641 63.0681 95.9857C62.947 96.1073 62.7825 96.1758 62.611 96.1762Z" fill="white"/>
<path d="M62.611 98.4512H59.5042C59.3324 98.4512 59.1676 98.3829 59.0462 98.2612C58.9247 98.1396 58.8564 97.9746 58.8564 97.8025C58.8564 97.6305 58.9247 97.4655 59.0462 97.3438C59.1676 97.2222 59.3324 97.1538 59.5042 97.1538H62.611C62.7825 97.1542 62.947 97.2227 63.0681 97.3443C63.1893 97.4659 63.2574 97.6307 63.2574 97.8025C63.2574 97.9743 63.1893 98.1391 63.0681 98.2607C62.947 98.3824 62.7825 98.4509 62.611 98.4512Z" fill="white"/>
<path d="M229.546 143.341H220.515C220.322 143.341 220.131 143.298 219.957 143.214C219.783 143.13 219.631 143.008 219.511 142.857C219.392 142.709 219.309 142.537 219.266 142.352C219.224 142.168 219.224 141.976 219.266 141.792C220.126 137.991 220.072 134.04 219.108 130.264C219.047 130.015 219.062 129.754 219.151 129.514C219.239 129.274 219.397 129.066 219.605 128.916C224.249 125.571 227.906 125.668 230.475 129.205C230.591 129.366 230.668 129.552 230.7 129.748C231.386 133.881 231.424 138.096 230.813 142.24C230.77 142.546 230.618 142.826 230.385 143.028C230.153 143.231 229.854 143.342 229.546 143.341Z" fill="#E6E6E6"/>
<path d="M226.745 134.284H223.639C223.467 134.283 223.303 134.215 223.181 134.093C223.06 133.972 222.992 133.807 222.992 133.635C222.992 133.463 223.06 133.298 223.181 133.177C223.303 133.055 223.467 132.987 223.639 132.986H226.745C226.917 132.986 227.082 133.055 227.203 133.176C227.325 133.298 227.393 133.463 227.393 133.635C227.393 133.807 227.325 133.972 227.203 134.094C227.082 134.215 226.917 134.284 226.745 134.284Z" fill="white"/>
<path d="M226.745 136.559H223.639C223.467 136.558 223.303 136.49 223.181 136.368C223.06 136.247 222.992 136.082 222.992 135.91C222.992 135.738 223.06 135.573 223.181 135.452C223.303 135.33 223.467 135.262 223.639 135.261H226.745C226.917 135.261 227.082 135.33 227.203 135.451C227.325 135.573 227.393 135.738 227.393 135.91C227.393 136.082 227.325 136.247 227.203 136.369C227.082 136.49 226.917 136.559 226.745 136.559Z" fill="white"/>
<path d="M226.745 138.834H223.639C223.467 138.834 223.303 138.765 223.181 138.643C223.06 138.522 222.992 138.357 222.992 138.185C222.992 138.013 223.06 137.849 223.181 137.727C223.303 137.605 223.467 137.537 223.639 137.536H226.745C226.917 137.536 227.082 137.605 227.203 137.726C227.325 137.848 227.393 138.013 227.393 138.185C227.393 138.357 227.325 138.522 227.203 138.644C227.082 138.766 226.917 138.834 226.745 138.834Z" fill="white"/>
<path d="M104.933 177.936L104.37 170.09C100.68 168.243 96.5957 167.326 92.4717 167.418C98.2737 171.909 97.8089 180.886 101.827 187.029C103.095 188.936 104.775 190.532 106.743 191.7C108.71 192.867 110.915 193.577 113.194 193.775L118.022 196.557C118.575 192.901 118.329 189.169 117.302 185.617C116.276 182.065 114.492 178.778 112.075 175.983C110.703 174.429 109.142 173.053 107.427 171.889C106.371 174.924 104.933 177.936 104.933 177.936Z" fill="#F2F2F2"/>
<path d="M207.066 179.073L207.63 171.228C211.319 169.381 215.404 168.463 219.528 168.556C213.726 173.047 214.19 182.023 210.172 188.167C208.904 190.073 207.224 191.669 205.257 192.837C203.289 194.005 201.084 194.714 198.806 194.913L193.977 197.695C193.425 194.039 193.67 190.306 194.697 186.754C195.724 183.203 197.507 179.916 199.924 177.121C201.296 175.566 202.858 174.191 204.572 173.027C205.628 176.062 207.066 179.073 207.066 179.073Z" fill="#F2F2F2"/>
<path d="M153.444 90.5349C156.424 90.5349 158.84 88.1158 158.84 85.1316C158.84 82.1474 156.424 79.7283 153.444 79.7283C150.464 79.7283 148.049 82.1474 148.049 85.1316C148.049 88.1158 150.464 90.5349 153.444 90.5349Z" fill="#FF7A11"/>
<path d="M156.214 82.8797C156.133 82.8021 156.025 82.7589 155.913 82.7589C155.801 82.7589 155.693 82.8021 155.612 82.8797C154.467 83.7941 153.439 84.8459 152.55 86.0116C152.332 85.5888 152.114 85.1661 151.896 84.7434C151.644 84.2555 150.908 84.6865 151.16 85.174C151.479 85.7923 151.798 86.4106 152.117 87.0289C152.156 87.092 152.21 87.1441 152.274 87.1803C152.339 87.2165 152.411 87.2355 152.485 87.2355C152.559 87.2355 152.632 87.2165 152.696 87.1803C152.76 87.1441 152.814 87.092 152.853 87.0289C153.8 85.6933 154.932 84.4994 156.214 83.483C156.293 83.4026 156.338 83.2942 156.338 83.1813C156.338 83.0684 156.293 82.96 156.214 82.8797Z" fill="white"/>
<path d="M129.302 100.453L121.166 87.6573L130.587 82.6043L133.06 92.3671L150.483 101.796C151.171 101.548 151.916 101.506 152.628 101.675C153.339 101.843 153.986 102.216 154.49 102.747C154.993 103.277 155.332 103.943 155.464 104.663C155.596 105.383 155.517 106.126 155.234 106.802C154.952 107.477 154.48 108.056 153.875 108.467C153.27 108.878 152.559 109.104 151.828 109.118C151.097 109.131 150.378 108.931 149.759 108.543C149.139 108.154 148.646 107.593 148.339 106.929L129.302 100.453Z" fill="#A0616A"/>
<path d="M115.222 72.3097C112.666 76.0686 121.751 89.7319 121.751 89.7319C122.193 88.7765 126.424 99.505 127.132 98.8713C129.146 97.0701 132.299 92.0528 134.051 91.8291C135.054 91.7012 131.727 84.5834 131.727 84.5834C131.727 84.5834 130.207 80.3804 128.144 75.0114C127.589 73.4827 126.657 72.1195 125.434 71.0486C124.211 69.9778 122.738 69.2342 121.151 68.8871C121.151 68.8871 117.779 68.5508 115.222 72.3097Z" fill="#3F3D56"/>
<path d="M115.347 194.776L119.211 194.775L121.049 179.85L115.346 179.85L115.347 194.776Z" fill="#A0616A"/>
<path d="M114.361 193.512L115.449 193.512L119.695 191.783L121.971 193.512H121.971C123.257 193.512 124.491 194.024 125.4 194.934C126.31 195.845 126.821 197.08 126.821 198.368V198.526L114.362 198.527L114.361 193.512Z" fill="#464F53"/>
<path d="M133.298 194.776L137.162 194.776L139.001 179.85L133.298 179.85L133.298 194.776Z" fill="#A0616A"/>
<path d="M132.312 193.512L133.4 193.512L137.646 191.783L139.922 193.512H139.922C141.209 193.512 142.442 194.024 143.351 194.934C144.261 195.845 144.772 197.08 144.772 198.368V198.526L132.313 198.527L132.312 193.512Z" fill="#464F53"/>
<path d="M134.971 113.175L109.837 113.804C105.064 116.4 104.991 122.02 106.555 128.692C106.555 128.692 106.027 132.658 107.083 133.715C108.139 134.773 108.667 134.773 108.139 136.623C107.611 138.474 110.401 141.497 110.062 141.836C109.723 142.175 108.931 144.026 108.931 144.026L111.571 159.096C111.571 159.096 113.419 185.269 113.947 185.798C114.475 186.327 115.003 185.798 114.475 187.12C113.947 188.442 113.419 187.913 113.947 188.442C114.415 188.947 114.856 189.476 115.267 190.028H121.65C121.65 190.028 122.131 187.384 122.131 187.12C122.131 186.856 122.659 185.269 122.659 185.005C122.659 184.741 122.192 184.273 122.192 184.273C122.031 183.736 121.922 183.184 121.867 182.626C121.867 182.097 120.283 161.74 120.283 161.74L123.451 135.302L131.107 161.211C131.107 161.211 131.107 183.947 131.635 184.476C132.163 185.005 132.163 184.741 131.899 185.798C131.635 186.856 130.579 186.591 131.371 187.384C132.163 188.178 132.427 186.856 132.163 188.178L131.899 189.499L139.819 189.613C139.819 189.613 140.875 187.384 140.347 186.591C139.819 185.798 139.85 186.015 140.495 184.717C141.139 183.419 141.403 183.154 141.139 182.89C140.875 182.626 140.875 181.219 140.875 181.219L139.555 155.923C139.555 155.923 139.291 129.221 139.291 128.428C139.271 128.02 139.346 127.612 139.51 127.238V126.162L138.499 122.347L134.971 113.175Z" fill="#464F53"/>
<path d="M119.873 60.8373C124.185 60.8373 127.682 57.336 127.682 53.0168C127.682 48.6977 124.185 45.1963 119.873 45.1963C115.56 45.1963 112.063 48.6977 112.063 53.0168C112.063 57.336 115.56 60.8373 119.873 60.8373Z" fill="#A0616A"/>
<path d="M123.777 66.0061C125.46 67.0078 126.466 68.8481 127.044 70.7209C128.114 74.188 128.757 77.7727 128.961 81.3958L129.571 92.2426L137.129 115.339C130.579 120.889 105.96 116.6 105.96 116.6C105.96 116.6 105.204 116.348 105.96 115.591C106.716 114.834 107.452 115.505 106.696 114.748C105.94 113.991 106.461 114.834 106.713 114.077C106.965 113.32 106.713 113.825 106.461 113.573C106.209 113.32 108.411 111.05 108.411 111.05L106.396 97.7926L103.877 71.0516C106.9 67.2675 112.979 65.0368 112.979 65.0368L114.55 62.2051L122.404 62.8344L123.777 66.0061Z" fill="#3F3D56"/>
<path d="M126.31 48.8619C126.917 49.3153 127.366 49.9478 127.596 50.6706C127.684 49.4895 127.689 48.3037 127.612 47.1218C127.52 46.2913 126.936 46.1045 126.26 45.888C125.65 45.6925 124.959 45.4716 124.774 44.6653C122.319 42.2738 118.046 42.3944 115.121 43.2286C113.512 43.6877 112.586 44.2774 112.503 44.6229L112.486 44.6941L112.421 44.7268C111.18 45.3479 110.939 47.3092 110.955 48.8452C110.985 51.739 111.983 55.0257 112.545 55.2927C112.575 55.3069 112.582 55.3013 112.595 55.2906C113.441 54.6132 114.474 55.342 114.928 55.7382C115.195 53.9397 116.057 52.2828 117.375 51.0322C118.693 49.7816 120.392 49.0095 122.2 48.8392C122.79 48.7821 123.376 48.6837 123.953 48.5449C124.245 48.4691 124.546 48.4296 124.848 48.4272C125.368 48.4193 125.878 48.571 126.31 48.8619Z" fill="#464F53"/>
<path d="M174.788 119.406L189.81 104.13L193.767 91.9114L187.398 89.3316C184.243 92.5187 180.996 102.275 180.996 102.275L170.743 116.056C170.661 116.087 170.579 116.119 170.499 116.157C170.027 116.38 169.62 116.721 169.318 117.148C169.017 117.575 168.83 118.072 168.776 118.592C168.722 119.112 168.803 119.637 169.011 120.116C169.219 120.596 169.547 121.014 169.964 121.329C170.38 121.644 170.87 121.847 171.388 121.917C171.905 121.987 172.432 121.922 172.917 121.729C173.402 121.536 173.829 121.22 174.156 120.813C174.484 120.406 174.702 119.922 174.788 119.406Z" fill="#FFB8B8"/>
<path d="M185.661 90.7293L193.715 93.0626L193.745 93.0568C196.706 92.4811 199.048 87.5539 200.491 83.5218C200.966 82.1919 200.919 80.731 200.359 79.4346C199.8 78.1382 198.769 77.1029 197.477 76.538C196.521 76.1277 195.469 75.9936 194.44 76.1506C193.412 76.3077 192.448 76.7497 191.657 77.4268L187.641 80.8898L185.661 90.7293Z" fill="#FF7A11"/>
<path d="M178.77 194.322L174.438 194.322L172.378 177.59L178.771 177.59L178.77 194.322Z" fill="#FFB8B8"/>
<path d="M179.875 192.906L178.656 192.906L173.896 190.967L171.345 192.905H171.344C169.903 192.905 168.52 193.479 167.501 194.5C166.481 195.521 165.908 196.906 165.908 198.349V198.526L179.875 198.527L179.875 192.906Z" fill="#464F53"/>
<path d="M197.99 194.322L193.658 194.322L191.598 177.59L197.991 177.59L197.99 194.322Z" fill="#FFB8B8"/>
<path d="M199.095 192.906L197.876 192.906L193.116 190.967L190.565 192.905H190.564C189.122 192.905 187.74 193.479 186.72 194.5C185.701 195.521 185.128 196.906 185.128 198.349V198.526L199.095 198.527L199.095 192.906Z" fill="#464F53"/>
<path d="M204.595 122.252C204.595 122.252 205.1 128.33 203.836 134.155C202.571 139.98 202.571 156.385 202.571 156.385L199.79 188.353L191.444 187.594L189.168 134.155L181.075 152.137L181.834 154.669L180.824 155.302C180.824 155.302 181.581 160.241 181.075 160.241C180.57 160.241 179.305 161.001 179.305 161.001L180.317 187.087L171.718 186.834L168.684 150.111L171.971 129.09L172.224 125.037L173.362 125.084L173.942 123.391L175.006 120.479L204.595 122.252Z" fill="#464F53"/>
<path d="M205.032 123.528L205.077 123.465C207.485 120.09 203.864 111.98 203.318 110.804L205.618 110.057L205.1 105.648L204.855 103.682L206.613 101.922L206.617 101.878L207.629 93.0139L209.1 87.1264C209.654 84.9007 209.607 82.5674 208.963 80.366C208.319 78.1646 207.102 76.1745 205.437 74.5998L202.037 71.3897L197.905 65.2672H191.242L188.957 69.5887C186.743 70.1014 184.777 71.376 183.404 73.1905C182.031 75.0049 181.337 77.2443 181.444 79.5185L181.961 90.8526L179.934 104.965L179.933 107.519L177.652 110.057L178.15 112.552L176.414 113.297L175.647 116.879C175.33 117.298 173.236 120.094 173.236 120.859C173.236 120.973 173.321 121.084 173.502 121.207C174.929 122.175 182.817 124.148 186.307 122.749C190.026 121.26 204.807 123.494 204.956 123.516L205.032 123.528Z" fill="#FF7A11"/>
<path d="M193.713 63.2908C198.586 63.2908 202.537 59.3343 202.537 54.4537C202.537 49.5731 198.586 45.6166 193.713 45.6166C188.839 45.6166 184.889 49.5731 184.889 54.4537C184.889 59.3343 188.839 63.2908 193.713 63.2908Z" fill="#FFB8B8"/>
<path d="M192.868 63.4338C194.234 63.4199 195.597 63.289 196.941 63.0427C198.272 62.7356 201.209 60.4617 202.009 59.1183C202.604 58.1203 202.961 56.5764 203.155 55.4571C203.418 53.9759 203.368 52.4558 203.007 50.9953C202.646 49.5349 201.982 48.1667 201.06 46.9792C200.704 46.4818 200.221 46.0898 199.661 45.8449C199.612 45.8269 199.561 45.8112 199.509 45.798C198.698 45.6065 197.962 45.1764 197.396 44.5631C197.287 44.4389 197.168 44.3228 197.042 44.2157C196.407 43.7069 195.661 43.3558 194.865 43.1909C193.579 42.8816 191.74 43.2692 189.398 44.3438C188.221 44.8837 186.916 44.7331 185.909 44.5416C185.853 44.5322 185.795 44.5377 185.741 44.5577C185.687 44.5776 185.64 44.6113 185.603 44.6553C185.188 45.0667 184.632 45.3053 184.048 45.3232C183.691 45.3482 183.328 45.854 182.891 46.5126C182.792 46.6622 182.677 46.8366 182.593 46.9431L182.576 46.7432L182.379 46.9718C182.07 47.3312 181.857 47.763 181.759 48.2271C181.662 48.6912 181.683 49.1725 181.821 49.6261C181.96 50.0797 182.21 50.491 182.55 50.8215C182.889 51.152 183.307 51.3911 183.764 51.5165C184.126 51.603 184.496 51.6524 184.869 51.6636C185.094 51.6781 185.328 51.6931 185.552 51.7261C186.272 51.8545 186.947 52.1678 187.511 52.6353C188.074 53.1028 188.506 53.7087 188.766 54.3936C188.828 54.5519 188.924 54.694 189.049 54.8089C189.174 54.9237 189.324 55.0083 189.486 55.0561C189.649 55.1039 189.82 55.1137 189.988 55.0846C190.155 55.0555 190.313 54.9883 190.45 54.8883C190.678 54.7009 190.947 54.5715 191.236 54.5111C191.525 54.4508 191.823 54.4612 192.107 54.5415C192.354 54.6707 192.549 54.8809 192.659 55.1368C192.793 55.4217 193.008 55.6604 193.277 55.8223C194.196 56.267 194.312 58.3393 194.031 60.0765C193.76 61.751 193.171 62.9726 192.598 63.047C192.156 63.1043 192.107 63.137 192.077 63.2162L192.05 63.2871L192.101 63.3514C192.348 63.4337 192.609 63.4619 192.868 63.4338Z" fill="#464F53"/>
<path d="M185.546 91.6744L181.304 86.262C176.984 87.4535 169.318 94.2966 169.318 94.2966L153.574 101.139C153.048 101.05 152.509 101.102 152.01 101.289C151.511 101.476 151.069 101.791 150.731 102.202C150.392 102.614 150.167 103.108 150.079 103.635C149.992 104.161 150.044 104.701 150.231 105.201C150.418 105.7 150.733 106.142 151.145 106.481C151.557 106.82 152.05 107.044 152.576 107.131C153.101 107.218 153.641 107.165 154.139 106.977C154.638 106.789 155.079 106.473 155.417 106.061L176.04 100.298L185.546 91.6744Z" fill="#FFB8B8"/>
<path d="M184.53 92.9117L191.223 85.4402L191.594 80.1461C191.663 79.1065 191.441 78.0683 190.952 77.1487C190.462 76.2291 189.726 75.4649 188.826 74.9423C187.601 74.2422 186.157 74.034 184.784 74.3598C183.412 74.6856 182.215 75.5211 181.434 76.6973C179.069 80.2665 176.525 85.0922 177.834 87.813L177.847 87.8406L184.53 92.9117Z" fill="#FF7A11"/>
<path d="M122.845 120.995L105.451 112.073C104.213 111.439 103.803 109.755 104.537 108.321L115.878 86.1437C116.612 84.7093 118.215 84.0587 119.453 84.6933L136.847 93.6148C138.084 94.2494 138.494 95.9326 137.761 97.3669L126.419 119.544C125.686 120.979 124.082 121.629 122.845 120.995Z" fill="#E6E6E6"/>
<path d="M119.873 116.893L108.055 110.832C106.896 110.238 106.512 108.661 107.199 107.318L116.622 88.8934C117.309 87.55 118.81 86.9408 119.969 87.5351L134.243 94.856C135.402 95.4503 135.785 97.0266 135.098 98.37L129.98 108.379C126.92 114.363 125.035 119.541 119.873 116.893Z" fill="white"/>
<path d="M125.716 106.832L115.248 101.463C115.12 101.372 115.03 101.237 114.992 101.084C114.955 100.931 114.974 100.77 115.046 100.63C115.117 100.49 115.237 100.38 115.382 100.321C115.528 100.262 115.69 100.258 115.839 100.308L126.306 105.677C126.434 105.768 126.525 105.903 126.563 106.056C126.6 106.209 126.581 106.37 126.509 106.51C126.438 106.65 126.318 106.759 126.172 106.819C126.027 106.878 125.865 106.882 125.716 106.832Z" fill="#FF7A11"/>
<path d="M116.47 104.97L114.081 103.744C113.953 103.653 113.863 103.519 113.825 103.366C113.788 103.213 113.807 103.052 113.879 102.912C113.95 102.772 114.07 102.662 114.215 102.603C114.361 102.544 114.523 102.539 114.672 102.59L117.061 103.815C117.189 103.906 117.28 104.041 117.317 104.194C117.354 104.346 117.335 104.508 117.264 104.648C117.192 104.788 117.072 104.897 116.927 104.957C116.781 105.016 116.619 105.02 116.47 104.97Z" fill="#FF7A11"/>
<path d="M119.535 109.421L112.915 106.026C112.787 105.935 112.696 105.8 112.659 105.647C112.622 105.494 112.641 105.333 112.713 105.193C112.784 105.053 112.904 104.943 113.049 104.884C113.195 104.825 113.357 104.82 113.506 104.871L120.126 108.266C120.254 108.358 120.344 108.492 120.382 108.645C120.419 108.798 120.4 108.959 120.328 109.099C120.257 109.239 120.137 109.349 119.992 109.408C119.846 109.467 119.684 109.472 119.535 109.421Z" fill="#FF7A11"/>
<path d="M129.859 98.7319L119.391 93.3631C119.263 93.2718 119.172 93.1374 119.135 92.9845C119.098 92.8316 119.117 92.6704 119.188 92.5303C119.26 92.3902 119.379 92.2806 119.525 92.2215C119.671 92.1624 119.833 92.1578 119.982 92.2084L130.449 97.5771C130.577 97.6685 130.668 97.8029 130.705 97.9558C130.742 98.1087 130.723 98.2699 130.652 98.41C130.58 98.55 130.461 98.6596 130.315 98.7187C130.169 98.7778 130.007 98.7825 129.859 98.7319Z" fill="#FF7A11"/>
<path d="M120.613 96.8698L118.224 95.6446C118.096 95.5532 118.005 95.4188 117.968 95.2659C117.931 95.113 117.95 94.9518 118.021 94.8117C118.093 94.6716 118.212 94.562 118.358 94.5029C118.504 94.4438 118.666 94.4392 118.815 94.4898L121.203 95.715C121.331 95.8063 121.422 95.9407 121.459 96.0936C121.497 96.2465 121.478 96.4077 121.406 96.5478C121.334 96.6879 121.215 96.7975 121.069 96.8566C120.924 96.9157 120.762 96.9204 120.613 96.8698Z" fill="#FF7A11"/>
<path d="M123.677 101.321L117.057 97.926C116.929 97.8347 116.838 97.7003 116.801 97.5474C116.764 97.3945 116.783 97.2332 116.854 97.0932C116.926 96.9531 117.045 96.8435 117.191 96.7844C117.337 96.7253 117.499 96.7206 117.648 96.7712L124.267 100.166C124.395 100.258 124.486 100.392 124.523 100.545C124.561 100.698 124.542 100.859 124.47 100.999C124.398 101.139 124.279 101.249 124.133 101.308C123.987 101.367 123.825 101.372 123.677 101.321Z" fill="#FF7A11"/>
<path d="M108.431 101.687L104.501 87.0364L115.002 85.0457L114.437 95.1018L128.235 109.329C128.965 109.3 129.689 109.483 130.317 109.858C130.945 110.232 131.45 110.782 131.772 111.44C132.093 112.097 132.217 112.834 132.128 113.561C132.038 114.287 131.739 114.972 131.268 115.532C130.797 116.091 130.173 116.501 129.473 116.712C128.773 116.923 128.026 116.925 127.325 116.718C126.624 116.512 125.998 116.105 125.523 115.548C125.048 114.991 124.746 114.308 124.652 113.582L108.431 101.687Z" fill="#A0616A"/>
<path d="M103.426 70.6099C99.8618 73.428 104.437 89.1909 104.437 89.1909C105.145 88.4124 105.968 99.9178 106.834 99.5261C109.295 98.4126 113.805 94.5732 115.543 94.8861C116.538 95.0651 115.496 87.2759 115.496 87.2759C115.496 87.2759 115.304 82.8097 114.944 77.0683C114.872 75.4432 114.391 73.8627 113.546 72.474C112.7 71.0852 111.517 69.9333 110.107 69.1255C110.107 69.1255 106.991 67.7918 103.426 70.6099Z" fill="#3F3D56"/>
<path d="M162.735 134.206L153.243 129.717C153.04 129.621 152.861 129.481 152.72 129.307C152.579 129.132 152.479 128.928 152.428 128.709C152.377 128.495 152.374 128.272 152.421 128.057C152.468 127.842 152.563 127.641 152.699 127.468C155.448 123.948 157.336 119.833 158.211 115.451C158.277 115.116 158.458 114.814 158.721 114.596C158.985 114.379 159.316 114.26 159.657 114.26C164.498 114.276 168.116 116.046 170.411 119.521C170.532 119.701 170.612 119.906 170.645 120.121C170.679 120.336 170.666 120.556 170.606 120.765C169.278 125.35 167.256 129.705 164.612 133.678C164.416 133.978 164.117 134.197 163.772 134.294C163.427 134.391 163.059 134.36 162.735 134.206Z" fill="#E6E6E6"/>
<path d="M165.528 127.91L158.27 124.478C158.09 124.392 157.95 124.239 157.883 124.05C157.816 123.862 157.826 123.655 157.911 123.474C157.996 123.293 158.15 123.154 158.338 123.086C158.526 123.019 158.733 123.029 158.913 123.114L166.171 126.546C166.26 126.588 166.341 126.648 166.407 126.721C166.473 126.795 166.525 126.88 166.558 126.974C166.592 127.067 166.606 127.166 166.601 127.265C166.597 127.363 166.573 127.46 166.53 127.55C166.488 127.639 166.429 127.72 166.355 127.786C166.282 127.853 166.197 127.904 166.104 127.938C166.01 127.971 165.912 127.986 165.813 127.981C165.714 127.976 165.617 127.952 165.528 127.91Z" fill="white"/>
<path d="M166.655 125.519L159.397 122.087C159.217 122.001 159.077 121.847 159.01 121.659C158.943 121.471 158.953 121.264 159.038 121.083C159.123 120.902 159.277 120.762 159.465 120.695C159.653 120.627 159.86 120.638 160.04 120.723L167.298 124.155C167.478 124.24 167.618 124.394 167.685 124.582C167.753 124.771 167.743 124.978 167.657 125.159C167.572 125.34 167.419 125.479 167.231 125.547C167.043 125.614 166.836 125.604 166.655 125.519Z" fill="white"/>
<path d="M156.957 50.4573L156.281 50.5315C153.269 38.6771 147.43 30.4645 139.396 26.7813C129.182 22.0995 116.553 25.2434 103.833 35.6342C91.0495 46.0781 79.7324 62.5749 71.9671 82.0865L71.3115 81.786C79.111 62.1892 90.4861 45.6127 103.342 35.1108C116.262 24.5558 129.149 21.3888 139.63 26.1933C147.895 29.9819 153.886 38.3723 156.957 50.4573Z" fill="#F2F2F2"/>
<path d="M82.4224 65.8962C80.6556 69.6235 78.9751 73.485 77.4276 77.3734C68.5222 99.7494 64.0093 122.601 64.3781 143.46L63.682 143.385C63.3129 122.449 67.8388 99.5187 76.7721 77.0729C78.3241 73.1736 80.0093 69.3012 81.7812 65.5633L82.4224 65.8962Z" fill="#F2F2F2"/>
<path d="M82.0884 81.2711C80.3216 84.9984 78.6412 88.8599 77.0936 92.7483C68.1882 115.124 63.6753 137.976 64.0441 158.835L63.3481 158.76C62.9789 137.824 67.5048 114.894 76.4381 92.4478C77.9901 88.5485 79.6753 84.6761 81.4472 80.9382L82.0884 81.2711Z" fill="#F2F2F2"/>
<path d="M63.3816 86.8627C64.151 85.7045 63.6956 84.0467 62.3645 83.1598C61.0333 82.2728 59.3305 82.4927 58.5611 83.6509C57.7917 84.809 58.2471 86.4669 59.5782 87.3538C60.9094 88.2407 62.6122 88.0208 63.3816 86.8627Z" fill="#CCCCCC"/>
<path d="M227.216 128.687C227.985 127.529 227.53 125.871 226.198 124.984C224.867 124.097 223.164 124.317 222.395 125.475C221.626 126.633 222.081 128.291 223.412 129.178C224.743 130.065 226.446 129.845 227.216 128.687Z" fill="#CCCCCC"/>
</g>
<defs>
<clipPath id="clip0_1616_2849">
<rect width="215.439" height="174.989" fill="white" transform="translate(48.2803 24.0053)"/>
</clipPath>
</defs>
</svg>
