<svg width="482" height="624" viewBox="0 0 482 624" fill="none" xmlns="http://www.w3.org/2000/svg">
<g clip-path="url(#clip0_1602_17170)">
<rect width="482" height="624" rx="10.2686" fill="#EDF8F7"/>
<path d="M95.6348 367.91C95.6348 287.065 161.172 221.528 242.016 221.528C322.86 221.528 388.397 287.065 388.397 367.91L388.397 514.291H95.6348L95.6348 367.91Z" fill="#14B8AA"/>
<g clip-path="url(#clip1_1602_17170)">
<path d="M389.597 183.405C387.009 211.956 379.638 242.062 368.077 271.109C353.78 307.031 334.247 338.671 311.589 362.608L310.332 361.51C332.88 337.688 352.324 306.188 366.561 270.415C379.428 238.087 387.081 204.446 388.703 173.142L390.309 173.411C390.139 176.718 389.901 180.049 389.597 183.405Z" fill="#F2F2F2"/>
<path d="M399.901 349.224C368.077 399.929 329.467 436.157 291.184 451.235L290.409 449.814C328.428 434.84 366.811 398.797 398.49 348.324L399.901 349.224Z" fill="#F2F2F2"/>
<path d="M388.823 218.952C386.236 247.503 378.864 277.609 367.303 306.657C353.007 342.578 333.474 374.218 310.816 398.155L309.559 397.057C332.107 373.235 351.551 341.735 365.788 305.962C378.654 273.635 386.307 239.993 387.929 208.689L389.536 208.959C389.365 212.265 389.128 215.596 388.823 218.952Z" fill="#F2F2F2"/>
<path d="M31.5546 292.252H10.674C10.2279 292.252 9.78732 292.152 9.38541 291.958C8.98349 291.764 8.63063 291.482 8.35329 291.132C8.07931 290.791 7.88602 290.392 7.78791 289.966C7.6898 289.539 7.68943 289.096 7.78683 288.669C9.7755 279.882 9.65056 270.746 7.42233 262.016C7.28138 261.442 7.31547 260.838 7.52017 260.283C7.72488 259.727 8.09085 259.246 8.57096 258.901C19.3078 251.168 27.7634 251.392 33.7031 259.569C33.9709 259.942 34.1488 260.372 34.2228 260.825C35.8098 270.38 35.8976 280.124 34.4831 289.706C34.3848 290.413 34.0339 291.061 33.4955 291.529C32.9571 291.997 32.2676 292.254 31.5546 292.252Z" fill="#E6E6E6"/>
<path d="M25.082 271.311H17.899C17.5018 271.311 17.1209 271.153 16.84 270.871C16.5591 270.59 16.4014 270.209 16.4014 269.811C16.4014 269.413 16.5591 269.032 16.84 268.75C17.1209 268.469 17.5018 268.311 17.899 268.311H25.082C25.4786 268.312 25.8588 268.47 26.139 268.751C26.4191 269.033 26.5765 269.414 26.5765 269.811C26.5765 270.208 26.4191 270.589 26.139 270.87C25.8588 271.151 25.4786 271.31 25.082 271.311Z" fill="white"/>
<path d="M25.082 276.571H17.899C17.5018 276.571 17.1209 276.413 16.84 276.131C16.5591 275.85 16.4014 275.469 16.4014 275.071C16.4014 274.673 16.5591 274.292 16.84 274.01C17.1209 273.729 17.5018 273.571 17.899 273.571H25.082C25.4786 273.572 25.8588 273.73 26.139 274.012C26.4191 274.293 26.5765 274.674 26.5765 275.071C26.5765 275.468 26.4191 275.849 26.139 276.13C25.8588 276.412 25.4786 276.57 25.082 276.571Z" fill="white"/>
<path d="M25.082 281.831H17.899C17.5018 281.831 17.1209 281.673 16.84 281.392C16.5591 281.11 16.4014 280.729 16.4014 280.331C16.4014 279.933 16.5591 279.552 16.84 279.27C17.1209 278.989 17.5018 278.831 17.899 278.831H25.082C25.4786 278.832 25.8588 278.99 26.139 279.272C26.4191 279.553 26.5765 279.934 26.5765 280.331C26.5765 280.728 26.4191 281.109 26.139 281.39C25.8588 281.672 25.4786 281.83 25.082 281.831Z" fill="white"/>
<path d="M411.039 385.618H390.158C389.712 385.618 389.272 385.518 388.87 385.324C388.468 385.13 388.115 384.848 387.838 384.498C387.564 384.157 387.37 383.758 387.272 383.332C387.174 382.905 387.174 382.462 387.271 382.035C389.26 373.248 389.135 364.112 386.907 355.382C386.766 354.808 386.8 354.204 387.005 353.649C387.209 353.093 387.575 352.612 388.055 352.267C398.792 344.534 407.248 344.758 413.188 352.935C413.455 353.308 413.633 353.738 413.707 354.191C415.294 363.746 415.382 373.49 413.967 383.072C413.869 383.779 413.518 384.427 412.98 384.895C412.441 385.363 411.752 385.619 411.039 385.618Z" fill="#E6E6E6"/>
<path d="M404.565 364.677H397.382C396.986 364.676 396.605 364.517 396.325 364.236C396.045 363.955 395.888 363.574 395.888 363.177C395.888 362.78 396.045 362.399 396.325 362.117C396.605 361.836 396.986 361.678 397.382 361.677H404.565C404.962 361.677 405.343 361.835 405.624 362.116C405.905 362.398 406.063 362.779 406.063 363.177C406.063 363.575 405.905 363.956 405.624 364.237C405.343 364.519 404.962 364.677 404.565 364.677Z" fill="white"/>
<path d="M404.565 369.937H397.382C396.986 369.936 396.605 369.778 396.325 369.496C396.045 369.215 395.888 368.834 395.888 368.437C395.888 368.04 396.045 367.659 396.325 367.377C396.605 367.096 396.986 366.938 397.382 366.937H404.565C404.962 366.937 405.343 367.095 405.624 367.376C405.905 367.658 406.063 368.039 406.063 368.437C406.063 368.835 405.905 369.216 405.624 369.497C405.343 369.779 404.962 369.937 404.565 369.937Z" fill="white"/>
<path d="M404.565 375.197H397.382C396.986 375.196 396.605 375.038 396.325 374.756C396.045 374.475 395.888 374.094 395.888 373.697C395.888 373.3 396.045 372.919 396.325 372.638C396.605 372.356 396.986 372.198 397.382 372.197H404.565C404.962 372.197 405.343 372.355 405.624 372.636C405.905 372.918 406.063 373.299 406.063 373.697C406.063 374.095 405.905 374.476 405.624 374.758C405.343 375.039 404.962 375.197 404.565 375.197Z" fill="white"/>
<path d="M122.931 465.602L121.629 447.462C113.098 443.192 103.655 441.071 94.1201 441.285C107.534 451.669 106.46 472.423 115.75 486.626C118.682 491.034 122.566 494.724 127.115 497.424C131.664 500.124 136.762 501.764 142.03 502.223L153.194 508.655C154.471 500.202 153.903 491.573 151.529 483.361C149.155 475.149 145.032 467.55 139.443 461.087C136.272 457.493 132.662 454.313 128.697 451.622C126.257 458.639 122.931 465.602 122.931 465.602Z" fill="#F2F2F2"/>
<path d="M359.068 468.232L360.371 450.092C368.902 445.822 378.344 443.701 387.879 443.915C374.465 454.299 375.539 475.053 366.249 489.256C363.318 493.664 359.434 497.354 354.884 500.054C350.335 502.754 345.237 504.394 339.969 504.853L328.805 511.285C327.528 502.832 328.096 494.202 330.47 485.991C332.844 477.779 336.967 470.18 342.556 463.717C345.727 460.123 349.338 456.943 353.302 454.252C355.743 461.269 359.068 468.232 359.068 468.232Z" fill="#F2F2F2"/>
<path d="M235.091 263.528C241.98 263.528 247.565 257.935 247.565 251.035C247.565 244.136 241.98 238.543 235.091 238.543C228.201 238.543 222.616 244.136 222.616 251.035C222.616 257.935 228.201 263.528 235.091 263.528Z" fill="#FF7A11"/>
<path d="M241.494 245.829C241.307 245.65 241.057 245.55 240.798 245.55C240.539 245.55 240.289 245.65 240.101 245.829C237.455 247.943 235.077 250.375 233.023 253.07C232.518 252.093 232.014 251.115 231.51 250.138C230.927 249.01 229.227 250.006 229.809 251.134C230.547 252.563 231.284 253.993 232.022 255.422C232.111 255.568 232.236 255.689 232.385 255.772C232.534 255.856 232.702 255.9 232.872 255.9C233.043 255.9 233.211 255.856 233.36 255.772C233.509 255.689 233.634 255.568 233.723 255.422C235.912 252.334 238.529 249.574 241.494 247.224C241.677 247.038 241.78 246.787 241.78 246.526C241.78 246.265 241.677 246.015 241.494 245.829Z" fill="white"/>
<path d="M179.274 286.46L160.463 256.875L182.246 245.192L187.963 267.764L228.246 289.564C229.836 288.991 231.558 288.893 233.203 289.283C234.848 289.674 236.344 290.535 237.508 291.762C238.673 292.989 239.455 294.528 239.761 296.193C240.067 297.858 239.882 299.576 239.23 301.137C238.578 302.699 237.486 304.037 236.088 304.987C234.689 305.938 233.045 306.461 231.355 306.492C229.665 306.523 228.003 306.061 226.57 305.163C225.138 304.264 223.998 302.967 223.289 301.431L179.274 286.46Z" fill="#A0616A"/>
<path d="M146.719 221.391C140.809 230.081 161.813 261.671 161.813 261.671C162.837 259.463 172.618 284.267 174.257 282.802C178.913 278.638 186.202 267.037 190.253 266.52C192.57 266.225 184.88 249.768 184.88 249.768C184.88 249.768 181.365 240.05 176.595 227.637C175.312 224.103 173.156 220.951 170.329 218.475C167.502 215.999 164.096 214.28 160.427 213.478C160.427 213.478 152.63 212.7 146.719 221.391Z" fill="#3F3D56"/>
<path d="M147.009 504.536L155.942 504.536L160.192 470.026L147.007 470.027L147.009 504.536Z" fill="#A0616A"/>
<path d="M144.729 501.615L147.244 501.615L157.061 497.617L162.323 501.614H162.324C165.298 501.615 168.149 502.798 170.252 504.903C172.355 507.009 173.536 509.865 173.536 512.843V513.208L144.73 513.209L144.729 501.615Z" fill="#464F53"/>
<path d="M188.513 504.536L197.447 504.536L201.697 470.027L188.512 470.027L188.513 504.536Z" fill="#A0616A"/>
<path d="M186.233 501.615L188.748 501.615L198.565 497.617L203.827 501.614H203.828C206.802 501.615 209.653 502.798 211.756 504.903C213.859 507.009 215.04 509.865 215.04 512.843V513.208L186.234 513.209L186.233 501.615Z" fill="#464F53"/>
<path d="M192.38 315.872L134.271 317.327C123.234 323.33 123.067 336.322 126.683 351.749C126.683 351.749 125.462 360.917 127.904 363.362C130.345 365.807 131.566 365.808 130.345 370.086C129.124 374.365 135.574 381.354 134.791 382.138C134.007 382.923 132.176 387.201 132.176 387.201L138.28 422.043C138.28 422.043 142.552 482.557 143.773 483.78C144.994 485.002 146.215 483.78 144.994 486.836C143.773 489.892 142.552 488.67 143.773 489.892C144.854 491.06 145.873 492.284 146.825 493.56H161.582C161.582 493.56 162.694 487.447 162.694 486.836C162.694 486.225 163.915 482.557 163.915 481.946C163.915 481.335 162.836 480.254 162.836 480.254C162.463 479.012 162.211 477.736 162.084 476.445C162.084 475.222 158.422 428.156 158.422 428.156L165.746 367.03L183.447 426.933C183.447 426.933 183.447 479.501 184.667 480.723C185.888 481.946 185.888 481.335 185.278 483.78C184.667 486.225 182.226 485.614 184.057 487.447C185.888 489.281 186.498 486.225 185.888 489.281L185.278 492.337L203.589 492.6C203.589 492.6 206.03 487.447 204.809 485.614C203.589 483.78 203.662 484.28 205.151 481.279C206.64 478.278 207.251 477.667 206.64 477.056C206.03 476.445 206.03 473.194 206.03 473.194L202.978 414.708C202.978 414.708 202.368 352.971 202.368 351.137C202.322 350.194 202.495 349.252 202.875 348.388V345.898L200.537 337.079L192.38 315.872Z" fill="#464F53"/>
<path d="M157.472 194.866C167.443 194.866 175.527 186.771 175.527 176.785C175.527 166.799 167.443 158.704 157.472 158.704C147.5 158.704 139.417 166.799 139.417 176.785C139.417 186.771 147.5 194.866 157.472 194.866Z" fill="#A0616A"/>
<path d="M166.501 206.817C170.391 209.133 172.717 213.388 174.053 217.717C176.526 225.733 178.014 234.021 178.486 242.398L179.896 267.476L197.369 320.875C182.226 333.707 125.307 323.791 125.307 323.791C125.307 323.791 123.559 323.208 125.307 321.458C127.054 319.708 128.755 321.259 127.008 319.509C125.26 317.759 126.465 319.708 127.047 317.959C127.63 316.209 127.047 317.375 126.465 316.792C125.883 316.209 130.974 310.959 130.974 310.959L126.314 280.308L120.49 218.482C127.479 209.733 141.535 204.576 141.535 204.576L145.167 198.029L163.326 199.484L166.501 206.817Z" fill="#3F3D56"/>
<path d="M172.357 167.179C173.76 168.227 174.799 169.689 175.329 171.36C175.533 168.63 175.545 165.888 175.368 163.156C175.155 161.235 173.805 160.803 172.242 160.303C170.83 159.851 169.234 159.34 168.805 157.476C163.129 151.947 153.249 152.226 146.488 154.154C142.768 155.216 140.627 156.579 140.435 157.378L140.396 157.543L140.244 157.618C137.377 159.054 136.818 163.589 136.855 167.14C136.925 173.831 139.232 181.43 140.531 182.047C140.6 182.08 140.618 182.067 140.647 182.042C142.604 180.476 144.991 182.161 146.04 183.077C146.659 178.919 148.652 175.088 151.699 172.197C154.747 169.305 158.675 167.52 162.854 167.126C164.219 166.994 165.573 166.767 166.907 166.446C167.583 166.27 168.278 166.179 168.977 166.174C170.18 166.155 171.359 166.506 172.357 167.179Z" fill="#464F53"/>
<path d="M284.438 330.279L319.169 294.959L328.319 266.711L313.594 260.746C306.3 268.115 298.791 290.672 298.791 290.672L275.086 322.534C274.896 322.604 274.708 322.679 274.522 322.767C273.43 323.283 272.49 324.072 271.793 325.058C271.095 326.045 270.663 327.194 270.538 328.397C270.414 329.599 270.601 330.813 271.082 331.922C271.563 333.03 272.322 333.996 273.284 334.725C274.247 335.454 275.381 335.922 276.577 336.084C277.773 336.246 278.991 336.097 280.112 335.65C281.233 335.203 282.221 334.474 282.978 333.533C283.736 332.592 284.239 331.471 284.438 330.279Z" fill="#FFB8B8"/>
<path d="M309.578 263.977L328.2 269.372L328.269 269.359C335.114 268.028 340.529 256.636 343.866 247.314C344.963 244.239 344.854 240.861 343.56 237.864C342.267 234.866 339.885 232.473 336.896 231.167C334.685 230.218 332.253 229.908 329.876 230.271C327.498 230.634 325.269 231.656 323.44 233.222L314.156 241.228L309.578 263.977Z" fill="#FF7A11"/>
<path d="M293.646 503.487L283.631 503.486L278.867 464.802L293.647 464.802L293.646 503.487Z" fill="#FFB8B8"/>
<path d="M296.2 500.212L293.382 500.212L282.376 495.73L276.478 500.212H276.477C273.144 500.212 269.947 501.538 267.59 503.898C265.233 506.259 263.908 509.46 263.908 512.799V513.208L296.2 513.209L296.2 500.212Z" fill="#464F53"/>
<path d="M338.082 503.487L328.067 503.486L323.303 464.802L338.084 464.802L338.082 503.487Z" fill="#FFB8B8"/>
<path d="M340.638 500.212L337.819 500.212L326.814 495.73L320.915 500.212H320.915C317.581 500.212 314.384 501.538 312.027 503.898C309.67 506.259 308.346 509.46 308.346 512.799V513.208L340.637 513.209L340.638 500.212Z" fill="#464F53"/>
<path d="M353.353 336.858C353.353 336.858 354.522 350.911 351.598 364.379C348.675 377.847 348.675 415.776 348.675 415.776L342.243 489.688L322.948 487.931L317.686 364.379L298.975 405.953L300.73 411.809L298.393 413.273C298.393 413.273 300.145 424.691 298.975 424.691C297.806 424.691 294.883 426.448 294.883 426.448L297.221 486.76L277.342 486.174L270.325 401.269L277.926 352.668L278.511 343.299L281.142 343.407L282.482 339.493L284.943 332.759L353.353 336.858Z" fill="#464F53"/>
<path d="M354.364 339.81L354.468 339.663C360.034 331.86 351.663 313.109 350.401 310.391L355.718 308.663L354.521 298.47L353.953 293.926L358.018 289.856L358.029 289.754L360.368 269.26L363.768 255.647C365.05 250.502 364.94 245.107 363.452 240.017C361.963 234.928 359.149 230.326 355.298 226.686L347.438 219.264L337.885 205.108H322.48L317.198 215.1C312.077 216.285 307.534 219.232 304.359 223.427C301.185 227.622 299.581 232.8 299.826 238.058L301.023 264.263L296.337 296.89L296.334 302.795L291.06 308.665L292.211 314.431L288.198 316.154L286.425 324.436C285.692 325.406 280.851 331.87 280.851 333.637C280.851 333.903 281.046 334.159 281.466 334.444C284.765 336.681 303 341.242 311.071 338.008C319.668 334.566 353.842 339.73 354.186 339.782L354.364 339.81Z" fill="#FF7A11"/>
<path d="M328.193 200.539C339.46 200.539 348.595 191.391 348.595 180.107C348.595 168.823 339.46 159.675 328.193 159.675C316.925 159.675 307.791 168.823 307.791 180.107C307.791 191.391 316.925 200.539 328.193 200.539Z" fill="#FFB8B8"/>
<path d="M326.238 200.87C329.397 200.837 332.548 200.535 335.657 199.965C338.734 199.255 345.523 193.998 347.373 190.892C348.748 188.584 349.573 185.015 350.023 182.427C350.631 179.002 350.514 175.488 349.679 172.111C348.845 168.735 347.311 165.571 345.178 162.826C344.356 161.676 343.239 160.77 341.944 160.203C341.83 160.162 341.712 160.125 341.593 160.095C339.717 159.652 338.016 158.658 336.709 157.24C336.455 156.953 336.18 156.684 335.888 156.437C334.421 155.26 332.697 154.448 330.856 154.067C327.883 153.352 323.63 154.248 318.216 156.733C315.496 157.981 312.476 157.633 310.149 157.19C310.019 157.168 309.885 157.181 309.761 157.227C309.637 157.273 309.527 157.351 309.443 157.453C308.482 158.404 307.197 158.956 305.847 158.997C305.021 159.055 304.183 160.224 303.172 161.747C302.943 162.093 302.676 162.496 302.481 162.742L302.443 162.28L301.988 162.809C301.274 163.64 300.781 164.638 300.555 165.711C300.33 166.784 300.379 167.897 300.698 168.946C301.018 169.994 301.597 170.945 302.383 171.709C303.168 172.474 304.133 173.026 305.189 173.316C306.027 173.516 306.883 173.63 307.744 173.656C308.266 173.69 308.806 173.724 309.324 173.801C310.99 174.098 312.55 174.822 313.852 175.903C315.154 176.984 316.155 178.385 316.755 179.968C316.897 180.334 317.121 180.663 317.409 180.928C317.698 181.194 318.044 181.389 318.42 181.5C318.796 181.611 319.193 181.633 319.579 181.566C319.965 181.498 320.331 181.343 320.647 181.112C321.174 180.679 321.798 180.38 322.465 180.24C323.133 180.1 323.824 180.124 324.48 180.31C325.05 180.609 325.501 181.095 325.756 181.687C326.064 182.345 326.562 182.897 327.185 183.271C329.309 184.3 329.577 189.091 328.927 193.107C328.301 196.979 326.938 199.803 325.613 199.975C324.594 200.108 324.478 200.183 324.409 200.366L324.347 200.53L324.466 200.679C325.036 200.869 325.64 200.934 326.238 200.87Z" fill="#464F53"/>
<path d="M309.312 266.162L299.505 253.649C289.516 256.404 271.792 272.225 271.792 272.225L235.392 288.044C234.177 287.84 232.929 287.96 231.775 288.391C230.621 288.823 229.601 289.552 228.818 290.504C228.034 291.456 227.515 292.598 227.312 293.815C227.11 295.032 227.231 296.281 227.663 297.436C228.096 298.591 228.824 299.612 229.776 300.395C230.728 301.179 231.869 301.697 233.084 301.899C234.299 302.1 235.546 301.978 236.699 301.543C237.852 301.109 238.871 300.378 239.652 299.424L287.335 286.102L309.312 266.162Z" fill="#FFB8B8"/>
<path d="M306.962 269.023L322.435 251.749L323.294 239.509C323.454 237.105 322.94 234.705 321.809 232.579C320.678 230.453 318.976 228.686 316.895 227.478C314.063 225.859 310.723 225.377 307.55 226.131C304.377 226.884 301.608 228.816 299.803 231.535C294.336 239.787 288.454 250.944 291.481 257.235L291.511 257.299L306.962 269.023Z" fill="#FF7A11"/>
<path d="M164.344 333.952L124.128 313.325C121.267 311.858 120.32 307.966 122.016 304.65L148.238 253.375C149.934 250.059 153.641 248.555 156.501 250.022L196.718 270.649C199.578 272.116 200.526 276.008 198.83 279.324L172.608 330.599C170.912 333.915 167.205 335.419 164.344 333.952Z" fill="#E6E6E6"/>
<path d="M157.472 324.47L130.149 310.456C127.47 309.081 126.582 305.437 128.17 302.331L149.955 259.733C151.543 256.627 155.015 255.218 157.694 256.592L190.696 273.519C193.375 274.893 194.262 278.537 192.674 281.643L180.839 304.785C173.764 318.619 169.406 330.59 157.472 324.47Z" fill="white"/>
<path d="M170.982 301.207L146.781 288.794C146.485 288.583 146.275 288.272 146.189 287.919C146.103 287.565 146.146 287.192 146.312 286.869C146.478 286.545 146.754 286.291 147.091 286.155C147.427 286.018 147.802 286.007 148.146 286.124L172.347 298.537C172.643 298.748 172.853 299.059 172.94 299.412C173.026 299.766 172.982 300.139 172.816 300.463C172.651 300.786 172.374 301.04 172.037 301.176C171.701 301.313 171.326 301.324 170.982 301.207Z" fill="#FF7A11"/>
<path d="M149.606 296.902L144.084 294.069C143.788 293.858 143.577 293.547 143.491 293.194C143.405 292.84 143.449 292.467 143.615 292.143C143.78 291.82 144.057 291.566 144.394 291.429C144.73 291.293 145.105 291.282 145.449 291.399L150.972 294.232C151.268 294.443 151.478 294.754 151.564 295.107C151.65 295.461 151.606 295.833 151.441 296.157C151.275 296.481 150.999 296.735 150.662 296.871C150.325 297.008 149.951 297.019 149.606 296.902Z" fill="#FF7A11"/>
<path d="M156.69 307.193L141.385 299.344C141.089 299.133 140.879 298.822 140.793 298.468C140.707 298.115 140.751 297.742 140.916 297.418C141.082 297.094 141.358 296.841 141.695 296.704C142.032 296.568 142.407 296.557 142.751 296.674L158.055 304.524C158.351 304.735 158.562 305.045 158.648 305.399C158.734 305.753 158.69 306.125 158.524 306.449C158.359 306.773 158.082 307.026 157.746 307.163C157.409 307.3 157.034 307.311 156.69 307.193Z" fill="#FF7A11"/>
<path d="M180.559 282.48L156.358 270.067C156.062 269.856 155.852 269.545 155.766 269.192C155.68 268.838 155.723 268.465 155.889 268.141C156.055 267.818 156.331 267.564 156.668 267.428C157.005 267.291 157.379 267.28 157.723 267.397L181.925 279.81C182.22 280.021 182.431 280.332 182.517 280.685C182.603 281.039 182.559 281.412 182.393 281.735C182.228 282.059 181.951 282.313 181.615 282.449C181.278 282.586 180.903 282.597 180.559 282.48Z" fill="#FF7A11"/>
<path d="M159.184 278.174L153.661 275.342C153.365 275.131 153.155 274.82 153.068 274.466C152.982 274.113 153.026 273.74 153.192 273.416C153.357 273.092 153.634 272.839 153.971 272.702C154.307 272.566 154.682 272.555 155.026 272.672L160.549 275.505C160.845 275.716 161.055 276.026 161.141 276.38C161.227 276.734 161.183 277.106 161.018 277.43C160.852 277.754 160.576 278.007 160.239 278.144C159.902 278.281 159.528 278.292 159.184 278.174Z" fill="#FF7A11"/>
<path d="M166.268 288.466L150.963 280.617C150.667 280.405 150.457 280.095 150.371 279.741C150.285 279.388 150.329 279.015 150.495 278.691C150.66 278.367 150.937 278.114 151.273 277.977C151.61 277.84 151.985 277.83 152.329 277.947L167.634 285.796C167.93 286.008 168.14 286.318 168.226 286.672C168.312 287.025 168.268 287.398 168.102 287.722C167.937 288.046 167.66 288.299 167.324 288.436C166.987 288.573 166.612 288.583 166.268 288.466Z" fill="#FF7A11"/>
<path d="M131.018 289.312L121.933 255.439L146.211 250.837L144.906 274.087L176.806 306.982C178.495 306.912 180.167 307.337 181.619 308.203C183.071 309.069 184.24 310.34 184.984 311.86C185.727 313.381 186.013 315.084 185.806 316.764C185.599 318.444 184.909 320.028 183.819 321.322C182.729 322.615 181.287 323.564 179.668 324.051C178.049 324.538 176.324 324.543 174.703 324.065C173.081 323.587 171.634 322.647 170.536 321.359C169.439 320.072 168.74 318.492 168.523 316.813L131.018 289.312Z" fill="#A0616A"/>
<path d="M119.449 217.461C111.208 223.976 121.786 260.421 121.786 260.421C123.423 258.621 125.326 285.222 127.328 284.316C133.017 281.742 143.444 272.865 147.464 273.588C149.763 274.002 147.355 255.993 147.355 255.993C147.355 255.993 146.912 245.667 146.079 232.393C145.913 228.636 144.801 224.981 142.845 221.771C140.89 218.56 138.155 215.896 134.896 214.029C134.896 214.029 127.69 210.945 119.449 217.461Z" fill="#3F3D56"/>
<path d="M256.572 364.496L234.626 354.118C234.157 353.897 233.744 353.573 233.417 353.169C233.091 352.766 232.86 352.293 232.742 351.788C232.623 351.293 232.617 350.778 232.726 350.281C232.834 349.784 233.053 349.318 233.367 348.918C239.724 340.781 244.089 331.266 246.112 321.136C246.265 320.36 246.682 319.661 247.292 319.159C247.902 318.657 248.666 318.381 249.456 318.381C260.649 318.419 269.014 322.512 274.318 330.544C274.598 330.962 274.783 331.436 274.861 331.933C274.939 332.429 274.908 332.937 274.77 333.421C271.699 344.023 267.025 354.091 260.911 363.276C260.458 363.97 259.768 364.477 258.97 364.701C258.172 364.925 257.32 364.852 256.572 364.496Z" fill="#E6E6E6"/>
<path d="M263.029 349.94L246.248 342.005C245.831 341.807 245.509 341.452 245.353 341.017C245.197 340.581 245.221 340.102 245.418 339.684C245.615 339.266 245.97 338.943 246.404 338.787C246.839 338.631 247.317 338.655 247.735 338.852L264.515 346.787C264.722 346.885 264.907 347.023 265.061 347.192C265.214 347.362 265.333 347.56 265.41 347.775C265.488 347.991 265.522 348.219 265.51 348.448C265.499 348.677 265.443 348.901 265.346 349.108C265.248 349.315 265.111 349.501 264.942 349.655C264.772 349.808 264.574 349.927 264.359 350.005C264.144 350.082 263.916 350.116 263.687 350.105C263.459 350.094 263.235 350.038 263.029 349.94Z" fill="white"/>
<path d="M265.635 344.412L248.855 336.476C248.437 336.279 248.115 335.924 247.96 335.488C247.804 335.053 247.827 334.574 248.024 334.156C248.221 333.738 248.576 333.415 249.011 333.259C249.445 333.103 249.924 333.126 250.341 333.324L267.122 341.259C267.539 341.456 267.861 341.812 268.017 342.247C268.173 342.682 268.149 343.162 267.952 343.58C267.755 343.998 267.4 344.32 266.966 344.476C266.531 344.632 266.052 344.609 265.635 344.412Z" fill="white"/>
<path d="M243.213 170.867L241.651 171.039C234.687 143.631 221.188 124.643 202.612 116.128C178.997 105.303 149.797 112.572 120.39 136.596C90.833 160.742 64.6675 198.884 46.7138 243.995L45.1982 243.3C63.2308 197.992 89.5305 159.667 119.253 135.386C149.124 110.982 178.921 103.66 203.153 114.768C222.261 123.528 236.114 142.926 243.213 170.867Z" fill="#F2F2F2"/>
<path d="M70.8854 206.562C66.8006 215.18 62.9153 224.108 59.3373 233.098C38.7476 284.832 28.3137 337.667 29.1663 385.892L27.5571 385.72C26.7036 337.315 37.1676 284.299 57.8217 232.404C61.41 223.388 65.3064 214.435 69.4029 205.793L70.8854 206.562Z" fill="#F2F2F2"/>
<path d="M70.1139 242.11C66.0291 250.727 62.1438 259.655 58.5658 268.645C37.9761 320.38 27.5422 373.214 28.3948 421.439L26.7856 421.267C25.9321 372.862 36.3961 319.846 57.0502 267.951C60.6385 258.935 64.5349 249.982 68.6314 241.34L70.1139 242.11Z" fill="#F2F2F2"/>
<path d="M26.8623 255.038C28.6412 252.36 27.5883 248.527 24.5106 246.476C21.4329 244.426 17.4959 244.934 15.717 247.612C13.9382 250.29 14.991 254.123 18.0687 256.173C21.1464 258.224 25.0834 257.715 26.8623 255.038Z" fill="#CCCCCC"/>
<path d="M405.652 351.737C407.431 349.059 406.378 345.226 403.301 343.175C400.223 341.125 396.286 341.633 394.507 344.311C392.728 346.989 393.781 350.822 396.859 352.872C399.936 354.923 403.873 354.414 405.652 351.737Z" fill="#CCCCCC"/>
</g>
</g>
<defs>
<clipPath id="clip0_1602_17170">
<rect width="482" height="624" rx="10.2686" fill="white"/>
</clipPath>
<clipPath id="clip1_1602_17170">
<rect width="498.103" height="404.581" fill="white" transform="translate(-8.05176 109.709)"/>
</clipPath>
</defs>
</svg>
