<svg width="482" height="624" viewBox="0 0 482 624" fill="none" xmlns="http://www.w3.org/2000/svg">
<rect width="482" height="624" rx="10" fill="#FFF0CD"/>
<path d="M98 311.553C98 232.823 161.823 169 240.553 169C319.282 169 383.106 232.823 383.106 311.553L383.106 454.106L98 454.106L98 311.553Z" fill="#FF7A11"/>
<g clip-path="url(#clip0_1541_5257)">
<path d="M96 310.53C96 229.896 161.366 164.53 242 164.53C322.634 164.53 388 229.896 388 310.53L388 456L96 456L96 310.53Z" fill="white"/>
<path d="M131.822 449.131C137.035 457.374 143.385 464.844 150.685 471.319C150.852 471.471 151.024 471.617 151.195 471.766L166.782 462.523C166.667 462.367 166.54 462.191 166.403 461.999C158.265 450.692 121.508 375.466 121.283 358.808C121.255 360.187 108.055 411.961 131.822 449.131Z" fill="#2DD2C5"/>
<path d="M147.678 473.103C147.918 473.211 148.164 473.316 148.412 473.416L160.106 466.482C159.923 466.377 159.71 466.252 159.466 466.113C155.463 463.779 143.551 456.767 131.823 449.13C119.221 440.922 106.824 431.998 104.673 427.383C105.121 428.445 118.996 460.718 147.678 473.103Z" fill="#2DD2C5"/>
<path d="M371.09 427.572C370.828 437.316 369.193 446.975 366.231 456.264C366.165 456.479 366.092 456.692 366.022 456.907H347.89C347.909 456.714 347.929 456.498 347.948 456.264C349.157 442.394 342.25 358.986 333.916 344.55C334.646 345.721 372.496 383.502 371.09 427.572Z" fill="#2DD2C5"/>
<path d="M369.73 456.263C369.578 456.479 369.421 456.694 369.259 456.907H355.656C355.759 456.723 355.879 456.508 356.017 456.263C358.264 452.216 364.915 440.116 371.089 427.572C377.721 414.092 383.811 400.1 383.298 395.036C383.457 396.178 388.048 430.995 369.73 456.263Z" fill="#2DD2C5"/>
<path d="M125.593 206.923H218.752C223.247 206.923 227.609 208.45 231.119 211.251C234.63 214.053 237.082 217.963 238.07 222.34L285.141 430.696C285.655 432.969 285.664 435.326 285.168 437.603C284.672 439.879 283.683 442.02 282.27 443.874C280.858 445.729 279.056 447.253 276.99 448.339C274.925 449.426 272.647 450.048 270.315 450.162L174.548 454.871C169.42 455.123 164.375 453.505 160.355 450.318C156.335 447.131 153.614 442.593 152.7 437.551L125.998 290.241L120.947 262.376L113.494 221.257C113.175 219.495 113.249 217.686 113.711 215.956C114.173 214.227 115.011 212.62 116.167 211.251C117.322 209.883 118.766 208.785 120.396 208.037C122.025 207.289 123.8 206.908 125.593 206.923Z" fill="#3F3D56"/>
<path d="M206.488 211.415H217.362C220.485 211.415 223.514 212.481 225.946 214.436C228.379 216.39 230.068 219.117 230.733 222.161L275.915 428.818C276.175 430.008 276.175 431.24 275.915 432.429C275.654 433.619 275.139 434.739 274.405 435.712C273.671 436.685 272.736 437.488 271.662 438.067C270.588 438.646 269.402 438.987 268.185 439.067L172.727 445.31C170.034 445.486 167.37 444.667 165.244 443.008C163.118 441.349 161.678 438.967 161.2 436.316L122.646 222.716C122.396 221.334 122.454 219.914 122.814 218.556C123.175 217.198 123.83 215.935 124.733 214.858C125.635 213.78 126.764 212.913 128.04 212.318C129.315 211.723 130.705 211.415 132.113 211.415H142.429C143.427 211.415 144.398 211.744 145.191 212.35C145.983 212.956 146.553 213.806 146.813 214.768C147.042 215.617 147.545 216.367 148.245 216.903C148.944 217.438 149.801 217.728 150.683 217.728H199.657C201.383 217.728 203.045 217.077 204.312 215.907C205.578 214.737 206.355 213.132 206.488 211.415Z" fill="white"/>
<path fill-rule="evenodd" clip-rule="evenodd" d="M173.665 293.774C174.746 291.974 176.759 291.783 178.161 293.348L204.333 322.579L224.527 288.954C225.609 287.154 227.622 286.963 229.023 288.528C230.425 290.094 230.684 292.822 229.603 294.623L209.408 328.248L235.581 357.479C236.982 359.044 237.242 361.772 236.16 363.573C235.079 365.374 233.066 365.564 231.665 363.999L205.492 334.768L185.298 368.393C184.216 370.193 182.204 370.384 180.802 368.819C179.401 367.253 179.141 364.525 180.222 362.724L200.417 329.1L174.245 299.868C172.843 298.303 172.584 295.575 173.665 293.774Z" fill="#E33838"/>
<path d="M254.666 277.659C254.971 277.856 255.26 278.076 255.53 278.319L287.086 270.291L289.238 262.694L301.152 264.438L298.65 278.256C298.448 279.373 297.889 280.393 297.056 281.165C296.223 281.937 295.162 282.419 294.031 282.538L257.187 286.41C256.586 287.672 255.615 288.721 254.402 289.418C253.19 290.116 251.793 290.428 250.398 290.314C249.003 290.2 247.676 289.665 246.593 288.78C245.51 287.895 244.723 286.702 244.336 285.359C243.95 284.017 243.982 282.589 244.428 281.265C244.875 279.941 245.714 278.784 246.836 277.948C247.957 277.112 249.307 276.637 250.706 276.585C252.104 276.533 253.486 276.908 254.666 277.659Z" fill="#FFB6B6"/>
<path d="M234.049 266.977C241.634 266.977 247.782 260.517 247.782 252.548C247.782 244.579 241.634 238.119 234.049 238.119C226.465 238.119 220.317 244.579 220.317 252.548C220.317 260.517 226.465 266.977 234.049 266.977Z" fill="#FF7A11"/>
<path d="M242.845 225.132H225.253L214.633 174.082C214.36 171.416 214.658 168.724 215.509 166.179C216.36 163.633 217.744 161.291 219.572 159.304C221.401 157.316 223.633 155.727 226.124 154.639C228.616 153.551 231.311 152.988 234.038 152.986C236.764 152.985 239.461 153.545 241.954 154.63C244.447 155.715 246.68 157.301 248.511 159.287C250.342 161.272 251.729 163.613 252.583 166.157C253.436 168.701 253.738 171.393 253.469 174.059L242.845 225.132Z" fill="#FF7A11"/>
<path d="M303.281 271.334L295.152 278.332L283.779 288.115L278.756 262.468L278.23 259.801L277.817 257.684L289.341 237.652L298.947 238.203L299.604 238.242L299.617 238.386L299.768 239.73L301.738 257.409L301.784 257.835L303.281 271.334Z" fill="#FF7A11"/>
<path d="M250.148 446.734L242.098 446.734L238.268 415.747L250.149 415.748L250.148 446.734Z" fill="#FFB6B6"/>
<path d="M252.201 454.522L226.244 454.521V454.193C226.245 451.519 227.309 448.955 229.204 447.064C231.098 445.173 233.668 444.111 236.348 444.111H236.348L252.202 444.111L252.201 454.522Z" fill="#FF7A11"/>
<path d="M334.196 447.39L326.146 447.389L322.316 416.402L334.198 416.403L334.196 447.39Z" fill="#FFB6B6"/>
<path d="M336.249 455.177L310.292 455.176V454.848C310.292 452.174 311.357 449.61 313.251 447.719C315.146 445.829 317.716 444.766 320.395 444.766H320.396L336.25 444.767L336.249 455.177Z" fill="#FF7A11"/>
<path d="M340.63 433.744L318.961 437.02L287.437 330.551L253.955 437.675L229.66 434.399L261.178 309.897V300.068L265.446 285.324L265 281.333L261.894 253.425L260.548 241.322L260.461 240.54C260.387 239.884 260.561 239.224 260.949 238.689C261.337 238.154 261.91 237.782 262.557 237.646L272.669 235.523H289.196L298.947 238.203L299.617 238.387L299.919 238.472L299.768 239.73L297.483 258.851L297.358 259.899L295.152 278.332L294.666 282.375C313.708 296.136 314.365 309.897 314.365 309.897L340.63 433.744Z" fill="#2F2E41"/>
<path d="M278.935 227.232C287.842 227.232 295.063 220.027 295.063 211.138C295.063 202.25 287.842 195.044 278.935 195.044C270.028 195.044 262.808 202.25 262.808 211.138C262.808 220.027 270.028 227.232 278.935 227.232Z" fill="#FFB6B6"/>
<path d="M295.875 278.677L263.972 282.84L264.568 287.389L296.471 283.225L295.875 278.677Z" fill="#3F3D56"/>
<path d="M221.178 284.212C221.483 284.408 221.772 284.629 222.042 284.871L253.597 276.844L255.75 269.247L267.663 270.991L265.162 284.809C264.96 285.925 264.401 286.946 263.568 287.718C262.735 288.49 261.673 288.972 260.543 289.091L223.699 292.963C223.098 294.224 222.127 295.274 220.914 295.971C219.702 296.669 218.305 296.981 216.91 296.867C215.515 296.753 214.188 296.218 213.105 295.333C212.022 294.448 211.235 293.254 210.848 291.912C210.461 290.57 210.493 289.141 210.94 287.818C211.386 286.494 212.226 285.337 213.348 284.501C214.469 283.665 215.819 283.19 217.217 283.138C218.616 283.086 219.998 283.461 221.178 284.212Z" fill="#FFB6B6"/>
<path d="M269.714 241.748L264.133 237.489C262.624 236.917 260.556 238.54 260.193 240.11L252.314 272.218L268.729 284.013L271.028 280.409L269.714 241.748Z" fill="#FF7A11"/>
<g opacity="0.2">
<path d="M301.738 257.409C300.345 257.961 298.925 258.442 297.483 258.851C297.024 258.988 296.551 259.119 296.085 259.244C293.012 260.095 289.854 260.605 286.669 260.764C285.298 260.822 283.924 260.785 282.558 260.653C281.092 260.507 279.643 260.222 278.231 259.801C278.185 259.788 278.133 259.775 278.087 259.762C275.151 258.93 272.459 257.403 270.24 255.312C269.744 254.83 269.281 254.316 268.854 253.772C267.628 252.274 266.729 250.536 266.213 248.671C265.698 246.806 265.577 244.855 265.86 242.941C265.915 242.594 265.99 242.25 266.084 241.912C266.331 240.99 266.658 240.091 267.062 239.225C267.239 238.819 267.436 238.419 267.646 238.026L275.066 235.523H289.197L298.948 238.203L299.604 238.242L299.618 238.387L299.92 238.472L299.769 239.73L301.738 257.409Z" fill="black"/>
</g>
<path d="M266.577 197.814C263.561 197.445 260.251 197.706 257.901 199.628C255.55 201.549 254.791 205.543 257.017 207.608C258.987 209.435 262.068 209.006 264.708 209.525C266.981 210.034 269.018 211.289 270.492 213.09C271.967 214.89 272.793 217.132 272.839 219.457C272.8 226.124 266.388 231.173 265.237 237.74C264.451 242.222 266.345 246.939 269.62 250.105C272.894 253.271 277.396 254.982 281.932 255.445C286.468 255.909 291.054 255.201 295.462 254.038C299.889 252.87 304.247 251.213 307.961 248.541C311.675 245.87 314.72 242.103 315.912 237.691C317.105 233.28 316.248 228.222 313.175 224.835C309.657 220.956 303.802 219.623 300.759 215.363C297.347 210.587 298.609 203.786 295.848 198.609C294.004 195.152 290.513 192.795 286.791 191.553C283.07 190.311 279.096 190.065 275.174 189.945C273.113 189.882 270.988 189.861 269.067 190.611C267.147 191.361 265.458 193.07 265.359 195.126C265.259 197.182 266.577 197.814 266.577 197.814Z" fill="#2F2E41"/>
</g>
<defs>
<clipPath id="clip0_1541_5257">
<rect width="292" height="316" fill="white" transform="translate(96 140)"/>
</clipPath>
</defs>
</svg>
