<svg width="284" height="181" viewBox="0 0 284 181" fill="none" xmlns="http://www.w3.org/2000/svg">
<path d="M52.0747 90.5C52.0747 40.5182 92.5929 0 142.575 0C192.556 0 233.075 40.5182 233.075 90.5V181L52.0747 181L52.0747 90.5Z" fill="#FFC43E"/>
<path d="M125.279 35.3955C124.947 35.4173 124.614 35.4478 124.286 35.4958C121.056 35.9433 118.09 37.5198 115.915 39.9447C113.741 42.3697 112.5 45.4857 112.413 48.738C112.326 51.9904 113.398 55.1681 115.44 57.7054C117.481 60.2428 120.359 61.9751 123.561 62.594C123.888 62.655 124.216 62.7074 124.549 62.7466C121.242 53.8778 121.503 44.0762 125.279 35.3955Z" fill="#464F53"/>
<path d="M138.093 167.324C144.119 171.136 151.09 173.275 158.262 173.511C158.133 173.809 157.99 174.099 157.831 174.381C156.996 175.889 155.816 177.188 154.384 178.176C152.688 179.344 150.696 180.034 148.627 180.171C146.557 180.307 144.49 179.885 142.649 178.949C140.808 178.014 139.265 176.603 138.188 174.868C137.111 173.133 136.541 171.143 136.542 169.113V167.324H138.093Z" fill="#464F53"/>
<circle cx="158.663" cy="50.2778" r="37.4067" fill="#F6F8F9"/>
<circle cx="158.663" cy="130.722" r="43.0378" fill="#F6F8F9"/>
<path d="M246.75 83.6622C256.08 83.6622 263.644 76.2788 263.644 67.171C263.644 58.0633 256.08 50.6799 246.75 50.6799C237.42 50.6799 229.857 58.0633 229.857 67.171C229.857 76.2788 237.42 83.6622 246.75 83.6622Z" fill="#F0F3F5"/>
<path d="M247.152 71.5955C249.596 71.5955 251.577 69.6146 251.577 67.171C251.577 64.7275 249.596 62.7466 247.152 62.7466C244.709 62.7466 242.728 64.7275 242.728 67.171C242.728 69.6146 244.709 71.5955 247.152 71.5955Z" fill="#E0E7EB"/>
<path d="M247.479 67.0158C248.374 67.7457 248.646 68.8961 248.48 70.007C248.275 71.2254 247.643 72.331 246.696 73.1254C245.632 74.0711 244.334 74.7101 243.081 75.3645C241.93 75.9517 240.824 76.623 239.772 77.3728C235.743 80.3 232.699 84.4679 230.957 89.1191C229.218 93.7623 228.752 99.0326 230.073 103.845C230.727 106.226 232.05 108.795 234.514 109.691C236.478 110.405 239.159 109.945 240.159 107.921C241.234 105.747 239.735 103.304 237.804 102.225C235.302 100.826 232.312 101.848 230.061 103.264C227.583 104.823 225.591 107.06 223.004 108.457C221.839 109.106 220.543 109.484 219.212 109.563C217.99 109.611 216.77 109.422 215.62 109.008C213.232 108.138 211.177 106.544 209.742 104.447C208.099 102.059 207.363 99.1317 207.229 96.2641C206.929 89.848 209.464 83.8455 211.499 77.8954C212.592 74.7969 213.411 71.6084 213.946 68.3667C214.455 65.1086 214.636 61.8076 214.487 58.5134C214.352 55.6004 214.065 52.5544 212.779 49.894C211.648 47.5546 209.581 45.64 206.968 45.1573C205.791 44.9262 204.57 45.0664 203.475 45.5584C203.103 45.7284 203.426 46.2778 203.797 46.1086C206.109 45.0541 208.842 46.0802 210.55 47.7828C212.545 49.7711 213.277 52.7073 213.602 55.4166C214.333 61.8373 213.757 68.3395 211.909 74.532C210.136 80.5543 207.346 86.3253 206.702 92.6349C206.409 95.514 206.56 98.4904 207.48 101.251C208.27 103.71 209.751 105.891 211.746 107.531C213.625 109.05 215.936 110.084 218.369 110.199C221.101 110.329 223.496 109.112 225.615 107.492C227.884 105.758 229.972 103.618 232.722 102.646C233.975 102.202 235.402 101.996 236.689 102.422C237.793 102.799 238.73 103.552 239.335 104.549C239.894 105.478 240.1 106.64 239.59 107.638C239.11 108.576 238.174 109.119 237.161 109.305C236.088 109.494 234.983 109.306 234.033 108.773C232.923 108.139 232.111 107.076 231.542 105.952C230.407 103.711 230.026 101.044 229.968 98.5567C229.917 96.1272 230.228 93.7037 230.892 91.3659C232.211 86.6368 234.875 82.392 238.56 79.1462C239.488 78.3377 240.481 77.6068 241.529 76.9607C242.672 76.2563 243.892 75.6935 245.058 75.0289C246.204 74.375 247.334 73.5936 248.124 72.5175C248.797 71.5952 249.161 70.4835 249.162 69.3418C249.174 68.8167 249.07 68.2955 248.857 67.8154C248.644 67.3354 248.327 66.9085 247.929 66.5652C247.614 66.3081 247.16 66.7563 247.479 67.0158Z" fill="#74848B"/>
<path d="M179.177 168.129V169.365C179.178 171.772 178.371 174.11 176.884 176.011C175.397 177.911 173.314 179.266 170.965 179.86C168.616 180.455 166.134 180.255 163.912 179.293C161.69 178.331 159.854 176.662 158.694 174.548C158.534 174.266 158.39 173.975 158.261 173.676C158.58 173.685 158.895 173.689 159.214 173.689C166.257 173.698 173.166 171.773 179.177 168.129Z" fill="#464F53"/>
<path d="M193.845 35.4958C193.517 35.4479 193.185 35.4173 192.853 35.3955C196.628 44.0762 196.89 53.8778 193.583 62.7466C193.915 62.7074 194.243 62.655 194.571 62.594C197.773 61.9751 200.65 60.2428 202.692 57.7054C204.733 55.1681 205.806 51.9904 205.719 48.7381C205.632 45.4857 204.39 42.3697 202.216 39.9447C200.042 37.5198 197.075 35.9433 193.845 35.4958Z" fill="#464F53"/>
<path d="M178.748 41.8311H140.187C138.154 41.8311 136.203 42.6362 134.765 44.0694C133.327 45.5026 132.519 47.4464 132.519 49.4733C132.519 51.5001 133.327 53.4439 134.765 54.8771C136.203 56.3103 138.154 57.1155 140.187 57.1155H178.748C180.782 57.1155 182.733 56.3103 184.171 54.8771C185.609 53.4439 186.417 51.5001 186.417 49.4733C186.417 47.4464 185.609 45.5026 184.171 44.0694C182.733 42.6362 180.782 41.8311 178.748 41.8311Z" fill="#464F53"/>
<path d="M162.98 47.4622H154.347C153.892 47.4622 153.455 47.674 153.133 48.0512C152.811 48.4284 152.63 48.9399 152.63 49.4733C152.63 50.0066 152.811 50.5182 153.133 50.8953C153.455 51.2725 153.892 51.4844 154.347 51.4844H162.98C163.436 51.4844 163.872 51.2725 164.194 50.8953C164.516 50.5182 164.697 50.0066 164.697 49.4733C164.697 48.9399 164.516 48.4284 164.194 48.0512C163.872 47.674 163.436 47.4622 162.98 47.4622Z" fill="white"/>
<path d="M186.81 125.493H169.935C168.759 125.493 167.631 124.985 166.8 124.08C165.969 123.175 165.501 121.947 165.501 120.667C165.501 119.387 165.969 118.159 166.8 117.254C167.631 116.349 168.759 115.84 169.935 115.84H186.81C187.986 115.84 189.114 116.349 189.945 117.254C190.777 118.159 191.244 119.387 191.244 120.667C191.244 121.947 190.777 123.175 189.945 124.08C189.114 124.985 187.986 125.493 186.81 125.493Z" fill="#464F53"/>
<path d="M171.133 123.08C172.465 123.08 173.546 122 173.546 120.667C173.546 119.334 172.465 118.253 171.133 118.253C169.8 118.253 168.719 119.334 168.719 120.667C168.719 122 169.8 123.08 171.133 123.08Z" fill="#F2F2F2"/>
<path d="M178.372 123.08C179.705 123.08 180.786 122 180.786 120.667C180.786 119.334 179.705 118.253 178.372 118.253C177.039 118.253 175.959 119.334 175.959 120.667C175.959 122 177.039 123.08 178.372 123.08Z" fill="#F2F2F2"/>
<path d="M185.613 123.08C186.945 123.08 188.026 122 188.026 120.667C188.026 119.334 186.945 118.253 185.613 118.253C184.28 118.253 183.199 119.334 183.199 120.667C183.199 122 184.28 123.08 185.613 123.08Z" fill="#6B9539"/>
<path d="M77.2573 178.89C81.2022 175.554 83.5984 170.283 82.97 165.152C82.3416 160.021 78.4495 155.304 73.4009 154.215C68.3522 153.125 62.5971 156.141 61.0636 161.078C60.2197 151.561 59.2472 141.645 54.192 133.54C49.6147 126.202 41.6866 120.951 33.0943 120.011C24.502 119.072 15.4555 122.62 10.0968 129.408C4.73814 136.196 3.42609 146.064 7.17917 153.857C9.94393 159.598 15.0376 163.871 20.3745 167.347C37.401 178.436 58.5224 182.183 78.6197 179.222L77.2573 178.89Z" fill="#6B9539"/>
<path d="M18.5219 123.276C25.5887 129.063 32.0718 135.535 37.8773 142.599C43.6838 149.655 48.7957 157.261 53.1414 165.31C55.5704 169.825 57.7524 174.47 59.6778 179.224C60.0703 180.191 58.5083 180.612 58.1201 179.656C54.7099 171.274 50.4908 163.249 45.5233 155.695C40.5799 148.168 34.922 141.141 28.6289 134.713C25.0695 131.078 21.3141 127.644 17.3796 124.424C16.5731 123.764 17.722 122.621 18.5219 123.276Z" fill="white"/>
<path d="M211.536 178.89C207.591 175.554 205.195 170.283 205.823 165.152C206.451 160.021 210.343 155.304 215.392 154.215C220.441 153.125 226.196 156.141 227.729 161.078C228.573 151.561 229.546 141.645 234.601 133.54C239.178 126.202 247.106 120.951 255.699 120.011C264.291 119.072 273.337 122.62 278.696 129.408C284.055 136.196 285.367 146.064 281.614 153.857C278.849 159.598 273.755 163.871 268.418 167.347C251.392 178.436 230.271 182.183 210.173 179.222L211.536 178.89Z" fill="#6B9539"/>
<path d="M270.271 123.276C263.204 129.063 256.721 135.535 250.916 142.599C245.109 149.655 239.997 157.261 235.652 165.31C233.223 169.825 231.041 174.47 229.115 179.224C228.723 180.191 230.285 180.612 230.673 179.656C234.083 171.274 238.302 163.249 243.27 155.695C248.213 148.168 253.871 141.141 260.164 134.713C263.723 131.078 267.479 127.644 271.413 124.424C272.22 123.764 271.071 122.621 270.271 123.276Z" fill="white"/>
<path d="M59.7996 40.2222C67.3524 40.2222 73.4751 34.0994 73.4751 26.5466C73.4751 18.9938 67.3524 12.8711 59.7996 12.8711C52.2468 12.8711 46.124 18.9938 46.124 26.5466C46.124 34.0994 52.2468 40.2222 59.7996 40.2222Z" fill="#464F53"/>
<path d="M111.26 76.7206C110.995 77.1073 110.672 77.4535 110.301 77.7476C109.767 78.1744 109.146 78.4871 108.479 78.665C107.811 78.8429 107.112 78.8821 106.428 78.78C105.744 78.678 105.09 78.4369 104.509 78.0727C103.928 77.7084 103.432 77.2293 103.055 76.6665C102.968 76.5354 102.888 76.3999 102.815 76.2606L81.0025 74.2205C79.281 74.0531 77.661 73.3521 76.3831 72.2214C75.1051 71.0908 74.2373 69.5908 73.9085 67.9442L72.6704 61.617L81.1832 60.3333L82.7108 65.4014L103.978 70.4654C104.143 70.3253 104.317 70.1966 104.501 70.0802C105.449 69.4833 106.581 69.2221 107.706 69.3405C108.83 69.4589 109.878 69.9496 110.672 70.73C111.467 71.5103 111.959 72.5324 112.066 73.6238C112.173 74.7152 111.889 75.809 111.26 76.7206Z" fill="#FFA089"/>
<path d="M83.2593 64.2177L73.799 66.7021C73.2872 66.8359 72.7417 66.7669 72.2822 66.5102C71.8227 66.2535 71.4867 65.83 71.3479 65.3328L68.0344 53.4086C67.6794 52.1313 67.8235 50.7715 68.4388 49.5914C69.0541 48.4112 70.097 47.4944 71.3666 47.0175C72.6361 46.5407 74.0422 46.5377 75.3139 47.0091C76.5856 47.4805 77.6327 48.3929 78.2533 49.5704L84.5171 61.4555C84.6529 61.7131 84.7278 61.9971 84.7363 62.2865C84.7447 62.5759 84.6866 62.8635 84.566 63.1283C84.4455 63.393 84.2656 63.6283 84.0395 63.8168C83.8134 64.0052 83.5468 64.1422 83.2593 64.2177Z" fill="#464F53"/>
<path d="M78.303 176.173H83.2079L85.5418 155.258L78.3018 155.258L78.303 176.173Z" fill="#FFB8B8"/>
<path d="M93.728 180.892L76.7742 180.893L76.7739 174.343L87.1774 174.342C88.9147 174.342 90.5808 175.032 91.8093 176.26C93.0378 177.489 93.7279 179.155 93.728 180.892Z" fill="#464F53"/>
<path d="M30.0352 170.286L34.9735 172.151L44.5152 153.988L37.2269 151.236L30.0352 170.286Z" fill="#FFB8B8"/>
<path d="M42.8608 180.893L27 174.904L29.3138 168.776L39.0466 172.451C40.6718 173.065 41.9868 174.299 42.7021 175.882C43.4174 177.465 43.4745 179.268 42.8608 180.893Z" fill="#464F53"/>
<path d="M77.7016 171.347C77.2865 171.346 76.8823 171.213 76.5468 170.967C76.2113 170.72 75.9618 170.373 75.8342 169.974L62.1781 127.419C62.1376 127.293 62.0605 127.182 61.9567 127.1C61.853 127.019 61.7274 126.971 61.5962 126.963C61.4651 126.954 61.3345 126.986 61.2214 127.053C61.1082 127.121 61.0178 127.221 60.9618 127.341L42.0361 167.973C41.8311 168.413 41.4737 168.761 41.0314 168.952C40.5891 169.143 40.0927 169.165 39.6361 169.011L32.1823 166.504C31.7089 166.344 31.3135 166.008 31.0761 165.565C30.8387 165.122 30.7771 164.604 30.9037 164.116L42.4966 119.806C43.7097 115.112 44.5859 110.336 45.1185 105.516C45.9315 97.5771 49.6199 90.2208 55.4765 84.8572C58.0337 82.4931 59.696 79.3049 60.1784 75.8393L60.2096 75.6177L77.1872 78.3225L87.9412 166.871C87.9968 167.344 87.882 167.823 87.6178 168.218C87.3536 168.614 86.9574 168.901 86.5013 169.026L78.2148 171.278C78.0475 171.323 77.8749 171.347 77.7016 171.347Z" fill="#464F53"/>
<path d="M65.8327 40.2222C71.8305 40.2222 76.6927 35.36 76.6927 29.3622C76.6927 23.3644 71.8305 18.5022 65.8327 18.5022C59.8348 18.5022 54.9727 23.3644 54.9727 29.3622C54.9727 35.36 59.8348 40.2222 65.8327 40.2222Z" fill="#FFA089"/>
<path d="M76.2419 80.4444C76.2081 80.4444 76.1743 80.4435 76.1402 80.4418L59.2073 79.581C58.7347 79.5593 58.2856 79.3651 57.9424 79.034C57.5993 78.7029 57.385 78.257 57.339 77.7783L55.0258 54.8477C54.8564 53.1685 55.0935 51.4726 55.7165 49.9079C56.3394 48.3431 57.3293 46.957 58.5998 45.8703C59.8703 44.7836 61.3829 44.0293 63.0058 43.6731C64.6287 43.3168 66.3127 43.3695 67.911 43.8265C69.2352 44.1953 70.4692 44.8406 71.5343 45.7215C83.4458 55.667 79.605 73.6869 78.1441 78.9728C78.0296 79.3962 77.7814 79.7696 77.4377 80.0355C77.094 80.3014 76.6738 80.4451 76.2419 80.4444Z" fill="#FF7A11"/>
<path d="M61.3996 94.9244C60.9289 94.9245 60.4609 94.854 60.011 94.7152C59.3602 94.5171 58.7584 94.1831 58.2451 93.7352C57.7318 93.2872 57.3185 92.7353 57.0324 92.1156C56.7462 91.496 56.5936 90.8227 56.5846 90.1397C56.5756 89.4567 56.7103 88.7795 56.9801 88.1524C57.0432 88.0068 57.1139 87.8646 57.192 87.7264L47.0431 68.6548C46.2475 67.146 45.9574 65.4197 46.216 63.7322C46.4745 62.0447 47.2679 60.4859 48.4783 59.2872L53.1431 54.7021L58.8589 60.9723L55.414 65.0853L62.7145 85.4139C62.9223 85.4702 63.126 85.5411 63.324 85.6261C64.3438 86.069 65.1803 86.8517 65.6922 87.8422C66.2042 88.8327 66.3602 89.9703 66.1341 91.0629C65.908 92.1556 65.3135 93.1365 64.4509 93.8399C63.5884 94.5434 62.5106 94.9264 61.3996 94.9244Z" fill="#FFA089"/>
<path d="M56.5771 65.4751L49.2166 59.1033C48.8189 58.7583 48.5761 58.2716 48.5414 57.75C48.5067 57.2284 48.6831 56.7146 49.0317 56.3212L57.4 46.8996C58.2964 45.8904 59.5395 45.2445 60.8896 45.0866C62.2398 44.9286 63.6013 45.2698 64.7118 46.0442C65.8222 46.8187 66.6029 47.9716 66.9033 49.2806C67.2037 50.5897 67.0026 51.9622 66.3386 53.1335L59.6364 64.9556C59.4911 65.212 59.2896 65.433 59.0467 65.6026C58.8038 65.7722 58.5255 65.8861 58.2323 65.9359C57.939 65.9856 57.6382 65.9701 57.3519 65.8904C57.0655 65.8107 56.8008 65.6688 56.5771 65.4751Z" fill="#464F53"/>
<path d="M58.6798 39.8509C59.6648 40.1977 60.8724 40.5035 61.6475 39.7842C62.4043 39.0821 62.2664 37.798 61.8206 36.852C61.3748 35.906 60.6835 35.0642 60.4715 34.0346C60.1677 32.5589 60.9532 31.0258 62.0745 30.0638C63.1957 29.1017 64.6072 28.5963 65.985 28.11L73.5425 25.4426C75.4133 24.7823 77.4291 24.0067 78.476 22.2692C79.9907 19.755 78.606 16.1611 76.1213 14.6941C73.6367 13.227 70.4982 13.5003 67.8176 14.5319C66.3349 15.1024 64.9245 15.8886 63.3912 16.2903C60.3651 17.0829 56.9244 16.3718 54.2652 18.0659C51.9503 19.5406 50.8767 22.5496 50.9546 25.3651C51.0326 28.1805 52.0767 30.8618 53.1779 33.4367C53.8331 34.9686 54.533 36.5181 55.6427 37.7365C56.7525 38.9549 58.3561 39.8072 59.958 39.583L58.6798 39.8509Z" fill="#464F53"/>
<path d="M48.5374 28.96C53.4245 28.96 57.3863 24.9982 57.3863 20.1111C57.3863 15.224 53.4245 11.2622 48.5374 11.2622C43.6503 11.2622 39.6885 15.224 39.6885 20.1111C39.6885 24.9982 43.6503 28.96 48.5374 28.96Z" fill="#464F53"/>
<path d="M119.688 71.1458L119.535 71.1243L120.11 66.8391C120.198 66.1813 120.028 65.5146 119.636 64.9855C119.245 64.4564 118.665 64.1084 118.023 64.018L109.166 62.7699C108.525 62.6795 107.874 62.8541 107.358 63.2553C106.842 63.6565 106.503 64.2514 106.414 64.9092L103.262 88.4185C103.174 89.0763 103.344 89.743 103.735 90.2721C104.127 90.8012 104.707 91.1492 105.349 91.2397L114.205 92.4877C114.847 92.5781 115.497 92.4035 116.014 92.0023C116.53 91.6011 116.869 91.0062 116.957 90.3484L119.126 74.1746L119.279 74.1961L119.688 71.1458Z" fill="#464F53"/>
<path d="M117.794 64.7726L116.668 64.6161C116.702 64.7517 116.703 64.8937 116.67 65.0297C116.638 65.1657 116.572 65.2914 116.48 65.3959C116.388 65.5003 116.272 65.5802 116.142 65.6286C116.012 65.677 115.873 65.6923 115.735 65.6732L110.794 64.9863C110.657 64.9672 110.527 64.9144 110.415 64.8323C110.303 64.7503 110.212 64.6417 110.151 64.516C110.091 64.3903 110.061 64.2514 110.066 64.1115C110.071 63.9717 110.109 63.8351 110.179 63.7139L109.127 63.5678C108.896 63.5356 108.661 63.5498 108.435 63.6096C108.21 63.6693 107.998 63.7735 107.812 63.916C107.626 64.0585 107.47 64.2367 107.352 64.4403C107.234 64.6439 107.157 64.869 107.126 65.1027L104.06 87.6564C103.996 88.1284 104.12 88.6068 104.404 88.9864C104.689 89.366 105.111 89.6157 105.578 89.6806L114.244 90.8854C114.711 90.9503 115.184 90.825 115.559 90.5372C115.935 90.2493 116.182 89.8225 116.246 89.3505L119.311 66.7967C119.375 66.3247 119.252 65.8463 118.967 65.4667C118.682 65.0872 118.26 64.8375 117.794 64.7726Z" fill="white"/>
<path d="M274.857 181H0.633513C0.530531 181 0.43187 180.947 0.359156 180.853C0.286441 180.759 0.245605 180.632 0.245605 180.5C0.245605 180.368 0.286441 180.241 0.359156 180.147C0.43187 180.053 0.530531 180 0.633513 180H274.857C274.96 180 275.059 180.053 275.132 180.146C275.205 180.24 275.246 180.367 275.246 180.5C275.246 180.633 275.205 180.76 275.132 180.854C275.059 180.947 274.96 181 274.857 181Z" fill="#E0E7EB"/>
<path d="M64.9458 125.493H101.146C100.748 123.671 99.3477 122.225 97.5521 121.778C97.654 121.376 97.7086 120.954 97.7086 120.517C97.7086 117.681 95.4213 115.381 92.6024 115.381C91.8003 115.381 91.0403 115.568 90.3648 115.9C89.2795 113.493 86.8704 111.818 84.069 111.818C81.0937 111.818 78.5556 113.711 77.582 116.362C76.7351 115.803 75.7219 115.476 74.6341 115.476C71.6638 115.476 69.2547 117.898 69.2547 120.884C69.2547 121.144 69.2746 121.399 69.3094 121.648C67.1561 121.83 65.4028 123.416 64.9483 125.491L64.9458 125.493Z" fill="white"/>
<path d="M96 158.114H112.273C112.094 157.3 111.464 156.653 110.657 156.453C110.703 156.274 110.727 156.085 110.727 155.89C110.727 154.621 109.699 153.593 108.432 153.593C108.072 153.593 107.73 153.677 107.426 153.825C106.938 152.749 105.856 152 104.596 152C103.259 152 102.118 152.846 101.68 154.032C101.3 153.782 100.844 153.636 100.355 153.636C99.0198 153.636 97.9369 154.718 97.9369 156.054C97.9369 156.17 97.9459 156.284 97.9615 156.395C96.9936 156.477 96.2054 157.186 96.0011 158.113L96 158.114Z" fill="white"/>
<path d="M89.0813 35.7159H104.922C104.748 34.9221 104.135 34.2936 103.349 34.0982C103.393 33.923 103.417 33.7388 103.417 33.5501C103.417 32.3154 102.417 31.3151 101.182 31.3151C100.83 31.3151 100.499 31.3966 100.203 31.5406C99.7273 30.4934 98.6734 29.7644 97.4476 29.7644C96.1448 29.7644 95.0351 30.5872 94.6086 31.7427C94.238 31.4993 93.7947 31.3575 93.318 31.3575C92.0174 31.3575 90.9636 32.4114 90.9636 33.712C90.9636 33.8247 90.9725 33.9364 90.987 34.0447C90.0448 34.1239 89.2778 34.8139 89.0791 35.717L89.0813 35.7159Z" fill="white"/>
</svg>
