<svg width="20" height="20" viewBox="0 0 20 20" fill="none" xmlns="http://www.w3.org/2000/svg">
<mask id="mask0_2496_501" style="mask-type:alpha" maskUnits="userSpaceOnUse" x="0" y="0" width="20" height="20">
<rect width="20" height="20" fill="#D9D9D9"/>
</mask>
<g mask="url(#mask0_2496_501)">
<path d="M14.1667 16.6667C14.2778 16.6667 14.375 16.625 14.4583 16.5417C14.5417 16.4583 14.5833 16.3611 14.5833 16.25V13.75C14.5833 13.6389 14.5417 13.5417 14.4583 13.4583C14.375 13.375 14.2778 13.3333 14.1667 13.3333C14.0556 13.3333 13.9583 13.375 13.875 13.4583C13.7917 13.5417 13.75 13.6389 13.75 13.75V16.25C13.75 16.3611 13.7917 16.4583 13.875 16.5417C13.9583 16.625 14.0556 16.6667 14.1667 16.6667ZM14.1667 12.5C14.2778 12.5 14.375 12.4583 14.4583 12.375C14.5417 12.2917 14.5833 12.1944 14.5833 12.0833C14.5833 11.9722 14.5417 11.875 14.4583 11.7917C14.375 11.7083 14.2778 11.6667 14.1667 11.6667C14.0556 11.6667 13.9583 11.7083 13.875 11.7917C13.7917 11.875 13.75 11.9722 13.75 12.0833C13.75 12.1944 13.7917 12.2917 13.875 12.375C13.9583 12.4583 14.0556 12.5 14.1667 12.5ZM6.66667 11.6667H8.75C8.98611 11.6667 9.18403 11.5868 9.34375 11.4271C9.50347 11.2674 9.58333 11.0694 9.58333 10.8333C9.58333 10.5972 9.50347 10.3993 9.34375 10.2396C9.18403 10.0799 8.98611 9.99999 8.75 9.99999H6.66667C6.43056 9.99999 6.23264 10.0799 6.07292 10.2396C5.91319 10.3993 5.83333 10.5972 5.83333 10.8333C5.83333 11.0694 5.91319 11.2674 6.07292 11.4271C6.23264 11.5868 6.43056 11.6667 6.66667 11.6667ZM6.66667 15H7.5C7.73611 15 7.93403 14.9201 8.09375 14.7604C8.25347 14.6007 8.33333 14.4028 8.33333 14.1667C8.33333 13.9305 8.25347 13.7326 8.09375 13.5729C7.93403 13.4132 7.73611 13.3333 7.5 13.3333H6.66667C6.43056 13.3333 6.23264 13.4132 6.07292 13.5729C5.91319 13.7326 5.83333 13.9305 5.83333 14.1667C5.83333 14.4028 5.91319 14.6007 6.07292 14.7604C6.23264 14.9201 6.43056 15 6.66667 15ZM4.16667 18.3333C3.70833 18.3333 3.31597 18.1701 2.98958 17.8437C2.66319 17.5174 2.5 17.125 2.5 16.6667V3.33332C2.5 2.87499 2.66319 2.48263 2.98958 2.15624C3.31597 1.82985 3.70833 1.66666 4.16667 1.66666H10.1458C10.3681 1.66666 10.5799 1.70832 10.7813 1.79166C10.9826 1.87499 11.1597 1.99305 11.3125 2.14582L15.3542 6.18749C15.5069 6.34027 15.625 6.51735 15.7083 6.71874C15.7917 6.92013 15.8333 7.13193 15.8333 7.35416V7.62499C15.8333 7.8611 15.7535 8.05902 15.5938 8.21874C15.434 8.37846 15.2361 8.45832 15 8.45832C14.7639 8.45832 14.566 8.37846 14.4063 8.21874C14.2465 8.05902 14.1667 7.8611 14.1667 7.62499V7.49999H10.8333C10.5972 7.49999 10.3993 7.42013 10.2396 7.26041C10.0799 7.10068 10 6.90277 10 6.66666V3.33332H4.16667V16.6667H8.77083C9.00694 16.6667 9.20486 16.7465 9.36458 16.9062C9.52431 17.066 9.60417 17.2639 9.60417 17.5C9.60417 17.7361 9.52431 17.934 9.36458 18.0937C9.20486 18.2535 9.00694 18.3333 8.77083 18.3333H4.16667ZM14.1667 9.99999C15.3194 9.99999 16.3021 10.4062 17.1146 11.2187C17.9271 12.0312 18.3333 13.0139 18.3333 14.1667C18.3333 15.3194 17.9271 16.3021 17.1146 17.1146C16.3021 17.9271 15.3194 18.3333 14.1667 18.3333C13.0139 18.3333 12.0313 17.9271 11.2188 17.1146C10.4063 16.3021 10 15.3194 10 14.1667C10 13.0139 10.4063 12.0312 11.2188 11.2187C12.0313 10.4062 13.0139 9.99999 14.1667 9.99999Z" fill="#01988C"/>
</g>
</svg>
