<svg width="268" height="104" viewBox="0 0 268 104" fill="none" xmlns="http://www.w3.org/2000/svg">
<rect width="268" height="104" rx="10" fill="#E7F4D7"/>
<mask id="mask0_2691_2387" style="mask-type:alpha" maskUnits="userSpaceOnUse" x="0" y="0" width="268" height="104">
<rect width="268" height="104" rx="10" fill="#E7F4D7"/>
</mask>
<g mask="url(#mask0_2691_2387)">
<path d="M234.695 82.5302C245.52 82.8828 256.384 82.3363 267.189 82.9825C272.504 83.3001 277.979 83.8485 282.739 85.1539C284.496 85.6358 287.545 86.3854 287.946 87.4766C288.376 88.6472 286.097 89.0626 285.908 90.1151C285.781 90.8278 287.45 91.8396 287.623 92.6538C287.985 94.3672 286.309 95.92 284.382 97.2513C280.773 99.7476 283.026 101.858 281.295 104.938C280.649 106.084 280.489 107.358 279.589 108.422C274.571 114.362 210.104 113.893 193.498 113.957C155.826 114.103 118.154 113.859 80.4914 113.479C69.2817 113.366 58.0687 113.176 46.8525 113.041C40.2891 112.962 33.7289 112.903 27.1687 112.888C17.3219 112.866 5.99152 114.081 -3.3173 111.302C-19.5808 106.446 1.34526 101.71 -2.73693 96.3225C-2.73693 96.3225 -2.73693 96.3189 -2.74019 96.317C-4.54652 93.9407 -11.9936 93.6564 -15.3063 93.0619C-16.8355 92.7886 -18.4494 92.4803 -19.5189 91.6882C-25.1987 87.484 -13.0337 83.0158 -8.42982 82.4249C0.918129 81.2266 11.0975 81.8082 20.5661 81.7178C92.0109 81.0328 163.645 80.2185 234.695 82.5283V82.5302Z" fill="#EEF7E3"/>
<path d="M88.2873 41.9396C88.4458 18.777 107.351 0.128455 130.514 0.286912C153.676 0.445369 172.325 19.3508 172.166 42.5134L171.88 84.453L88.0004 83.8792L88.2873 41.9396Z" fill="#6B9539"/>
<g clip-path="url(#clip0_2691_2387)">
<path d="M139.587 9.0675L86.3086 24.0001L106.556 93.6918L159.558 76.9444L139.587 9.0675Z" fill="#B8D0FC"/>
<path d="M139.503 8.99217L88.1719 24.1483L108.233 92.0914L159.564 76.9353L139.503 8.99217Z" fill="white"/>
<path d="M113.287 45.4369L100.02 49.3531C100.01 49.3564 99.9997 49.3505 99.9965 49.3401L99.7429 48.4808C99.7403 48.471 99.7454 48.4606 99.7552 48.4574L113.022 44.5412C113.032 44.5379 113.042 44.5438 113.046 44.5542L113.299 45.4135C113.302 45.4233 113.297 45.4337 113.286 45.4369H113.287Z" fill="#B8D0FC"/>
<path d="M133.914 39.3479L115.343 44.8299C115.331 44.8331 115.319 44.8266 115.315 44.8149L115.063 43.962C115.06 43.9504 115.067 43.938 115.078 43.9348L133.65 38.4529C133.661 38.4496 133.674 38.4561 133.677 38.4678L133.929 39.3207C133.932 39.3324 133.926 39.3447 133.914 39.3479Z" fill="#B8D0FC"/>
<path d="M141.694 31.2488L98.4648 44.0093C98.4441 44.0158 98.4214 44.0035 98.4155 43.9827L98.1736 43.1636C98.1671 43.1428 98.1794 43.1201 98.2002 43.1143L141.43 30.3538C141.451 30.3473 141.473 30.3596 141.479 30.3804L141.721 31.1996C141.727 31.2203 141.715 31.243 141.694 31.2488Z" fill="#B8D0FC"/>
<path d="M138.11 35.062L99.2094 46.5447C99.1893 46.5506 99.1685 46.5389 99.1627 46.5194L98.9195 45.6964C98.9136 45.6763 98.9253 45.6555 98.9448 45.6497L137.845 34.1669C137.865 34.1611 137.886 34.1728 137.892 34.1922L138.135 35.0153C138.141 35.0354 138.129 35.0561 138.11 35.062Z" fill="#B8D0FC"/>
<path d="M139.781 40.7274L100.881 52.2101C100.861 52.216 100.84 52.2043 100.835 52.1848L100.591 51.3618C100.586 51.3417 100.597 51.3209 100.617 51.3151L139.517 39.8323C139.537 39.8265 139.558 39.8382 139.564 39.8576L139.807 40.6807C139.813 40.7008 139.801 40.7215 139.781 40.7274Z" fill="#B8D0FC"/>
<path d="M110.955 37.5364L97.6878 41.4526C97.678 41.4558 97.6677 41.45 97.6644 41.4396L97.4108 40.5802C97.4082 40.5705 97.4134 40.5601 97.4231 40.5569L110.69 36.6407C110.7 36.6374 110.71 36.6433 110.714 36.6536L110.967 37.513C110.97 37.5228 110.965 37.5331 110.954 37.5364H110.955Z" fill="#B8D0FC"/>
<path d="M131.582 31.448L113.011 36.93C112.999 36.9332 112.987 36.9267 112.983 36.915L112.731 36.0621C112.728 36.0505 112.735 36.0381 112.746 36.0349L131.317 30.553C131.329 30.5497 131.341 30.5562 131.345 30.5679L131.597 31.4208C131.6 31.4325 131.594 31.4448 131.582 31.4487V31.448Z" fill="#B8D0FC"/>
<path d="M160.319 47.6174C160.319 47.6174 158.001 51.9423 156.491 52.681C154.98 53.4191 150.321 54.9894 149.075 56.284C148.687 56.6868 145.891 60.029 146.016 61.2153C146.1 62.0176 148.296 62.3963 149.749 60.7236C152.276 57.8166 154.73 57.4975 156.384 57.1019C159.206 56.426 160.761 55.8416 159.7 56.6161C159.7 56.6161 156.095 58.5151 154.755 59.6768C154.393 59.9907 151.987 62.9353 152.285 63.9569C152.447 64.5095 154.17 65.4006 156.548 62.9334C158.11 61.3125 160.005 61.5052 161.777 61.3832C163.311 61.2775 168.244 62.5222 168.244 62.5222L168.54 56.0148L160.319 47.6181V47.6174Z" fill="#E96F5F"/>
<path d="M177.872 91.5527C177.198 89.8721 176.557 88.2986 175.985 86.9288C175.663 86.1661 175.365 85.4649 175.095 84.8462C174.658 83.8467 174.292 83.0593 174.026 82.556C173.343 81.2692 172.584 79.2092 171.359 77.5916H171.357C170.529 76.4948 169.487 75.603 168.109 75.2891C164.694 74.5114 158.186 69.0276 153.761 63.9036C151.347 61.1101 147.61 58.3997 146.114 57.4345C144.937 56.6757 139.957 54.1364 139.454 53.0066C139.158 52.3411 140.873 50.4615 141.938 50.1313C144.22 49.4224 147.35 50.7131 152.196 53.4554C156.812 56.068 161.923 55.6036 160.362 52.9884C156.248 46.0958 141.228 51.8942 139.413 48.5819C138.924 47.6913 142.139 45.9693 145.115 44.8109C146.338 44.3348 154.239 42.3463 157.791 42.2944C160.014 42.2619 174.449 44.9063 178.982 48.1272C181.068 49.6099 188.409 65.2657 188.57 65.7755V65.7774C189.455 68.5787 190.544 71.3106 191.831 73.9485C192.237 74.7851 192.664 75.6102 193.111 76.4267C193.312 76.7945 193.517 77.1616 193.728 77.5242C188.333 83.7046 183.03 88.2091 177.873 91.5514L177.872 91.5527Z" fill="#FFA089"/>
<path d="M194.58 75.5278L188.543 65.7314L169.918 77.9666L175.298 87.3518L194.58 75.5278Z" fill="#FFF0CD"/>
<path d="M173.591 86.0078C173.591 86.0078 176.71 94.3481 180.108 103.364C190.288 104.959 202.003 105.996 216.395 106.117C217.099 106.123 217.801 106.116 218.502 106.097L193.735 72.8887L193.177 73.2532L192.583 73.6404L191.898 74.0853L191.897 74.0866L191.316 74.4648V74.4674L191.315 74.4661L175.158 84.9882L174.581 85.3631H174.58L174.512 85.4059L174.271 85.5622L173.939 85.7782L173.936 85.7802L173.59 86.0078H173.591Z" fill="#5D696F"/>
<path d="M174.985 79.8618C175.324 80.1491 175.367 80.6569 175.08 80.9962C174.792 81.3354 174.284 81.3782 173.945 81.0908C173.606 80.8035 173.563 80.2957 173.851 79.9564C174.138 79.6172 174.646 79.5744 174.985 79.8618Z" fill="#100259"/>
<path d="M114.71 67.0851C114.292 67.7849 113.34 68.5665 112.331 69.2319C112.201 69.3169 112.069 69.4018 111.939 69.4829C110.992 70.0725 110.048 70.5382 109.494 70.7204C107.86 71.2568 97.7685 80.8703 96.1723 82.6163C94.8407 84.0705 90.7876 88.0795 89.4781 89.3715C89.2167 89.629 89.065 89.7781 89.065 89.7781L72.6211 83.9233C72.6211 83.9233 72.8235 83.4699 73.116 82.7895C73.6815 81.4735 74.5779 79.3079 74.9749 77.9367C75.58 75.858 75.1753 65.0699 75.4976 61.9981C75.818 58.927 73.9306 44.6203 76.7163 44.331C79.5008 44.0391 79.5105 59.2357 81.1242 58.785C82.7366 58.3342 84.0941 37.3378 87.6919 37.3839C91.7099 37.4338 86.3084 56.2224 87.9299 56.2892C89.5495 56.3566 93.4514 34.6118 97.8392 35.885C101.179 36.854 92.8878 57.1816 94.7817 57.6785C96.6769 58.1746 103.091 41.3591 106.648 42.6051C109.156 43.482 104.961 51.6031 102.795 58.1902C101.112 63.3044 99.9432 67.5462 99.5041 69.1859C99.4367 69.4395 99.7331 69.6386 99.9588 69.4933C108.806 63.7973 113.25 64.4913 114.672 65.8242C114.744 65.8903 114.799 65.961 114.841 66.035C115.011 66.3379 114.941 66.6991 114.711 67.0838L114.71 67.0851Z" fill="#FFA089"/>
<path d="M87.7481 40.5322L86.8952 40.3727C86.6441 40.326 86.4794 40.0905 86.528 39.8492L86.7589 38.7129C86.851 38.2595 87.3128 37.9612 87.7857 38.0494C88.2579 38.1383 88.5692 38.5812 88.4771 39.0346L88.2365 40.2164C88.1923 40.4323 87.9725 40.5744 87.7481 40.5322Z" fill="#FCB7A9"/>
<path d="M97.1621 39.0476L96.2041 38.7291C95.9226 38.6357 95.7722 38.3374 95.8694 38.0675L96.1912 37.1757C96.3747 36.6666 96.9597 36.3942 97.4903 36.5706C98.0208 36.747 98.3043 37.308 98.1207 37.8172L97.7802 38.7596C97.6927 39.0022 97.4144 39.1319 97.1621 39.0476Z" fill="#FCB7A9"/>
<path d="M105.63 45.8293L104.738 45.3675C104.475 45.2319 104.376 44.9148 104.518 44.6625L104.984 43.8316C105.251 43.3575 105.873 43.1785 106.367 43.434C106.861 43.6896 107.047 44.2869 106.781 44.7617L106.288 45.6399C106.162 45.8656 105.865 45.9506 105.63 45.8293Z" fill="#FCB7A9"/>
<path d="M114.71 67.0851C114.292 67.7849 113.34 68.5665 112.331 69.2319L111.86 68.6547C111.653 68.4017 111.699 68.0333 111.963 67.8349L113.143 66.9463C113.62 66.585 114.311 66.6518 114.709 67.0851H114.71Z" fill="#FCB7A9"/>
<path d="M77.3049 47.0506L76.522 47.0726C76.2937 47.0791 76.1018 46.9053 76.0953 46.6861L76.0667 45.7508C76.0544 45.3383 76.3956 44.9906 76.8256 44.979H76.8321C77.2621 44.9667 77.624 45.2942 77.6363 45.7074L77.6662 46.6835C77.672 46.88 77.5099 47.0454 77.3049 47.0512V47.0506Z" fill="#FCB7A9"/>
<path d="M69.1406 88.6995L73.6633 78.1183L93.8924 87.4653L89.9593 97.5425L69.1406 88.6995Z" fill="#FFF0CD"/>
<path d="M91.4466 95.9612C91.4466 95.9612 89.5949 104.671 87.568 114.09C77.7359 117.174 66.3025 119.931 52.0872 122.178C51.3912 122.288 50.6966 122.385 50 122.469L69.5844 85.965L70.1902 86.2433L70.8355 86.5384L71.5775 86.8769H71.5788L72.2092 87.1662V87.1688L72.2105 87.1675L89.7453 95.1848L90.3712 95.4708H90.3725L90.4458 95.5033L90.7072 95.622L91.0665 95.7867L91.0698 95.788L91.446 95.9618L91.4466 95.9612Z" fill="#5D696F"/>
<path d="M89.1609 90.0888C88.8677 90.4228 88.9008 90.932 89.2348 91.2252C89.5688 91.5183 90.078 91.4852 90.3712 91.1512C90.6643 90.8172 90.6312 90.308 90.2972 90.0149C89.9632 89.7217 89.454 89.7548 89.1609 90.0888Z" fill="#100259"/>
<path d="M135.492 49.5677L135.524 53.7673L188.377 55.9129L188.663 45.6729L135.492 49.5677Z" fill="#E33838"/>
<path d="M132.687 52.4696L135.239 53.7194L135.493 49.5677L132.657 51.1211C132.116 51.4169 132.134 52.1985 132.687 52.4696Z" fill="#100259"/>
<path d="M192.359 50.9727C192.499 48.1431 190.943 45.7664 188.883 45.6642C186.823 45.562 185.039 47.773 184.899 50.6026C184.758 53.4322 186.315 55.8089 188.375 55.9111C190.435 56.0133 192.218 53.8023 192.359 50.9727Z" fill="#100259"/>
<path d="M187.567 50.4894C187.499 51.8501 188.248 52.9936 189.238 53.0422C190.229 53.0915 191.087 52.0278 191.154 50.6671C191.222 49.3063 190.473 48.1628 189.483 48.1142C188.492 48.0649 187.634 49.1286 187.567 50.4894Z" fill="#E33838"/>
<path d="M134.07 51.5868C134.012 52.7485 134.659 53.724 135.514 53.7668C136.369 53.8089 137.109 52.9022 137.166 51.7405C137.224 50.5789 136.577 49.6034 135.723 49.5606C134.868 49.5185 134.128 50.4252 134.07 51.5868Z" fill="#E33838"/>
<path d="M193.725 48.1207L189.483 48.1143L189.203 53.0365L193.446 53.0423L193.725 48.1207Z" fill="#E33838"/>
<path d="M192.047 50.5393C191.98 51.9 192.728 53.0435 193.719 53.0922C194.709 53.1414 195.567 52.0778 195.635 50.717C195.702 49.3562 194.954 48.2128 193.963 48.1641C192.973 48.1148 192.115 49.1785 192.047 50.5393Z" fill="#FF5B61"/>
<path d="M159.728 53.3198L181.599 53.9288C181.919 53.9379 182.185 53.6837 182.19 53.3633L182.21 52.2353C182.216 51.9085 181.948 51.6425 181.621 51.6503L159.73 52.1692C159.394 52.177 159.137 52.4701 159.171 52.8042C159.201 53.0915 159.439 53.312 159.728 53.3198Z" fill="#100259"/>
<path d="M182.189 53.3633L182.576 51.3034C182.576 51.3034 182.499 50.5445 181.801 50.5127C181.103 50.481 180.565 50.4142 180.431 50.6159C180.297 50.8176 180.234 51.6828 180.234 51.6828L182.189 53.3633H182.189Z" fill="#100259"/>
<path d="M166.691 74.7865C163.098 73.1462 157.631 68.3868 153.759 63.905C151.346 61.1115 147.609 58.3997 146.113 57.4346C144.936 56.6777 139.955 54.1371 139.451 53.0073C139.157 52.3412 140.872 50.4622 141.936 50.132C144.219 49.4231 147.349 50.7132 152.194 53.4548C156.81 56.068 159.348 56.2937 161.619 55.7735C162.402 55.5939 166.647 63.1954 168.913 58.0384C170.05 55.4479 178.916 56.3346 179.239 58.0864C181.912 72.5858 166.691 74.7858 166.691 74.7858V74.7865Z" fill="#FFA089"/>
<path d="M137.286 57.5507C137.099 57.6058 136.953 57.5436 136.877 57.4969C136.763 57.4268 136.668 57.3114 136.594 57.1693C136.443 57.3866 136.253 57.5708 136.019 57.6752C135.502 57.9081 134.979 57.7349 134.637 57.4113C134.51 57.5235 134.366 57.6344 134.203 57.7414C133.636 58.1163 132.785 58.3368 132.255 57.7258C132.226 57.6927 132.2 57.6584 132.176 57.624C132.057 57.7239 131.929 57.827 131.791 57.9334C130.77 58.7182 129.725 58.8291 128.997 58.2298C128.181 57.5585 127.823 55.9428 128.866 53.8466C129.479 52.6136 130.11 51.9935 130.743 52.0039C131.521 52.0162 131.966 52.969 131.984 53.0099L131.714 53.1338L131.849 53.0721L131.714 53.1344C131.71 53.126 131.328 52.3107 130.738 52.3023C130.236 52.2945 129.681 52.875 129.132 53.9802C128.162 55.9299 128.46 57.4048 129.186 58.0015C129.8 58.5067 130.706 58.3939 131.609 57.6992C131.767 57.5786 131.909 57.4631 132.037 57.3529C131.877 56.8827 132.051 56.3495 132.369 55.9902C132.69 55.6289 133.019 55.4506 133.253 55.5141C133.372 55.5465 133.454 55.638 133.479 55.7651C133.539 56.0687 133.27 56.6453 132.402 57.4288C132.425 57.4664 132.451 57.5014 132.478 57.5338C132.743 57.8387 133.292 57.9892 134.038 57.4956C134.193 57.3937 134.327 57.29 134.443 57.1875C134.441 57.1842 134.439 57.181 134.436 57.1771C134.143 56.7361 134.179 56.2405 134.529 55.9143C134.819 55.6438 135.031 55.6659 135.131 55.7029C135.267 55.7528 135.357 55.8819 135.378 56.0563C135.412 56.3521 135.252 56.7782 134.849 57.2069C135.113 57.4521 135.509 57.5812 135.896 57.4067C136.138 57.2978 136.325 57.0707 136.463 56.8139C136.373 56.426 136.399 55.9675 136.575 55.6361C136.62 55.5504 136.727 55.35 136.895 55.3811C136.963 55.3941 137.048 55.446 137.07 55.6205C137.096 55.843 137.011 56.3716 136.78 56.8496C136.837 57.0331 136.925 57.1797 137.032 57.2459C137.212 57.3568 137.413 57.1518 137.55 56.9605C138.165 56.0998 138.621 55.7282 139.079 55.7191C139.409 55.7126 139.717 55.8981 140.018 56.2866L139.784 56.4688C139.544 56.1595 139.315 56.0116 139.086 56.0161C138.737 56.0233 138.339 56.3677 137.792 57.133C137.608 57.3912 137.434 57.5092 137.285 57.5527L137.286 57.5507ZM134.957 55.983C134.904 55.9986 134.828 56.0395 134.733 56.129C134.459 56.3845 134.512 56.7244 134.661 56.9715C134.994 56.6044 135.105 56.2697 135.085 56.0875C135.078 56.0291 135.058 55.9882 135.031 55.9785C135.016 55.9733 134.992 55.9727 134.957 55.983H134.957ZM133.09 55.806C132.982 55.8378 132.803 55.9467 132.593 56.1848C132.308 56.5058 132.236 56.8463 132.288 57.1272C133.074 56.3975 133.214 55.9493 133.188 55.8196C133.184 55.8001 133.18 55.7995 133.175 55.7982C133.156 55.793 133.127 55.795 133.089 55.806H133.09Z" fill="#2C2789"/>
<path d="M122.772 56.1276L105.034 61.3638C105.018 61.3683 105.001 61.3592 104.997 61.3436L104.654 60.1814C104.649 60.1658 104.658 60.1489 104.674 60.1444L122.412 54.9083C122.428 54.9037 122.445 54.9128 122.449 54.9284L122.792 56.0907C122.797 56.1062 122.788 56.1231 122.772 56.1276Z" fill="#B8D0FC"/>
<path d="M119.136 59.1764L105.568 63.1826C105.554 63.1867 105.546 63.2011 105.55 63.2148L105.896 64.3843C105.9 64.398 105.914 64.4059 105.928 64.4018L119.496 60.3956C119.51 60.3916 119.518 60.3771 119.513 60.3634L119.168 59.194C119.164 59.1802 119.15 59.1724 119.136 59.1764Z" fill="#B8D0FC"/>
</g>
</g>
<defs>
<clipPath id="clip0_2691_2387">
<rect width="168.501" height="113.47" fill="white" transform="translate(50 9)"/>
</clipPath>
</defs>
</svg>
