<svg width="268" height="104" viewBox="0 0 268 104" fill="none" xmlns="http://www.w3.org/2000/svg">
<rect width="268" height="104" rx="10" fill="#EDF8F7"/>
<mask id="mask0_2691_7828" style="mask-type:alpha" maskUnits="userSpaceOnUse" x="0" y="0" width="268" height="104">
<rect width="268" height="104" rx="10" fill="#EDF8F7"/>
</mask>
<g mask="url(#mask0_2691_7828)">
<path d="M206 61H251C250.506 58.7342 248.765 56.937 246.533 56.3814C246.659 55.8817 246.727 55.3571 246.727 54.8139C246.727 51.2879 243.884 48.4292 240.38 48.4292C239.383 48.4292 238.438 48.662 237.598 49.0749C236.249 46.0827 233.254 44 229.772 44C226.073 44 222.918 46.3527 221.708 49.6491C220.655 48.9538 219.396 48.5472 218.043 48.5472C214.351 48.5472 211.356 51.558 211.356 55.2702C211.356 55.593 211.381 55.9096 211.424 56.22C208.748 56.4466 206.568 58.4176 206.003 60.9969L206 61Z" fill="white"/>
<path d="M37.0028 23.3983H56.694C56.4775 22.4116 55.7156 21.6302 54.7386 21.3874C54.7941 21.1695 54.8233 20.9405 54.8233 20.706C54.8233 19.1711 53.5798 17.9276 52.0449 17.9276C51.6078 17.9276 51.1956 18.0289 50.8279 18.208C50.2367 16.9062 48.9266 16 47.4028 16C45.7833 16 44.4038 17.0228 43.8737 18.4591C43.4129 18.1566 42.862 17.9804 42.2694 17.9804C40.6526 17.9804 39.3426 19.2904 39.3426 20.9072C39.3426 21.0474 39.3537 21.1861 39.3717 21.3208C38.2004 21.4193 37.247 22.2769 37 23.3997L37.0028 23.3983Z" fill="white"/>
<path d="M183 75.6009H203.228C203.006 74.5878 202.224 73.7843 201.22 73.5359C201.277 73.3124 201.308 73.0779 201.308 72.835C201.308 71.2585 200.029 69.9804 198.454 69.9804C198.006 69.9804 197.581 70.0844 197.204 70.269C196.597 68.9312 195.251 68 193.686 68C192.023 68 190.605 69.0519 190.061 70.5258C189.588 70.2149 189.022 70.0331 188.414 70.0331C186.754 70.0331 185.408 71.3792 185.408 73.039C185.408 73.1834 185.419 73.3249 185.438 73.4637C184.235 73.565 183.255 74.4462 183.001 75.5995L183 75.6009Z" fill="white"/>
<path d="M133.003 23.3983H152.694C152.478 22.4116 151.716 21.6302 150.739 21.3874C150.794 21.1695 150.823 20.9405 150.823 20.706C150.823 19.1711 149.58 17.9276 148.045 17.9276C147.608 17.9276 147.196 18.0289 146.828 18.208C146.237 16.9062 144.927 16 143.403 16C141.783 16 140.404 17.0228 139.874 18.4591C139.413 18.1566 138.862 17.9804 138.269 17.9804C136.653 17.9804 135.343 19.2904 135.343 20.9072C135.343 21.0474 135.354 21.1861 135.372 21.3208C134.2 21.4193 133.247 22.2769 133 23.3997L133.003 23.3983Z" fill="white"/>
<path d="M92.2873 64.9396C92.4458 41.777 111.351 23.1285 134.514 23.2869C157.676 23.4454 176.325 42.3508 176.166 65.5134L175.88 107.453L92.0004 106.879L92.2873 64.9396Z" fill="#2DD2C5"/>
<g clip-path="url(#clip0_2691_7828)">
<path d="M59.0786 39.5546L22.7231 61.0348L51.3473 108.45L87.1426 85.6858L59.0786 39.5546Z" fill="#B8D0FC"/>
<path d="M59.0004 39.5161L24.125 60.7784L52.2685 106.941L87.144 85.6785L59.0004 39.5161Z" fill="white"/>
<path d="M46.8286 71.5429L37.8144 77.0376C37.8079 77.0419 37.7991 77.0396 37.7947 77.0326L37.4388 76.4487C37.435 76.442 37.4367 76.4334 37.4433 76.4291L46.4575 70.9343C46.464 70.93 46.4728 70.9323 46.4772 70.9393L46.8331 71.5232C46.8374 71.5298 46.8351 71.5386 46.8281 71.543L46.8286 71.5429Z" fill="#B8D0FC"/>
<path d="M60.8436 62.9998L48.2255 70.6913C48.2175 70.696 48.2072 70.6936 48.202 70.6858L47.8489 70.1062C47.8442 70.0983 47.8465 70.0879 47.8545 70.0832L60.4726 62.3917C60.4806 62.387 60.4909 62.3894 60.4961 62.3972L60.8493 62.9767C60.8539 62.9847 60.8516 62.9951 60.8436 62.9998Z" fill="#B8D0FC"/>
<path d="M64.9902 55.4987L35.6182 73.4027C35.6042 73.4115 35.585 73.4069 35.5766 73.3927L35.2373 72.8362C35.2284 72.8221 35.233 72.803 35.2472 72.7946L64.6192 54.8907C64.6333 54.8818 64.6524 54.8864 64.6608 54.9006L65.0002 55.4571C65.009 55.4712 65.0044 55.4903 64.9902 55.4987Z" fill="#B8D0FC"/>
<path d="M63.0972 59.0147L36.6668 75.1257C36.6531 75.134 36.6355 75.1294 36.6274 75.1162L36.2863 74.5571C36.278 74.5434 36.2825 74.5258 36.2957 74.5176L62.7262 58.4066C62.7399 58.3983 62.7575 58.4029 62.7656 58.4161L63.1067 58.9753C63.1149 58.9889 63.1104 59.0065 63.0972 59.0147Z" fill="#B8D0FC"/>
<path d="M65.4409 62.864L39.0105 78.9751C38.9968 78.9833 38.9792 78.9788 38.9711 78.9656L38.63 78.4064C38.6218 78.3927 38.6263 78.3751 38.6395 78.367L65.0699 62.256C65.0836 62.2477 65.1012 62.2522 65.1093 62.2654L65.4504 62.8246C65.4587 62.8383 65.4541 62.8559 65.4409 62.864Z" fill="#B8D0FC"/>
<path d="M43.5552 66.175L34.541 71.6697C34.5344 71.674 34.5256 71.6717 34.5212 71.6647L34.1653 71.0808C34.1615 71.0741 34.1633 71.0654 34.1698 71.0611L43.184 65.5664C43.1906 65.5621 43.1994 65.5644 43.2038 65.5714L43.5597 66.1553C43.564 66.1619 43.5617 66.1707 43.5547 66.1751L43.5552 66.175Z" fill="#B8D0FC"/>
<path d="M57.5702 57.6322L44.9521 65.3237C44.9441 65.3284 44.9337 65.326 44.9286 65.3182L44.5754 64.7387C44.5707 64.7307 44.5731 64.7203 44.5811 64.7157L57.1992 57.0241C57.2071 57.0195 57.2175 57.0218 57.2227 57.0297L57.5758 57.6092C57.5805 57.6171 57.5781 57.6275 57.5703 57.6327L57.5702 57.6322Z" fill="#B8D0FC"/>
<path d="M55.9223 77.563L43.8701 84.9096C43.8595 84.916 43.8453 84.9127 43.8389 84.9021L43.3575 84.1124C43.3511 84.1018 43.3544 84.0876 43.365 84.0812L55.4173 76.7345C55.4279 76.7281 55.4421 76.7315 55.4485 76.7421L55.9299 77.5318C55.9363 77.5424 55.9329 77.5566 55.9223 77.563Z" fill="#B8D0FC"/>
<path d="M53.8448 80.5251L44.6263 86.1453C44.6169 86.151 44.614 86.1631 44.6197 86.1725L45.1041 86.967C45.1098 86.9764 45.122 86.9793 45.1313 86.9736L54.3498 81.3534C54.3592 81.3477 54.3621 81.3356 54.3564 81.3262L53.872 80.5317C53.8663 80.5223 53.8541 80.5194 53.8448 80.5251Z" fill="#B8D0FC"/>
</g>
<g clip-path="url(#clip1_2691_7828)">
<path d="M84.5869 30.0675L31.3086 45.0001L51.5558 114.692L104.558 97.9444L84.5869 30.0675Z" fill="#B8D0FC"/>
<path d="M84.5026 29.9922L33.1719 45.1483L53.2331 113.091L104.564 97.9353L84.5026 29.9922Z" fill="white"/>
<path d="M58.2868 66.4369L45.0198 70.3531C45.0101 70.3564 44.9997 70.3505 44.9965 70.3401L44.7429 69.4808C44.7403 69.471 44.7454 69.4606 44.7552 69.4574L58.0222 65.5412C58.0319 65.5379 58.0423 65.5438 58.0456 65.5542L58.2992 66.4135C58.3024 66.4233 58.2966 66.4337 58.2862 66.4369H58.2868Z" fill="#B8D0FC"/>
<path d="M78.9141 60.3479L60.3429 65.8299C60.3312 65.8331 60.3189 65.8266 60.315 65.8149L60.0633 64.962C60.0601 64.9504 60.0666 64.938 60.0783 64.9348L78.6495 59.4529C78.6612 59.4496 78.6735 59.4561 78.6774 59.4678L78.9291 60.3207C78.9323 60.3324 78.9258 60.3447 78.9141 60.3479Z" fill="#B8D0FC"/>
<path d="M86.6944 52.2488L43.4648 65.0093C43.4441 65.0158 43.4214 65.0035 43.4155 64.9827L43.1736 64.1636C43.1671 64.1428 43.1794 64.1201 43.2002 64.1143L86.4298 51.3538C86.4505 51.3473 86.4732 51.3596 86.4791 51.3804L86.721 52.1996C86.7275 52.2203 86.7152 52.243 86.6944 52.2488Z" fill="#B8D0FC"/>
<path d="M83.1096 56.062L44.2094 67.5447C44.1893 67.5506 44.1685 67.5389 44.1627 67.5194L43.9195 66.6964C43.9136 66.6763 43.9253 66.6555 43.9448 66.6497L82.845 55.1669C82.8651 55.1611 82.8858 55.1728 82.8917 55.1922L83.1349 56.0153C83.1407 56.0354 83.1291 56.0561 83.1096 56.062Z" fill="#B8D0FC"/>
<path d="M84.7815 61.7274L45.8813 73.2101C45.8612 73.216 45.8404 73.2043 45.8346 73.1848L45.5914 72.3618C45.5855 72.3417 45.5972 72.3209 45.6166 72.3151L84.5169 60.8323C84.537 60.8265 84.5577 60.8382 84.5636 60.8576L84.8068 61.6807C84.8126 61.7008 84.8009 61.7215 84.7815 61.7274Z" fill="#B8D0FC"/>
<path d="M55.9548 58.5364L42.6878 62.4526C42.678 62.4558 42.6677 62.45 42.6644 62.4396L42.4108 61.5802C42.4082 61.5705 42.4134 61.5601 42.4231 61.5569L55.6902 57.6407C55.6999 57.6374 55.7103 57.6433 55.7135 57.6536L55.9671 58.513C55.9704 58.5228 55.9645 58.5331 55.9542 58.5364H55.9548Z" fill="#B8D0FC"/>
<path d="M76.5821 52.448L58.0108 57.93C57.9992 57.9332 57.9868 57.9267 57.983 57.915L57.7313 57.0621C57.7281 57.0505 57.7345 57.0381 57.7462 57.0349L76.3175 51.553C76.3292 51.5497 76.3415 51.5562 76.3454 51.5679L76.597 52.4208C76.6003 52.4325 76.5938 52.4448 76.5821 52.4487V52.448Z" fill="#B8D0FC"/>
<path d="M67.772 77.1276L50.0336 82.3638C50.018 82.3683 50.0012 82.3592 49.9966 82.3436L49.6535 81.1814C49.649 81.1658 49.6581 81.1489 49.6736 81.1444L67.4121 75.9083C67.4276 75.9037 67.4445 75.9128 67.449 75.9284L67.7922 77.0907C67.7967 77.1062 67.7876 77.1231 67.772 77.1276Z" fill="#B8D0FC"/>
<path d="M64.136 80.1765L50.5678 84.1827C50.5541 84.1867 50.5463 84.2011 50.5503 84.2149L50.8956 85.3843C50.8997 85.3981 50.9141 85.4059 50.9278 85.4019L64.4959 81.3957C64.5097 81.3916 64.5175 81.3772 64.5135 81.3635L64.1682 80.194C64.1641 80.1803 64.1497 80.1724 64.136 80.1765Z" fill="#B8D0FC"/>
</g>
</g>
<rect x="186.547" y="26" width="21.302" height="21.302" rx="6" transform="rotate(15.0872 186.547 26)" fill="white"/>
<path opacity="0.3" d="M196.949 42.0646C196.729 42.0687 196.588 41.9593 196.518 41.8868C196.415 41.7785 196.344 41.627 196.305 41.4533C196.077 41.6414 195.817 41.7826 195.533 41.8257C194.902 41.923 194.382 41.5841 194.102 41.1372C193.932 41.2199 193.743 41.2963 193.534 41.363C192.808 41.5974 191.817 41.5833 191.416 40.7739C191.394 40.7301 191.375 40.6855 191.359 40.6417C191.2 40.7137 191.031 40.7865 190.85 40.8597C189.511 41.3995 188.341 41.2112 187.72 40.356C187.024 39.398 187.101 37.5644 188.841 35.6278C189.865 34.4886 190.732 34.0108 191.419 34.2079C192.263 34.4495 192.473 35.5997 192.481 35.6487L192.151 35.7018L192.315 35.6755L192.15 35.7025C192.149 35.6923 191.967 34.7078 191.327 34.5254C190.782 34.3696 190.01 34.8277 189.092 35.8488C187.473 37.65 187.373 39.3157 187.991 40.1672C188.515 40.8882 189.535 41.0337 190.72 40.5559C190.926 40.4731 191.115 40.3913 191.286 40.3111C191.247 39.7609 191.591 39.2415 192.041 38.9506C192.495 38.6582 192.905 38.5642 193.141 38.7008C193.261 38.7704 193.325 38.8924 193.316 39.0359C193.293 39.3782 192.834 39.9162 191.662 40.4993C191.676 40.5464 191.694 40.5914 191.715 40.6342C191.915 41.0381 192.47 41.3603 193.426 41.0516C193.623 40.988 193.8 40.9164 193.956 40.8408C193.954 40.8368 193.953 40.8326 193.951 40.8276C193.759 40.2696 193.941 39.7501 194.416 39.5038C194.81 39.2996 195.035 39.3855 195.134 39.4546C195.268 39.548 195.328 39.7124 195.3 39.9052C195.253 40.2317 194.956 40.6408 194.392 40.9809C194.609 41.3208 195.004 41.5753 195.476 41.5022C195.771 41.4569 196.041 41.2689 196.265 41.0347C196.278 40.593 196.439 40.11 196.726 39.8072C196.801 39.729 196.974 39.5458 197.148 39.6285C197.219 39.6623 197.297 39.743 197.27 39.936C197.235 40.1818 196.99 40.7224 196.6 41.1658C196.609 41.379 196.663 41.5618 196.76 41.664C196.924 41.8354 197.203 41.6752 197.407 41.5107C198.325 40.7705 198.93 40.507 199.432 40.6318C199.793 40.7218 200.075 41.0106 200.291 41.5149L199.983 41.6409C199.811 41.2394 199.605 41.0141 199.353 40.9515C198.971 40.8568 198.437 41.1081 197.621 41.7664C197.346 41.9884 197.122 42.0637 196.948 42.0665L196.949 42.0646ZM194.863 39.7031C194.801 39.7043 194.707 39.7257 194.577 39.7935C194.205 39.9865 194.165 40.3658 194.255 40.6738C194.725 40.379 194.942 40.0535 194.972 39.8524C194.982 39.788 194.972 39.7384 194.945 39.72C194.931 39.7102 194.904 39.7023 194.864 39.7033L194.863 39.7031ZM192.88 38.9652C192.752 38.9674 192.527 39.0316 192.228 39.2244C191.825 39.4842 191.649 39.8274 191.625 40.1433C192.691 39.5934 192.973 39.155 192.982 39.0086C192.984 38.9866 192.98 38.9848 192.974 38.9819C192.955 38.9706 192.923 38.9643 192.879 38.9651L192.88 38.9652Z" fill="#2C2789"/>
<g filter="url(#filter0_dd_2691_7828)">
<rect x="162" y="10" width="32" height="32" rx="10" fill="white"/>
</g>
<path d="M183.367 29.2336C183.05 29.3254 182.803 29.2217 182.673 29.144C182.481 29.0274 182.319 28.8352 182.194 28.5987C181.937 28.9604 181.615 29.2671 181.219 29.4409C180.343 29.8285 179.456 29.5402 178.876 29.0015C178.66 29.1882 178.416 29.3729 178.14 29.551C177.178 30.1751 175.735 30.5422 174.836 29.5251C174.788 29.47 174.743 29.4128 174.702 29.3556C174.501 29.5219 174.284 29.6935 174.05 29.8706C172.319 31.177 170.548 31.3616 169.313 30.364C167.929 29.2465 167.323 26.5571 169.09 23.0676C170.13 21.0151 171.201 19.9829 172.274 20.0002C173.593 20.0207 174.347 21.6068 174.378 21.6748L173.919 21.881L174.148 21.7784L173.919 21.8821C173.913 21.8681 173.265 20.5109 172.264 20.4969C171.413 20.4839 170.473 21.4502 169.541 23.29C167.897 26.5355 168.403 28.9907 169.633 29.984C170.674 30.825 172.21 30.6372 173.742 29.4808C174.009 29.28 174.25 29.0878 174.468 28.9043C174.196 28.1215 174.491 27.234 175.031 26.6359C175.574 26.0345 176.133 25.7376 176.529 25.8434C176.73 25.8974 176.87 26.0496 176.913 26.2612C177.014 26.7665 176.559 27.7264 175.086 29.0306C175.126 29.0932 175.169 29.1515 175.216 29.2055C175.665 29.713 176.595 29.9635 177.861 29.1418C178.122 28.9723 178.35 28.7996 178.547 28.629C178.544 28.6236 178.539 28.6182 178.535 28.6117C178.038 27.8775 178.099 27.0526 178.692 26.5096C179.184 26.0593 179.543 26.0961 179.714 26.1576C179.945 26.2407 180.096 26.4556 180.132 26.746C180.19 27.2384 179.919 27.9477 179.235 28.6614C179.683 29.0695 180.355 29.2843 181.01 28.9939C181.422 28.8125 181.738 28.4346 181.972 28.0071C181.818 27.3614 181.862 26.5981 182.162 26.0464C182.239 25.9039 182.419 25.5703 182.704 25.6221C182.819 25.6437 182.964 25.73 183.001 26.0205C183.046 26.3908 182.902 27.2707 182.509 28.0665C182.606 28.372 182.755 28.616 182.937 28.7261C183.242 28.9108 183.582 28.5696 183.814 28.2511C184.857 26.8184 185.631 26.1997 186.408 26.1846C186.967 26.1738 187.489 26.4826 188 27.1293L187.602 27.4327C187.195 26.9177 186.808 26.6715 186.419 26.6791C185.828 26.691 185.152 27.2643 184.225 28.5383C183.912 28.968 183.618 29.1645 183.366 29.2368L183.367 29.2336ZM179.418 26.624C179.329 26.6499 179.2 26.7179 179.038 26.8669C178.574 27.2923 178.665 27.8581 178.916 28.2694C179.482 27.6583 179.67 27.1012 179.634 26.7978C179.623 26.7007 179.589 26.6327 179.543 26.6165C179.519 26.6078 179.477 26.6067 179.419 26.624H179.418ZM176.253 26.3293C176.069 26.3822 175.767 26.5636 175.409 26.9598C174.927 27.4942 174.805 28.0611 174.894 28.5286C176.225 27.3139 176.463 26.5679 176.419 26.3519C176.412 26.3195 176.406 26.3185 176.397 26.3163C176.364 26.3077 176.316 26.3109 176.252 26.3293H176.253Z" fill="#2C2789"/>
<g clip-path="url(#clip2_2691_7828)">
<path d="M105.543 77.9189C105.653 78.2688 106.022 78.4732 106.37 78.3757C106.875 78.2325 107.379 78.0874 107.883 77.9396C108.228 77.8383 108.417 77.4721 108.304 77.1231C108.191 76.7741 107.818 76.5734 107.473 76.6746C106.974 76.8216 106.474 76.9658 105.973 77.1073C105.864 77.138 105.772 77.1942 105.699 77.2674C105.536 77.4303 105.469 77.6776 105.544 77.918L105.543 77.9189Z" fill="#FF7A11"/>
<path d="M167.566 42.1881C167.808 41.9251 167.785 41.5079 167.512 41.2576C167.248 41.0131 166.846 41.0157 166.602 41.26C166.595 41.2664 166.589 41.2729 166.582 41.2793C166.237 41.655 165.882 42.0343 165.529 42.408C165.283 42.6672 165.301 43.0844 165.569 43.3392C165.837 43.594 166.25 43.5879 166.499 43.3306C166.858 42.9532 167.216 42.5684 167.566 42.1881Z" fill="#FF7A11"/>
<path d="M133.4 66.2426C132.941 66.4815 132.482 66.7176 132.02 66.9518C131.959 66.9825 131.906 67.0225 131.86 67.0683C131.666 67.2623 131.615 67.5713 131.754 67.8351C131.927 68.16 132.327 68.2923 132.646 68.1301C133.111 67.8941 133.575 67.6553 134.037 67.4146C134.354 67.2487 134.47 66.8515 134.293 66.5284C134.116 66.2053 133.715 66.0767 133.398 66.2426L133.4 66.2426Z" fill="#FF7A11"/>
<path d="M169.645 39.8548C169.985 39.4613 170.326 39.0604 170.658 38.6639C170.888 38.3905 170.845 37.9748 170.563 37.7365C170.296 37.5096 169.91 37.5245 169.675 37.7597C169.662 37.7725 169.648 37.7863 169.637 37.801C169.31 38.1928 168.973 38.5882 168.637 38.9771C168.404 39.2468 168.439 39.6633 168.718 39.9072C168.996 40.15 169.412 40.1272 169.646 39.8576L169.645 39.8548Z" fill="#FF7A11"/>
<path d="M135.896 65.6703C136.079 65.9907 136.483 66.1091 136.795 65.9366C137.252 65.6847 137.707 65.4318 138.161 65.1751C138.473 64.9989 138.573 64.5976 138.388 64.28C138.201 63.9614 137.796 63.8476 137.484 64.0229C137.035 64.2769 136.585 64.5289 136.131 64.7781C136.078 64.807 136.03 64.8435 135.989 64.8837C135.789 65.0841 135.742 65.4035 135.895 65.6694L135.896 65.6703Z" fill="#FF7A11"/>
<path d="M119.047 72.7939C118.869 72.9723 118.807 73.2495 118.915 73.5035C119.056 73.8427 119.444 74.0121 119.778 73.8818C120.265 73.6918 120.752 73.4989 121.238 73.3042C121.572 73.1703 121.724 72.7876 121.578 72.4492C121.433 72.1118 121.045 71.9452 120.711 72.0801C120.23 72.274 119.748 72.4641 119.264 72.6523C119.18 72.6854 119.108 72.7335 119.048 72.7929L119.047 72.7939Z" fill="#FF7A11"/>
<path d="M128.423 70.1855C128.896 69.9646 129.369 69.7417 129.839 69.516C130.163 69.3605 130.289 68.969 130.124 68.6405C129.958 68.3121 129.561 68.1714 129.238 68.3261C128.772 68.5499 128.304 68.7719 127.835 68.9893C127.766 69.0216 127.707 69.0643 127.656 69.1147C127.468 69.3032 127.413 69.6019 127.54 69.8627C127.702 70.193 128.098 70.3383 128.424 70.1865L128.423 70.1855Z" fill="#FF7A11"/>
<path d="M123.258 71.7526C123.41 72.0873 123.802 72.2446 124.131 72.1041C124.612 71.8981 125.091 71.6912 125.57 71.4796C125.898 71.3353 126.038 70.9468 125.883 70.6139C125.727 70.2809 125.334 70.1273 125.006 70.2716C124.532 70.4805 124.057 70.6866 123.581 70.8907C123.505 70.923 123.438 70.9693 123.383 71.0242C123.2 71.2072 123.141 71.4947 123.258 71.7526Z" fill="#FF7A11"/>
<path d="M112.782 75.7065C112.658 75.3611 112.28 75.1714 111.938 75.2839C111.444 75.4468 110.95 75.606 110.454 75.7643C110.355 75.7961 110.269 75.8496 110.199 75.9191C110.032 76.0866 109.965 76.3442 110.051 76.5894C110.172 76.9367 110.547 77.1291 110.891 77.0204C111.39 76.8612 111.888 76.7002 112.387 76.5365C112.729 76.424 112.906 76.052 112.782 75.7065Z" fill="#FF7A11"/>
<path d="M156.541 50.8619C156.149 51.1913 155.75 51.5224 155.353 51.847C155.337 51.8597 155.321 51.8753 155.307 51.8899C155.074 52.1224 155.058 52.5055 155.28 52.7726C155.515 53.0575 155.931 53.1036 156.208 52.8775C156.608 52.5492 157.013 52.2145 157.409 51.8815C157.684 51.6516 157.71 51.237 157.47 50.9548C157.231 50.6734 156.815 50.6311 156.541 50.8619Z" fill="#FF7A11"/>
<path d="M152.526 55.7711C152.941 55.4589 153.357 55.1393 153.765 54.8223C154.047 54.6027 154.09 54.1903 153.862 53.8999C153.633 53.6104 153.219 53.5532 152.936 53.7718C152.531 54.0851 152.12 54.4001 151.709 54.7106C151.685 54.7288 151.663 54.747 151.643 54.7671C151.418 54.9923 151.393 55.3613 151.6 55.63C151.825 55.9231 152.239 55.985 152.524 55.7692L152.526 55.7711Z" fill="#FF7A11"/>
<path d="M114.647 74.4268C114.474 74.5997 114.411 74.8676 114.506 75.1167C114.638 75.4604 115.018 75.6417 115.358 75.5218C115.852 75.3477 116.345 75.1708 116.837 74.9911C117.174 74.8674 117.338 74.4896 117.204 74.1486C117.069 73.8067 116.686 73.63 116.349 73.7527C115.861 73.9307 115.372 74.1067 114.884 74.279C114.792 74.3119 114.713 74.3627 114.649 74.4268L114.647 74.4268Z" fill="#FF7A11"/>
<path d="M144.845 61.1334C145.279 60.8531 145.719 60.5664 146.152 60.2787C146.45 60.0809 146.525 59.6736 146.317 59.3686C146.109 59.0637 145.699 58.9758 145.4 59.1737C144.971 59.4577 144.536 59.7426 144.106 60.0192C144.069 60.0437 144.033 60.072 144.002 60.1031C143.789 60.3154 143.752 60.6591 143.931 60.9273C144.135 61.2341 144.544 61.3265 144.845 61.1334Z" fill="#FF7A11"/>
<path d="M160.021 47.8104C159.645 48.1549 159.26 48.5021 158.875 48.8427C158.866 48.8519 158.858 48.8601 158.849 48.8693C158.608 49.11 158.601 49.5072 158.839 49.7726C159.086 50.0485 159.502 50.0787 159.77 49.8413C160.158 49.4961 160.547 49.1453 160.928 48.7981C161.193 48.5596 161.203 48.1411 160.953 47.8689C160.703 47.5967 160.286 47.572 160.022 47.8132L160.021 47.8104Z" fill="#FF7A11"/>
<path d="M140.866 63.6051C141.311 63.3399 141.761 63.0683 142.204 62.7975C142.509 62.61 142.597 62.2058 142.399 61.8945C142.202 61.5822 141.794 61.4814 141.489 61.6689C141.05 61.937 140.605 62.2068 140.164 62.4693C140.118 62.4964 140.078 62.5292 140.042 62.5649C139.836 62.7709 139.794 63.1023 139.959 63.3694C140.152 63.6834 140.56 63.7889 140.866 63.6051Z" fill="#FF7A11"/>
<path d="M163.37 44.6172C163.009 44.9787 162.637 45.341 162.27 45.6968C162.267 45.6995 162.264 45.7023 162.263 45.7041C162.014 45.953 162.017 46.3644 162.271 46.6273C162.528 46.8922 162.945 46.9066 163.202 46.6578C163.574 46.2984 163.949 45.9297 164.315 45.5654L164.316 45.5645C164.568 45.3119 164.561 44.8968 164.301 44.6347C164.04 44.3735 163.623 44.3646 163.37 44.6172Z" fill="#FF7A11"/>
<path d="M102.958 77.923C102.453 78.0532 101.948 78.1815 101.442 78.307C101.326 78.3358 101.226 78.3946 101.148 78.4724C100.991 78.6298 100.921 78.8678 100.987 79.1034C101.086 79.4568 101.449 79.6722 101.799 79.586C102.308 79.4605 102.818 79.3314 103.328 79.1985C103.677 79.1085 103.877 78.7489 103.775 78.3973C103.673 78.0448 103.308 77.833 102.958 77.923Z" fill="#FF7A11"/>
<path d="M148.736 58.5233C149.158 58.228 149.588 57.9253 150.011 57.6216C150.301 57.4124 150.36 57.0031 150.142 56.7044C149.924 56.4058 149.512 56.3337 149.22 56.5419C148.802 56.8411 148.378 57.142 147.959 57.4346C147.927 57.4564 147.9 57.4801 147.874 57.5057C147.655 57.7245 147.625 58.0804 147.817 58.3488C148.031 58.6492 148.444 58.7268 148.737 58.5224L148.736 58.5233Z" fill="#FF7A11"/>
<path d="M92.1609 80.9523C95.3265 81.4492 99.3736 82.5733 102.074 84.086L99.2296 79.6434C99.2271 79.6043 99.2218 79.5642 99.2108 79.524C99.2009 79.4866 99.1873 79.4529 99.1728 79.4182L99.7703 74.2666C97.9936 76.6868 94.8174 79.2744 92.1619 80.9532L92.1609 80.9523Z" fill="#FF7A11"/>
</g>
<defs>
<filter id="filter0_dd_2691_7828" x="156" y="4" width="44" height="44" filterUnits="userSpaceOnUse" color-interpolation-filters="sRGB">
<feFlood flood-opacity="0" result="BackgroundImageFix"/>
<feColorMatrix in="SourceAlpha" type="matrix" values="0 0 0 0 0 0 0 0 0 0 0 0 0 0 0 0 0 0 127 0" result="hardAlpha"/>
<feOffset dy="2"/>
<feGaussianBlur stdDeviation="2"/>
<feColorMatrix type="matrix" values="0 0 0 0 0 0 0 0 0 0 0 0 0 0 0 0 0 0 0.08 0"/>
<feBlend mode="normal" in2="BackgroundImageFix" result="effect1_dropShadow_2691_7828"/>
<feColorMatrix in="SourceAlpha" type="matrix" values="0 0 0 0 0 0 0 0 0 0 0 0 0 0 0 0 0 0 127 0" result="hardAlpha"/>
<feOffset/>
<feGaussianBlur stdDeviation="3"/>
<feColorMatrix type="matrix" values="0 0 0 0 0 0 0 0 0 0 0 0 0 0 0 0 0 0 0.02 0"/>
<feBlend mode="normal" in2="effect1_dropShadow_2691_7828" result="effect2_dropShadow_2691_7828"/>
<feBlend mode="normal" in="SourceGraphic" in2="effect2_dropShadow_2691_7828" result="shape"/>
</filter>
<clipPath id="clip0_2691_7828">
<rect width="128.595" height="86.5965" fill="white" transform="translate(-7 57.1073) rotate(-14.9192)"/>
</clipPath>
<clipPath id="clip1_2691_7828">
<rect width="168.501" height="113.47" fill="white" transform="translate(-5 30)"/>
</clipPath>
<clipPath id="clip2_2691_7828">
<rect width="86" height="26" fill="white" transform="translate(171.355 38.5259) rotate(135)"/>
</clipPath>
</defs>
</svg>
