<svg width="20" height="20" viewBox="0 0 20 20" fill="none" xmlns="http://www.w3.org/2000/svg">
<mask id="mask0_2496_506" style="mask-type:alpha" maskUnits="userSpaceOnUse" x="0" y="0" width="20" height="20">
<rect width="20" height="20" fill="#D9D9D9"/>
</mask>
<g mask="url(#mask0_2496_506)">
<path d="M5.04167 14.5C4.41667 13.9444 3.92014 13.2812 3.55208 12.5104C3.18403 11.7396 3 10.9028 3 10C3 8.81944 3.30208 7.75694 3.90625 6.8125C4.51042 5.86806 5.30556 5.15278 6.29167 4.66667C6.47222 4.56944 6.65625 4.56597 6.84375 4.65625C7.03125 4.74653 7.15972 4.89187 7.22917 5.09229C7.29861 5.28007 7.29861 5.46792 7.22917 5.65583C7.15972 5.84361 7.03472 5.98611 6.85417 6.08333C6.14583 6.45833 5.57639 6.98958 5.14583 7.67708C4.71528 8.36458 4.5 9.13889 4.5 10C4.5 10.6667 4.63542 11.2882 4.90625 11.8646C5.17708 12.441 5.54167 12.9306 6 13.3333V12.75C6 12.5375 6.07146 12.3594 6.21438 12.2156C6.35729 12.0719 6.53438 12 6.74563 12C6.95688 12 7.13542 12.0719 7.28125 12.2156C7.42708 12.3594 7.5 12.5375 7.5 12.75V15.25C7.5 15.4625 7.42813 15.6406 7.28438 15.7844C7.14062 15.9281 6.9625 16 6.75 16H4.25C4.0375 16 3.85938 15.9285 3.71563 15.7856C3.57188 15.6427 3.5 15.4656 3.5 15.2544C3.5 15.0431 3.57188 14.8646 3.71563 14.7188C3.85938 14.5729 4.0375 14.5 4.25 14.5H5.04167ZM14 6.6875V7.25C14 7.4625 13.9285 7.64063 13.7856 7.78438C13.6427 7.92813 13.4656 8 13.2544 8C13.0431 8 12.8646 7.92813 12.7188 7.78438C12.5729 7.64063 12.5 7.4625 12.5 7.25V4.75C12.5 4.5375 12.5719 4.35937 12.7156 4.21562C12.8594 4.07187 13.0375 4 13.25 4H15.75C15.9625 4 16.1406 4.07146 16.2844 4.21437C16.4281 4.35729 16.5 4.53437 16.5 4.74562C16.5 4.95687 16.4281 5.13542 16.2844 5.28125C16.1406 5.42708 15.9625 5.5 15.75 5.5H14.9375C15.5069 6.01389 15.9688 6.61111 16.3229 7.29167C16.6771 7.97222 16.8889 8.70833 16.9583 9.5H15.4583C15.3889 8.93056 15.2292 8.40972 14.9792 7.9375C14.7292 7.46528 14.4028 7.04861 14 6.6875ZM14.6042 19C14.5208 19 14.4479 18.9726 14.3854 18.9179C14.3229 18.8632 14.2778 18.7933 14.25 18.7083L14.0356 17.8292C13.8452 17.7625 13.6667 17.6806 13.5 17.5833C13.3333 17.4861 13.1736 17.375 13.0208 17.25L12.154 17.5208C12.0598 17.5486 11.9724 17.5451 11.8919 17.5104C11.8112 17.4757 11.75 17.4255 11.7083 17.3598L11.3333 16.7027C11.2917 16.637 11.2743 16.5625 11.2812 16.4792C11.2882 16.3958 11.3255 16.3184 11.3931 16.2469L12.0625 15.625C12.0208 15.4306 12 15.2326 12 15.0312C12 14.8299 12.0208 14.625 12.0625 14.4167L11.4113 13.8125C11.3454 13.7431 11.3056 13.6667 11.2917 13.5833C11.2778 13.5 11.2917 13.4255 11.3333 13.3598L11.7083 12.7027C11.75 12.637 11.8125 12.5868 11.8958 12.5521C11.9792 12.5174 12.0625 12.5139 12.1458 12.5417L13 12.7917C13.1528 12.6528 13.316 12.5347 13.4896 12.4375C13.6632 12.3403 13.8452 12.2576 14.0356 12.1896L14.25 11.2917C14.2778 11.2065 14.3229 11.1367 14.3854 11.0821C14.4479 11.0274 14.5208 11 14.6042 11H15.3542C15.4375 11 15.5104 11.0274 15.5729 11.0821C15.6354 11.1367 15.6806 11.2065 15.7083 11.2917L15.9375 12.1667C16.1736 12.2639 16.375 12.3646 16.5417 12.4688C16.7083 12.5729 16.8611 12.6806 17 12.7917L17.8333 12.5417C17.9208 12.5139 18.0052 12.5174 18.0865 12.5521C18.1677 12.5868 18.2292 12.6358 18.2708 12.6992L18.6458 13.3633C18.6875 13.4267 18.7014 13.5 18.6875 13.5833C18.6736 13.6667 18.6319 13.7431 18.5625 13.8125L17.9375 14.3958C17.9653 14.6319 17.9826 14.8507 17.9896 15.0521C17.9965 15.2535 17.9792 15.4514 17.9375 15.6458L18.5888 16.25C18.6546 16.3194 18.691 16.3958 18.6979 16.4792C18.7049 16.5625 18.6875 16.637 18.6458 16.7027L18.2708 17.3598C18.2292 17.4255 18.1667 17.4757 18.0833 17.5104C18 17.5451 17.9167 17.5486 17.8333 17.5208L16.9792 17.25C16.8264 17.375 16.6597 17.4896 16.4792 17.5938C16.2986 17.6979 16.1131 17.7826 15.9227 17.8477L15.7083 18.7083C15.6806 18.7933 15.6354 18.8632 15.5729 18.9179C15.5104 18.9726 15.4375 19 15.3542 19H14.6042ZM15.0044 16.5C15.4181 16.5 15.7708 16.3527 16.0625 16.0581C16.3542 15.7635 16.5 15.4094 16.5 14.9956C16.5 14.5819 16.3527 14.2292 16.0581 13.9375C15.7635 13.6458 15.4094 13.5 14.9956 13.5C14.5819 13.5 14.2292 13.6473 13.9375 13.9419C13.6458 14.2365 13.5 14.5906 13.5 15.0044C13.5 15.4181 13.6473 15.7708 13.9419 16.0625C14.2365 16.3542 14.5906 16.5 15.0044 16.5Z" fill="#01988C"/>
</g>
</svg>
