<svg width="482" height="624" viewBox="0 0 482 624" fill="none" xmlns="http://www.w3.org/2000/svg">
<rect width="482" height="624" rx="10" fill="#E0E7EB"/>
<path d="M98 311.553C98 232.823 161.823 169 240.553 169C319.282 169 383.106 232.823 383.106 311.553L383.106 454.106L98 454.106L98 311.553Z" fill="#FF7A11"/>
<g clip-path="url(#clip0_863_5041)">
<path d="M187.741 275.373C205.875 263.673 230.851 268.219 248.519 280.617C254.284 284.718 259.58 289.442 264.31 294.704C267.068 297.728 269.683 300.904 272.184 304.189C272.8 304.994 273.413 305.808 274.014 306.63C274.426 307.186 274.834 307.746 275.239 308.309C280.311 315.358 284.961 322.774 289.514 330.123C300.878 348.467 312.539 367.358 329.854 380.237C333.422 382.89 338.399 385.279 342.054 382.746C345.226 380.546 345.361 375.92 344.64 372.129C341.956 358.084 332.276 346.446 321.992 336.51C311.708 326.575 300.324 317.466 292.554 305.46C284.783 293.455 281.233 277.427 288.039 264.854C293.905 254.018 306.525 247.94 318.843 247.657C331.161 247.377 343.128 252.164 353.549 258.737C363.97 265.314 373.132 273.658 382.695 281.427C388.46 286.114 396.508 290.765 402.79 286.797C408.097 283.443 408.511 275.392 405.348 269.971C402.186 264.55 396.542 261.143 391.13 257.966C374.331 248.098 357.53 238.231 340.73 228.365C335.575 225.341 330.309 222.22 326.504 217.609C322.698 213 320.586 206.522 322.683 200.926C324.753 195.41 330.533 191.908 336.38 191.177C342.224 190.448 348.118 192.068 353.585 194.262C374.07 202.488 422.307 256.302 435.163 265.502C443.425 271.411 452.104 278.892 452.939 289.014C453.98 301.614 441.44 312.071 428.854 313.293C416.269 314.519 404.071 309.048 392.826 303.263C381.581 297.479 370.105 291.101 357.484 290.298C344.862 289.495 330.701 296.241 327.709 308.526C325.107 319.216 331.722 330.246 340.338 337.086C347.082 342.441 354.997 346.007 362.643 350.018C364.766 351.128 366.867 352.276 368.916 353.503C374.162 356.651 379.065 360.337 383.547 364.5C388.252 368.865 392.475 373.721 396.145 378.986C399.073 383.18 401.628 387.624 403.78 392.265C404.108 392.974 404.426 393.692 404.735 394.421C405.028 395.118 405.311 395.823 405.58 396.536C409.089 405.779 410.456 416.136 405.973 424.764C401.501 433.369 391.816 438.464 382.144 439.17C376.55 439.504 370.944 438.764 365.628 436.989C361.719 435.719 357.935 434.093 354.323 432.131C337.578 423.145 324.322 408.896 312.215 394.247C300.111 379.599 288.714 364.176 274.344 351.742C259.976 339.306 241.97 329.903 222.964 330.046C203.96 330.186 184.369 341.763 178.971 359.981C171.104 346.427 165.784 330.976 166.486 315.321C167.188 299.667 174.572 283.872 187.741 275.373Z" fill="#3F3D56"/>
<path d="M261.472 326.018C262.625 326.018 263.56 325.083 263.56 323.93C263.56 322.777 262.625 321.843 261.472 321.843C260.319 321.843 259.384 322.777 259.384 323.93C259.384 325.083 260.319 326.018 261.472 326.018Z" fill="#14B8AA"/>
<path d="M182.786 329.003C184.569 329.003 186.014 327.558 186.014 325.775C186.014 323.993 184.569 322.548 182.786 322.548C181.003 322.548 179.558 323.993 179.558 325.775C179.558 327.558 181.003 329.003 182.786 329.003Z" fill="#FF6584"/>
<path d="M416.109 300.445C416.768 300.445 417.302 299.911 417.302 299.252C417.302 298.594 416.768 298.06 416.109 298.06C415.45 298.06 414.916 298.594 414.916 299.252C414.916 299.911 415.45 300.445 416.109 300.445Z" fill="#FF6584"/>
<path d="M391.975 236.351C392.634 236.351 393.168 235.817 393.168 235.159C393.168 234.5 392.634 233.966 391.975 233.966C391.316 233.966 390.782 234.5 390.782 235.159C390.782 235.817 391.316 236.351 391.975 236.351Z" fill="#FF6584"/>
<path d="M361.284 352.795C361.623 351.817 362.079 350.885 362.643 350.018C364.766 351.128 366.867 352.276 368.916 353.503C374.162 356.651 379.065 360.337 383.547 364.5C381.743 366.951 379.12 368.675 376.154 369.357C373.188 370.039 370.075 369.635 367.382 368.219C364.688 366.803 362.591 364.467 361.472 361.637C360.354 358.807 360.287 355.67 361.284 352.795Z" fill="#FFC43E"/>
<path d="M209.167 313.984C209.841 313.984 210.387 313.438 210.387 312.765C210.387 312.091 209.841 311.545 209.167 311.545C208.493 311.545 207.947 312.091 207.947 312.765C207.947 313.438 208.493 313.984 209.167 313.984Z" fill="#F0F0F0"/>
<path d="M358.622 223.746C359.295 223.746 359.842 223.2 359.842 222.527C359.842 221.853 359.295 221.307 358.622 221.307C357.948 221.307 357.402 221.853 357.402 222.527C357.402 223.2 357.948 223.746 358.622 223.746Z" fill="#F0F0F0"/>
<path d="M347.638 202.021C348.312 202.021 348.858 201.475 348.858 200.801C348.858 200.128 348.312 199.582 347.638 199.582C346.965 199.582 346.418 200.128 346.418 200.801C346.418 201.475 346.965 202.021 347.638 202.021Z" fill="#F0F0F0"/>
<path d="M434.016 283.003C434.689 283.003 435.236 282.457 435.236 281.783C435.236 281.109 434.689 280.563 434.016 280.563C433.342 280.563 432.796 281.109 432.796 281.783C432.796 282.457 433.342 283.003 434.016 283.003Z" fill="#F0F0F0"/>
<path d="M369.939 284.755C370.612 284.755 371.158 284.209 371.158 283.535C371.158 282.862 370.612 282.316 369.939 282.316C369.265 282.316 368.719 282.862 368.719 283.535C368.719 284.209 369.265 284.755 369.939 284.755Z" fill="#F0F0F0"/>
<path d="M335.935 401.087C336.609 401.087 337.155 400.541 337.155 399.867C337.155 399.194 336.609 398.647 335.935 398.647C335.261 398.647 334.715 399.194 334.715 399.867C334.715 400.541 335.261 401.087 335.935 401.087Z" fill="#F0F0F0"/>
<path d="M297.602 286.678C298.276 286.678 298.822 286.132 298.822 285.458C298.822 284.785 298.276 284.238 297.602 284.238C296.928 284.238 296.382 284.785 296.382 285.458C296.382 286.132 296.928 286.678 297.602 286.678Z" fill="#F0F0F0"/>
<path d="M295.89 263.615C296.564 263.615 297.11 263.069 297.11 262.396C297.11 261.722 296.564 261.176 295.89 261.176C295.216 261.176 294.67 261.722 294.67 262.396C294.67 263.069 295.216 263.615 295.89 263.615Z" fill="#F0F0F0"/>
<path d="M362.762 405.055C364.773 399.234 368.139 393.975 372.583 389.71C373.17 389.149 373.773 388.606 374.393 388.083C380.536 382.887 388.132 379.71 396.145 378.986C399.073 383.18 401.628 387.624 403.78 392.265C404.108 392.974 404.427 393.692 404.735 394.421C405.028 395.118 405.312 395.823 405.58 396.536C409.09 405.779 410.457 416.136 405.974 424.764C401.502 433.369 391.816 438.464 382.145 439.17C376.551 439.504 370.944 438.764 365.629 436.989C362.749 431.883 361.057 426.194 360.677 420.344C360.629 419.608 360.605 418.871 360.598 418.131C360.567 413.681 361.299 409.258 362.762 405.055Z" fill="#14B8AA"/>
<path d="M346.616 397.327C348.576 391.682 355.906 388.36 367.26 387.967C369.532 387.887 372.031 388.832 374.393 388.083C385.852 384.449 396.249 386.824 404.735 394.421C405.028 395.118 405.311 395.823 405.58 396.536C405.467 396.494 405.354 396.454 405.24 396.415C393.772 392.436 382.389 390.113 372.583 389.71C370.771 389.637 368.61 388.589 367.319 389.687C356.953 398.507 349.942 394.812 348.243 397.891C345.76 402.389 350.164 409.398 358.135 416.147C358.923 416.815 359.744 417.476 360.598 418.131C360.605 418.871 360.629 419.608 360.677 420.344C359.391 419.394 358.173 418.433 357.022 417.461C348.353 410.12 344.658 402.969 346.616 397.327Z" fill="#E4E4E4"/>
<path d="M389.566 437.306C390.239 437.306 390.785 436.76 390.785 436.087C390.785 435.413 390.239 434.867 389.566 434.867C388.892 434.867 388.346 435.413 388.346 436.087C388.346 436.76 388.892 437.306 389.566 437.306Z" fill="#F0F0F0"/>
<path d="M367.983 421.619C368.657 421.619 369.203 421.073 369.203 420.4C369.203 419.726 368.657 419.18 367.983 419.18C367.309 419.18 366.763 419.726 366.763 420.4C366.763 421.073 367.309 421.619 367.983 421.619Z" fill="#F0F0F0"/>
<path d="M384.495 424.934C391.047 424.934 396.358 419.624 396.358 413.073C396.358 406.523 391.047 401.213 384.495 401.213C377.944 401.213 372.633 406.523 372.633 413.073C372.633 419.624 377.944 424.934 384.495 424.934Z" fill="#F0F0F0"/>
<path opacity="0.3" d="M198.117 281.955C200.89 282.086 206.626 283.462 212.841 285.242C219.052 287.024 225.789 289.198 232.44 291.348C244.084 295.109 255.727 298.869 267.369 302.627C268.97 303.143 270.575 303.663 272.184 304.188C272.8 304.994 273.413 305.808 274.015 306.63C272.6 306.13 271.18 305.647 269.764 305.186C263.714 303.22 258.463 301.923 252.592 300.135C243.555 297.385 234.022 293.773 224.776 290.41C215.531 287.045 204.924 283.422 198.117 281.955Z" fill="#F0F0F0"/>
<path opacity="0.3" d="M405.143 258.079L431.331 301.546L406.62 257.214C406.591 257.074 406.529 256.942 406.439 256.83C406.349 256.718 406.234 256.629 406.102 256.57C405.971 256.511 405.828 256.485 405.684 256.493C405.541 256.501 405.401 256.543 405.277 256.615C405.153 256.688 405.048 256.789 404.971 256.91C404.894 257.031 404.847 257.169 404.834 257.312C404.821 257.456 404.842 257.6 404.896 257.733C404.949 257.866 405.034 257.985 405.143 258.079Z" fill="#F0F0F0"/>
<path d="M392.37 386.359C393.043 386.359 393.59 385.813 393.59 385.139C393.59 384.466 393.043 383.92 392.37 383.92C391.696 383.92 391.15 384.466 391.15 385.139C391.15 385.813 391.696 386.359 392.37 386.359Z" fill="#F0F0F0"/>
<path d="M178.406 382.333C182.725 382.333 186.226 378.833 186.226 374.514C186.226 370.196 182.725 366.695 178.406 366.695C174.087 366.695 170.585 370.196 170.585 374.514C170.585 378.833 174.087 382.333 178.406 382.333Z" fill="#14B8AA"/>
<path d="M173.773 370.222C172.984 370.006 172.253 369.62 171.63 369.091C171.006 368.562 170.507 367.903 170.166 367.16C169.825 366.417 169.651 365.608 169.657 364.791C169.662 363.974 169.847 363.168 170.198 362.429L156.038 348.491L166.136 346.337L178.035 359.903C179.236 360.575 180.15 361.663 180.602 362.963C181.054 364.263 181.013 365.683 180.488 366.955C179.963 368.227 178.989 369.262 177.751 369.864C176.514 370.466 175.098 370.593 173.773 370.222Z" fill="#A0616A"/>
<path d="M106.067 261.745L113.964 266.949L123.208 269.114C123.208 269.114 130.539 321.501 134.141 324.643C137.744 327.785 134.708 328.083 135.684 332.417C136.661 336.752 138.92 345.619 138.92 345.619C116.976 359.219 97.3714 360.879 80.6455 347.854C80.3843 346.996 80.4244 346.074 80.7592 345.242C81.0939 344.409 81.7031 343.716 82.4858 343.277C85.3139 341.521 79.1797 334.64 81.4948 333.262C83.8099 331.883 79.719 321.576 79.719 321.576L80.4328 299.439L78.4453 296.043L81.2451 274.248L88.4626 271.041L90.9338 263.717L106.067 261.745Z" fill="#14B8AA"/>
<path d="M109.489 263.583L122.51 267.918C122.51 267.918 136.915 266.398 137.498 287.836C138.082 309.275 135.398 320.779 135.398 320.779C135.398 320.779 165.361 381.024 132.904 363.231L123.419 325.89L113.643 267.248L109.489 263.583Z" fill="#2F2E41"/>
<path d="M122.548 310.981L129.302 310.048C129.302 310.048 129.954 320.229 133.185 321.772C136.416 323.315 135.327 323.569 135.708 325.203C136.089 326.836 132.835 331.362 135.394 332.487C137.953 333.613 160.321 361.809 160.321 361.809L173.518 349.591C172.611 347.134 168.247 349.134 167.973 346.529C167.629 342.591 160.721 331.832 159.251 330.452C157.78 329.073 158.362 326.641 157.6 323.374C156.838 320.107 157.367 323.137 156.097 317.692C154.827 312.247 137.617 284.504 137.019 279.477C136.42 274.45 129.414 271.49 129.414 271.49L123.969 272.76L122.548 310.981Z" fill="#2F2E41"/>
<path d="M65.5205 492.029L73.4699 494.116L85.3045 464.452L73.572 461.372L65.5205 492.029Z" fill="#A0616A"/>
<path d="M63.0625 500.247L87.5079 506.665L87.5891 506.356C88.2517 503.833 87.8848 501.15 86.5691 498.897C85.2534 496.645 83.0966 495.007 80.5733 494.344L80.5727 494.344L76.9971 489.785L67.7762 490.984L65.6423 490.424L63.0625 500.247Z" fill="#2F2E41"/>
<path d="M106.272 497.975L114.491 497.974L118.401 466.278L106.271 466.279L106.272 497.975Z" fill="#A0616A"/>
<path d="M105.982 506.547L131.257 506.546V506.227C131.256 503.618 130.22 501.117 128.375 499.272C126.53 497.428 124.028 496.391 121.419 496.391H121.419L116.802 492.889L108.188 496.392L105.982 496.392L105.982 506.547Z" fill="#2F2E41"/>
<path d="M85.7155 346.296C83.7301 348.777 84.7228 357.214 84.7228 357.214C84.7228 357.214 81.2483 384.508 82.7374 386.989C84.2264 389.471 81.7447 391.456 80.2556 394.93C78.7666 398.403 77.2776 406.84 77.2776 406.84C68.8396 413.788 69.336 445.548 69.336 445.548L66.3579 473.835C67.3506 476.813 81.2484 477.309 83.2338 476.813C85.2192 476.316 104.577 406.344 104.577 406.344C104.577 406.344 103.584 473.835 103.584 476.813C103.584 479.79 116.985 478.302 119.964 478.302C122.942 478.302 141.803 356.718 141.803 356.718V349.77L139.321 346.296C139.321 346.296 87.7009 343.815 85.7155 346.296Z" fill="#2F2E41"/>
<path d="M90.4268 265.049L78.2379 272.813L72.3423 277.755L80.1626 327.601C80.1626 327.601 68.2811 372.91 87.0054 370.116C105.73 367.323 104.68 326.604 104.68 326.604L90.4268 265.049Z" fill="#2F2E41"/>
<path d="M106.737 335.857C106.033 336.274 105.247 336.531 104.433 336.611C103.62 336.691 102.799 336.591 102.028 336.32C101.257 336.048 100.555 335.61 99.9712 335.038C99.3876 334.466 98.9367 333.772 98.6501 333.007L78.7847 333.486L84.2596 324.733L102.285 325.619C103.603 325.223 105.021 325.324 106.269 325.903C107.518 326.482 108.51 327.499 109.059 328.761C109.608 330.023 109.674 331.443 109.246 332.751C108.818 334.058 107.925 335.164 106.737 335.857Z" fill="#A0616A"/>
<path d="M96.8257 258.308C105.496 258.308 112.524 251.281 112.524 242.612C112.524 233.944 105.496 226.917 96.8257 226.917C88.1555 226.917 81.127 233.944 81.127 242.612C81.127 251.281 88.1555 258.308 96.8257 258.308Z" fill="#A0616A"/>
<path d="M79.0188 232.299C80.7816 229.572 84.0896 227.755 87.2965 228.266C87.595 226.22 88.4492 224.295 89.7662 222.7C91.0832 221.106 92.8125 219.903 94.7658 219.223C96.719 218.543 98.8214 218.412 100.844 218.845C102.867 219.277 104.732 220.255 106.237 221.674C106.731 221.325 107.308 221.111 107.91 221.05C108.512 220.99 109.12 221.086 109.674 221.33C110.778 221.832 111.738 222.602 112.467 223.571C114.307 225.865 115.49 228.616 115.891 231.529C116.292 234.443 115.895 237.41 114.743 240.116C115.135 238.692 113.707 237.352 112.264 237.032C110.822 236.712 109.308 237.015 107.845 236.807C105.97 236.54 104.285 235.452 102.407 235.208C100.828 235.002 99.2412 235.406 97.702 235.812C96.1629 236.218 94.5798 236.631 92.9992 236.443C91.4185 236.256 89.3825 242.245 89.4098 246.463C89.415 247.263 89.2503 248.289 88.4689 248.459C87.5067 248.667 86.9491 247.34 86.0332 246.978C85.6111 246.857 85.1585 246.904 84.7708 247.111C84.3831 247.317 84.0906 247.665 83.9549 248.083C83.8394 248.507 83.8271 248.953 83.9188 249.383C84.0105 249.814 84.2037 250.216 84.4823 250.556C85.0453 251.231 85.7136 251.811 86.4614 252.273L86.0842 252.586C85.4568 253.415 84.1553 253.451 83.2509 252.938C82.3861 252.353 81.6857 251.555 81.2166 250.622C79.5434 247.84 78.0757 244.875 77.4853 241.683C76.8948 238.49 77.2562 235.026 79.0188 232.299Z" fill="#2F2E41"/>
<path d="M84.5617 279.221L77.5072 273.176C77.5072 273.176 69.2704 275.746 67.8738 281.149C56.8806 295.202 50.9602 311.616 49.3701 330.044C63.7223 335.464 81.2962 337.386 100.202 337.863L96.2922 323.202L69.4098 318.316L84.5617 279.221Z" fill="#2F2E41"/>
<path d="M194.529 507.681H161.793C160.301 507.679 158.871 507.086 157.816 506.032C156.762 504.977 156.168 503.547 156.167 502.056V387.226C156.168 385.734 156.762 384.305 157.816 383.25C158.871 382.195 160.301 381.602 161.793 381.6H194.529C196.021 381.602 197.451 382.195 198.506 383.25C199.561 384.305 200.154 385.734 200.156 387.226V502.056C200.154 503.547 199.561 504.977 198.506 506.032C197.451 507.086 196.021 507.679 194.529 507.681Z" fill="#F2F2F2"/>
<path d="M186.799 384.532H170.012C169.451 384.532 168.914 384.309 168.517 383.912C168.121 383.516 167.898 382.978 167.897 382.418V376.385C167.898 375.824 168.121 375.287 168.517 374.89C168.914 374.494 169.451 374.271 170.012 374.27H186.799C187.36 374.271 187.898 374.494 188.294 374.89C188.691 375.287 188.914 375.824 188.914 376.385V382.418C188.914 382.978 188.691 383.516 188.294 383.912C187.898 384.309 187.36 384.532 186.799 384.532Z" fill="#3F3D56"/>
</g>
<defs>
<clipPath id="clip0_863_5041">
<rect width="421" height="317" fill="white" transform="translate(32 191)"/>
</clipPath>
</defs>
</svg>
