<svg width="91" height="101" viewBox="0 0 91 101" fill="none" xmlns="http://www.w3.org/2000/svg">
<g id="undraw_appreciate_it_re_yc8h (1) 1" clip-path="url(#clip0_2250_7285)">
<path id="Vector" d="M72.4225 40.0585V44.7899C71.8359 45.9301 71.2604 47.412 70.6971 49.2679C70.6971 49.2679 71.5602 52.1635 72.4225 55.6623V65.6696H50.8825L49.3863 67.8022H45.2852V77.1758H51.9718V98.7511H53.3609V77.1758H57.2875V98.7511H58.6766V77.1758H72.2894V98.7511H73.6785V77.1758H78.957V98.7511H80.346L80.2905 77.1758H81.7506V40.0585H72.4225Z" fill="#CCCCCC"/>
<g id="Group">
<path id="Vector_2" d="M23.4219 84.636C23.2908 84.4138 22.7234 84.6517 22.6191 84.45C22.5152 84.2491 23.0423 83.9429 23.3435 83.2434C23.3978 83.1173 23.7401 82.3224 23.4867 82.0771C23.0064 81.6122 20.8087 83.5308 20.0396 82.9029C19.8708 82.7652 19.7529 82.4901 19.2421 82.0435C19.0388 81.8658 18.9159 81.7856 18.797 81.8155C18.6283 81.8578 18.6149 82.0848 18.4339 82.531C18.1626 83.2002 18.0021 83.1598 17.8439 83.6938C17.7266 84.0901 17.7534 84.3206 17.6152 84.3655C17.4198 84.429 17.2399 84.0086 16.9922 84.0462C16.7394 84.0846 16.5866 84.5741 16.5383 84.9406C16.4478 85.6284 16.6991 86.0823 16.8384 86.5595C16.9898 87.0781 17.0797 87.8668 16.73 88.9833L13.2695 98.7809C14.0335 96.7704 16.2456 91.2593 17.1751 89.2113C17.4434 88.6201 17.7397 88.0204 18.348 87.7838C18.9337 87.5559 19.7381 87.6919 20.7636 87.4437C20.8834 87.4147 21.2157 87.3297 21.2576 87.1333C21.2921 86.9709 21.0966 86.8802 21.1267 86.7281C21.167 86.5241 21.5514 86.5216 22.0238 86.2862C22.3569 86.1203 22.5645 85.9229 22.7429 85.7531C22.7967 85.702 23.5965 84.9318 23.4219 84.636Z" fill="#F2F2F2"/>
<path id="Vector_3" d="M9.80829 89.7938C9.6619 89.7944 9.61442 90.1429 9.48581 90.1361C9.35767 90.1294 9.36023 89.781 9.1055 89.4307C9.05956 89.3675 8.77007 88.9694 8.57717 89.0235C8.21152 89.1263 8.51449 90.7638 7.98592 90.9619C7.86992 91.0054 7.70155 90.9842 7.33603 91.1073C7.19062 91.1563 7.11598 91.1937 7.09624 91.261C7.06824 91.3565 7.17523 91.4285 7.34097 91.6465C7.58954 91.9735 7.52349 92.041 7.73865 92.273C7.89838 92.4453 8.01867 92.4985 8.00074 92.5796C7.97538 92.6943 7.71813 92.6618 7.66505 92.7948C7.61088 92.9306 7.80587 93.1471 7.97095 93.2767C8.28075 93.5198 8.57493 93.5268 8.84821 93.5958C9.14519 93.6708 9.55634 93.854 10.0008 94.3486L13.7877 98.8822C13.0262 97.9254 10.9727 95.2442 10.2406 94.1949C10.0292 93.892 9.82183 93.5728 9.88176 93.2045C9.93946 92.8499 10.238 92.4924 10.4126 91.915C10.433 91.8476 10.4874 91.6591 10.4035 91.5818C10.3342 91.5179 10.2335 91.5882 10.1679 91.5295C10.0799 91.4507 10.1896 91.2604 10.2109 90.9595C10.226 90.7473 10.1894 90.588 10.158 90.451C10.1485 90.4097 10.0031 89.7931 9.80829 89.7938Z" fill="#F2F2F2"/>
<path id="Vector_4" d="M12.7288 90.4526L12.6406 89.6614L12.6809 89.6015C12.8674 89.3241 12.9624 89.0533 12.9636 88.7962C12.9637 88.7553 12.9618 88.7145 12.9599 88.6728C12.9523 88.5078 12.9428 88.3027 13.0493 88.0635C13.109 87.9302 13.2766 87.6215 13.5286 87.6597C13.5965 87.6693 13.6478 87.7006 13.6868 87.7373C13.6925 87.7281 13.6984 87.719 13.7047 87.709C13.7832 87.5887 13.8453 87.5371 13.9052 87.4875C13.9512 87.4493 13.9987 87.4099 14.0732 87.3167C14.1059 87.2758 14.1314 87.2399 14.1528 87.2098C14.218 87.1185 14.3032 87.0096 14.4534 87.0115C14.6138 87.0191 14.6978 87.1525 14.7535 87.2407C14.8529 87.3981 14.8979 87.5115 14.9278 87.5868C14.9386 87.6143 14.951 87.6452 14.9572 87.6548C15.0089 87.7312 15.4292 87.6598 15.5875 87.6338C15.9431 87.5742 16.2509 87.5226 16.3777 87.748C16.4685 87.9092 16.401 88.1224 16.171 88.3985C16.0994 88.4845 16.0232 88.5498 15.9555 88.601C16.0116 88.6346 16.0617 88.6862 16.0821 88.7672C16.13 88.9589 15.966 89.1511 15.5947 89.339C15.5026 89.386 15.3784 89.4487 15.2045 89.4788C15.1226 89.493 15.0489 89.4964 14.9858 89.4983C14.9844 89.535 14.9759 89.5747 14.9536 89.6156C14.8884 89.7359 14.7527 89.7932 14.5482 89.7795C14.3232 89.7676 14.1378 89.7245 13.9744 89.6867C13.8316 89.6538 13.7087 89.6259 13.6121 89.6324C13.433 89.6469 13.295 89.7909 13.1331 89.9777L12.7288 90.4526Z" fill="#F2F2F2"/>
<path id="Vector_5" d="M13.1369 85.7422L12.3978 86.0286L12.3298 86.0046C12.0155 85.8937 11.7307 85.87 11.483 85.9341C11.4436 85.9443 11.4047 85.9565 11.3651 85.9689C11.2082 86.0182 11.0131 86.0795 10.756 86.0367C10.6125 86.0125 10.2729 85.9278 10.2457 85.6731C10.2377 85.6047 10.2548 85.5469 10.2802 85.4997C10.27 85.4965 10.2596 85.4931 10.2485 85.4895C10.1127 85.4438 10.0473 85.3964 9.98434 85.3508C9.9359 85.3158 9.88598 85.2796 9.77736 85.2308C9.72972 85.2094 9.68869 85.1937 9.6542 85.1805C9.54978 85.1403 9.42338 85.0852 9.38713 84.9387C9.3538 84.7808 9.46082 84.6654 9.53163 84.5889C9.65792 84.4523 9.7557 84.3797 9.82057 84.3316C9.8443 84.3141 9.87095 84.2943 9.87855 84.2858C9.93898 84.2161 9.76362 83.8257 9.69846 83.6784C9.55089 83.3479 9.4232 83.0619 9.60799 82.8815C9.74012 82.7522 9.96242 82.7638 10.2866 82.9173C10.3875 82.9651 10.4697 83.0226 10.5362 83.0754C10.5543 83.0124 10.5912 82.9505 10.664 82.9102C10.8365 82.815 11.063 82.9257 11.3381 83.2389C11.4067 83.3166 11.4985 83.4213 11.5717 83.5827C11.6061 83.6588 11.6281 83.7296 11.6459 83.7904C11.6816 83.7824 11.722 83.7807 11.767 83.7919C11.8993 83.8248 11.9889 83.9421 12.0275 84.1444C12.0732 84.3662 12.0787 84.5572 12.0837 84.7257C12.0883 84.8728 12.0927 84.9994 12.1234 85.0916C12.1828 85.262 12.3564 85.3596 12.5773 85.4696L13.1369 85.7422Z" fill="#F2F2F2"/>
<path id="Vector_6" d="M12.7288 83.4115L12.6406 82.6204L12.6809 82.5604C12.8674 82.2831 12.9624 82.0122 12.9636 81.7551C12.9637 81.7143 12.9618 81.6734 12.9599 81.6318C12.9523 81.4667 12.9428 81.2616 13.0493 81.0225C13.109 80.8892 13.2766 80.5805 13.5286 80.6187C13.5965 80.6283 13.6478 80.6596 13.6868 80.6962C13.6925 80.6871 13.6984 80.6779 13.7047 80.668C13.7832 80.5476 13.8453 80.4961 13.9052 80.4464C13.9512 80.4082 13.9987 80.3689 14.0732 80.2757C14.1059 80.2348 14.1314 80.1989 14.1528 80.1687C14.218 80.0774 14.3032 79.9685 14.4534 79.9705C14.6138 79.9781 14.6978 80.1114 14.7535 80.1997C14.8529 80.357 14.8979 80.4705 14.9278 80.5457C14.9386 80.5733 14.951 80.6042 14.9572 80.6137C15.0089 80.6901 15.4292 80.6187 15.5875 80.5927C15.9431 80.5331 16.2509 80.4816 16.3777 80.7069C16.4685 80.8682 16.401 81.0813 16.171 81.3575C16.0994 81.4435 16.0232 81.5088 15.9555 81.56C16.0116 81.5936 16.0617 81.6451 16.0821 81.7261C16.13 81.9179 15.966 82.11 15.5947 82.298C15.5026 82.345 15.3784 82.4076 15.2045 82.4378C15.1226 82.4519 15.0489 82.4554 14.9858 82.4573C14.9844 82.4939 14.9759 82.5337 14.9536 82.5746C14.8884 82.6949 14.7527 82.7522 14.5482 82.7384C14.3232 82.7266 14.1378 82.6834 13.9744 82.6456C13.8316 82.6128 13.7087 82.5849 13.6121 82.5914C13.433 82.6059 13.295 82.7499 13.1331 82.9367L12.7288 83.4115Z" fill="#F2F2F2"/>
<path id="Vector_7" d="M13.5342 98.768L13.3692 98.6641L13.1769 98.6862C13.1738 98.6683 13.1634 98.627 13.1476 98.5625C13.0615 98.2087 12.799 97.1322 12.58 95.4369C12.4272 94.2535 12.3407 93.0368 12.3229 91.8201C12.305 90.6016 12.3624 89.679 12.4084 88.9376C12.4432 88.3783 12.4854 87.8458 12.5268 87.327C12.6371 85.9411 12.741 84.632 12.6637 83.1827C12.6466 82.8592 12.6106 82.1857 12.2191 81.4691C11.992 81.0534 11.6791 80.6844 11.2891 80.3727L11.5316 80.0663C11.9621 80.4109 12.3082 80.8197 12.5605 81.2811C12.9946 82.0757 13.0337 82.8095 13.0526 83.1621C13.1313 84.637 13.0261 85.9587 12.9148 87.358C12.8737 87.8748 12.8315 88.405 12.7969 88.962C12.7513 89.6966 12.6945 90.6111 12.7121 91.814C12.7296 93.0162 12.8152 94.218 12.9659 95.3865C13.1822 97.0604 13.4409 98.1209 13.5258 98.4692C13.5711 98.6553 13.5806 98.6942 13.5342 98.768Z" fill="#F2F2F2"/>
<path id="Vector_8" d="M10.5753 80.9942C10.5593 80.9942 10.5432 80.9938 10.5268 80.9927C10.1954 80.9747 9.88839 80.7753 9.61431 80.4002C9.48582 80.2237 9.42005 80.0224 9.2889 79.6209C9.26856 79.559 9.16972 79.245 9.10966 78.813C9.07031 78.5307 9.07526 78.4126 9.13095 78.3084C9.19272 78.1922 9.2927 78.1112 9.40523 78.0566C9.40029 78.0192 9.40427 77.9806 9.42043 77.9413C9.48677 77.7781 9.66315 77.7995 9.75857 77.8098C9.80685 77.816 9.8671 77.824 9.93211 77.8205C10.0344 77.8156 10.0893 77.785 10.1726 77.7392C10.2522 77.6952 10.3512 77.6406 10.4981 77.6104C10.7878 77.5497 11.0305 77.6322 11.1106 77.6593C11.5316 77.8003 11.7391 78.1292 11.9794 78.51C12.0273 78.5864 12.1917 78.8645 12.3002 79.2458C12.3785 79.5208 12.3675 79.6431 12.3439 79.734C12.296 79.9208 12.183 80.0277 11.8958 80.2638C11.5958 80.511 11.4453 80.6347 11.316 80.71C11.0151 80.8846 10.8262 80.9942 10.5753 80.9942Z" fill="#F2F2F2"/>
</g>
<path id="Vector_9" d="M90.5687 98.7462C90.5687 98.8186 90.5103 98.8773 90.4382 98.8773H0V98.6151H90.4382C90.5103 98.6151 90.5687 98.6738 90.5687 98.7462Z" fill="#E6E6E6"/>
<g id="Group_2">
<g id="Group_3">
<path id="uuid-ab5b4137-23bf-44b0-b8fd-0caecc79ac33-343" d="M40.7866 28.4528C39.8673 27.3734 38.5678 26.9752 37.8843 27.5632C37.2008 28.1513 37.3921 29.5028 38.312 30.5824C38.6735 31.0188 39.1338 31.3618 39.6543 31.5827L43.6071 36.1068L45.6803 34.1975L41.5634 29.9403C41.4264 29.3893 41.16 28.8792 40.7866 28.4528Z" fill="#FFB6B6"/>
<path id="Vector_10" d="M70.4561 33.9697C70.4561 33.9697 71.3207 37.9464 67.8891 39.2144C64.4575 40.4824 55.565 45.3512 54.9067 45.1281C54.2485 44.905 52.095 45.9942 49.5533 43.6705C47.0116 41.3468 40.8711 34.3413 40.8711 34.3413L43.3969 30.8942L52.9065 37.4956C52.9065 37.4956 53.1099 37.435 54.0114 37.3411C54.9128 37.2471 54.2078 37.8186 55.6179 36.6757C57.0279 35.5329 66.0276 31.4371 66.0276 31.4371C66.0276 31.4371 68.6684 30.1221 70.4561 33.9697Z" fill="#2F2E41"/>
</g>
<path id="Vector_11" d="M48.0159 89.4434L49.4139 93.9702L45.5305 96.6238L42.7344 94.1263C42.7344 94.1263 43.8217 90.2239 43.3557 89.2873L48.0159 89.4434Z" fill="#FFB6B6"/>
<path id="Vector_12" d="M67.7441 25.2877L69.9715 30.225L63.4546 34.2958L63.084 28.4096L67.7441 25.2877Z" fill="#FFB6B6"/>
<path id="Vector_13" opacity="0.1" d="M67.7441 25.2877L69.9715 30.225L63.4546 34.2958L63.084 28.4096L67.7441 25.2877Z" fill="black"/>
<path id="Vector_14" d="M65.1835 29.6893C67.797 29.6893 69.9158 27.5602 69.9158 24.9339C69.9158 22.3076 67.797 20.1785 65.1835 20.1785C62.5699 20.1785 60.4512 22.3076 60.4512 24.9339C60.4512 27.5602 62.5699 29.6893 65.1835 29.6893Z" fill="#FFB6B6"/>
<path id="Vector_15" d="M63.3938 33.2486L70.0734 28.7218L68.986 66.9655C68.986 66.9655 63.4715 57.3655 59.2773 56.8972C59.2773 56.8972 59.7434 55.8045 60.054 55.1802C60.3647 54.5558 60.8307 51.4338 60.8307 51.4338L63.0055 34.5754L63.3938 33.2486Z" fill="#FF7A11"/>
<path id="Vector_16" d="M68.7544 72.8191L62.8516 51.9021C62.8516 51.9021 63.7836 35.0437 70.0748 28.7218L71.5505 30.9852C71.5505 30.9852 73.0097 31.2027 72.7461 32.1866C72.4826 33.1705 78.5408 69.385 78.5408 69.385H72.2618C72.2618 69.385 71.7059 72.8191 68.7544 72.8191Z" fill="#2F2E41"/>
<path id="Vector_17" d="M63.3955 33.2486V32.6242C63.3955 32.6242 60.5217 32.8584 60.3664 34.5754C60.2111 36.2925 58.9684 43.0047 60.2111 47.0632L58.6577 49.5607L57.5703 55.4924L60.9878 56.429L62.8518 42.0244C62.8518 42.0244 64.0945 34.4193 63.3955 33.2486Z" fill="#2F2E41"/>
<path id="Vector_18" d="M68.91 62.985C68.91 62.985 71.5507 70.6338 65.9585 70.7899C60.3663 70.946 51.6545 70.946 51.6545 70.946L47.3179 73.2874L48.5606 90.3019L39.8616 90.458C39.8616 90.458 37.0655 69.5411 39.5509 67.0435C42.0364 64.546 49.182 61.8923 49.182 61.8923L57.4149 57.6777L59.7303 54.8532L68.91 62.985Z" fill="#2F2E41"/>
<path id="Vector_19" d="M69.2253 27.7072C69.5553 27.5893 72.6442 23.9514 70.0734 21.5413C70.0734 21.5413 69.0716 18.5972 65.0765 18.906C61.0815 19.2148 60.0059 21.4105 60.0059 22.5516C60.0059 23.6926 61.0637 24.9755 61.0637 24.9755C61.0637 24.9755 60.3132 21.8397 62.0034 21.9941C63.6936 22.1485 63.2327 22.7661 64.4619 22.4573C65.6912 22.1485 66.9204 22.6117 66.9204 22.6117L68.1497 23.0749V24.9588C68.1497 24.9588 68.6857 24.5266 68.725 24.9588C68.7643 25.3911 69.2253 27.7072 69.2253 27.7072Z" fill="#2F2E41"/>
<path id="Vector_20" d="M42.5007 66.263L42.3453 71.102L36.2871 70.0094C36.2871 70.0094 38.8883 65.7075 38.5198 64.5023L42.5007 66.263Z" fill="#FFB6B6"/>
<path id="Vector_21" d="M41.8811 70.0094C41.8811 70.0094 42.9684 70.0094 42.9684 70.6337C42.9684 71.2581 44.6772 76.0971 41.4151 76.2532C38.1529 76.4093 38.3083 75.7849 38.3083 75.7849C38.3083 75.7849 29.1433 79.9995 25.8812 73.7557C25.8812 73.7557 25.1045 72.1947 26.9685 71.8825C28.8326 71.5703 36.2889 68.9566 36.2889 68.9566C36.2889 68.9566 40.6384 70.6337 41.8811 70.0094Z" fill="#2F2E41"/>
<path id="Vector_22" d="M48.1716 93.9702C48.1716 93.9702 49.259 92.6465 49.4143 92.762C49.5697 92.8775 52.9871 96.78 50.657 97.8726C48.3269 98.9653 47.0842 99.4336 47.0842 99.4336L46.4629 98.497C46.4629 98.497 41.8027 103.024 34.6571 99.9019C34.6571 99.9019 34.0358 98.497 35.4338 98.1848C36.8319 97.8726 42.7347 93.116 42.7347 93.116C42.7347 93.116 45.2202 94.9068 46.4629 94.5946C47.7056 94.2824 48.1716 93.9702 48.1716 93.9702Z" fill="#2F2E41"/>
<path id="Vector_23" d="M59.278 56.429C59.278 56.429 44.7538 49.0144 43.5111 49.0144C42.2684 49.0144 39.893 49.5281 39.372 51.9249C38.8509 54.3217 35.7441 65.8728 35.7441 65.8728L43.3557 67.746L46.3072 59.4729L51.1227 63.8436L59.278 58.9566V56.429Z" fill="#2F2E41"/>
<g id="Group_4">
<path id="uuid-9122ce6e-50cf-4901-97fd-d5a56bf7c6b1-344" d="M52.4401 53.5646C51.0412 53.7709 50.0132 54.6635 50.144 55.5581C50.2748 56.4527 51.5148 57.0104 52.9141 56.8038C53.4743 56.729 54.0084 56.5205 54.4719 56.1957L60.388 55.2463L59.8855 52.4659L54.1066 53.6971C53.5696 53.5198 52.9981 53.4744 52.4401 53.5646Z" fill="#FFB6B6"/>
<path id="Vector_24" d="M72.8994 31.2793C72.8994 31.2793 76.7086 32.6639 75.9472 36.2574C75.1858 39.8509 74.5453 50.0068 74.0066 50.4475C73.4678 50.8883 73.2371 53.2998 69.9258 54.2223C66.6145 55.1447 57.1123 59.2277 57.1123 59.2277L55.8867 52.6465L66.5139 48.0798C66.5139 48.0798 66.5713 47.8746 66.9727 47.0581C67.3741 46.2416 67.4795 47.1456 67.2688 45.3376C67.0581 43.5295 68.4065 33.6947 68.4065 33.6947C68.4065 33.6947 68.7069 30.7484 72.8994 31.2793Z" fill="#2F2E41"/>
</g>
<path id="Vector_25" d="M38.5019 2.17537C38.4827 2.19411 38.465 2.21382 38.446 2.23271C35.4836 -0.721348 30.7126 -0.747337 27.7184 2.17425C24.7136 5.10736 24.612 9.9224 27.4905 12.9808L27.4886 12.9826L27.5603 13.0568L38.1602 24.024L49.148 13.3003L49.1175 13.2687C49.1359 13.251 49.1551 13.2346 49.1735 13.2167C52.2077 10.2555 52.2784 5.38321 49.3315 2.33421C46.3847 -0.71478 41.536 -0.785891 38.5019 2.17537Z" fill="#FF7A11"/>
</g>
</g>
<defs>
<clipPath id="clip0_2250_7285">
<rect width="90.5687" height="101" fill="white"/>
</clipPath>
</defs>
</svg>
