<svg width="202" height="219" viewBox="0 0 202 219" fill="none" xmlns="http://www.w3.org/2000/svg">
<g clip-path="url(#clip0_3328_12011)">
<path d="M0 118C0 62.2192 45.2192 17 101 17C156.781 17 202 62.2192 202 118V219L0 219L0 118Z" fill="#A7B7BE"/>
<path d="M24.7819 214.239C28.3879 219.953 32.7808 225.129 37.8313 229.617C37.9467 229.722 38.0652 229.823 38.1837 229.926L48.9668 223.521C48.8871 223.412 48.799 223.291 48.7046 223.158C43.0744 215.321 17.6469 163.187 17.4916 151.642C17.472 152.598 8.34064 188.479 24.7819 214.239Z" fill="white"/>
<path d="M35.7496 230.853C35.9161 230.928 36.0862 231 36.2575 231.07L44.3472 226.264C44.221 226.191 44.0735 226.105 43.9046 226.008C41.1352 224.391 32.895 219.531 24.7817 214.239C16.0641 208.55 7.48817 202.366 6 199.167C6.30968 199.903 15.9081 222.27 35.7496 230.853Z" fill="white"/>
<path d="M190.302 199.298C190.121 206.051 188.989 212.745 186.941 219.183C186.895 219.332 186.845 219.479 186.796 219.629H174.253C174.266 219.495 174.279 219.345 174.293 219.183C175.129 209.57 170.351 151.765 164.586 141.761C165.091 142.573 191.275 168.756 190.302 199.298Z" fill="white"/>
<path d="M189.361 219.182C189.256 219.332 189.147 219.481 189.035 219.628H179.625C179.696 219.501 179.779 219.352 179.875 219.182C181.429 216.378 186.03 207.992 190.301 199.298C194.889 189.956 199.102 180.259 198.747 176.75C198.857 177.541 202.033 201.671 189.361 219.182Z" fill="white"/>
<path d="M20.4733 46.3804H84.9186C88.0284 46.3804 91.0457 47.4382 93.4745 49.3799C95.9033 51.3216 97.599 54.0316 98.283 57.0646L130.846 201.464C131.201 203.039 131.207 204.672 130.864 206.25C130.521 207.828 129.837 209.311 128.86 210.597C127.883 211.882 126.636 212.938 125.207 213.691C123.779 214.444 122.202 214.875 120.589 214.954L54.3393 218.218C50.7918 218.392 47.3019 217.271 44.5208 215.062C41.7398 212.853 39.8575 209.709 39.2253 206.214L20.7536 104.123L17.2595 84.8114L12.1035 56.3139C11.8826 55.0933 11.9338 53.8391 12.2534 52.6405C12.5731 51.442 13.1532 50.3287 13.9526 49.38C14.7519 48.4313 15.7508 47.6707 16.8779 47.1522C18.005 46.6337 19.2327 46.3702 20.4733 46.3804Z" fill="#3F3D56"/>
<path d="M76.4338 49.4934H83.9565C86.1169 49.4934 88.2123 50.2321 89.8949 51.5868C91.5774 52.9415 92.746 54.8308 93.2065 56.941L124.462 200.162C124.642 200.986 124.642 201.84 124.462 202.665C124.282 203.489 123.925 204.265 123.418 204.939C122.91 205.614 122.263 206.171 121.52 206.572C120.777 206.973 119.957 207.209 119.114 207.265L53.0786 211.591C51.2156 211.714 49.3729 211.146 47.9021 209.996C46.4313 208.846 45.4354 207.195 45.1044 205.358L18.4335 57.3257C18.2609 56.3676 18.3007 55.3832 18.5502 54.4422C18.7996 53.5011 19.2526 52.6262 19.8771 51.8793C20.5017 51.1324 21.2826 50.5316 22.1648 50.1193C23.047 49.7071 24.0089 49.4934 24.9827 49.4934H32.1191C32.8099 49.4934 33.4813 49.7211 34.0296 50.1411C34.5778 50.5612 34.9722 51.1502 35.1518 51.8169C35.3103 52.4056 35.6585 52.9256 36.1425 53.2964C36.6265 53.6673 37.2192 53.8682 37.829 53.8682H71.7083C72.9024 53.8682 74.0524 53.4176 74.9285 52.6066C75.8046 51.7955 76.3422 50.6837 76.4338 49.4934Z" fill="white"/>
<path fill-rule="evenodd" clip-rule="evenodd" d="M53.7271 106.571C54.4752 105.324 55.8676 105.191 56.8372 106.276L74.9427 126.534L88.9129 103.231C89.6609 101.983 91.0533 101.851 92.0229 102.936C92.9924 104.021 93.1719 105.912 92.4238 107.16L78.4536 130.463L96.5592 150.721C97.5287 151.806 97.7082 153.697 96.9601 154.945C96.212 156.193 94.8196 156.325 93.8501 155.24L75.7446 134.982L61.7744 158.285C61.0263 159.533 59.6339 159.665 58.6644 158.58C57.6949 157.495 57.5154 155.604 58.2635 154.357L72.2336 131.053L54.1281 110.795C53.1586 109.71 52.9791 107.819 53.7271 106.571Z" fill="#E33838"/>
<path d="M109.761 95.4027C109.972 95.5392 110.172 95.6921 110.359 95.86L132.188 90.2967L133.678 85.0317L141.919 86.2401L140.189 95.8168C140.049 96.5904 139.662 97.2979 139.086 97.8329C138.509 98.3679 137.775 98.7017 136.993 98.784L111.505 101.468C111.09 102.342 110.418 103.069 109.579 103.553C108.74 104.036 107.774 104.253 106.809 104.173C105.844 104.094 104.925 103.724 104.176 103.11C103.427 102.497 102.883 101.67 102.615 100.739C102.348 99.809 102.37 98.8193 102.679 97.9018C102.988 96.9843 103.569 96.1826 104.344 95.6032C105.12 95.0239 106.054 94.6944 107.021 94.6586C107.989 94.6227 108.945 94.8823 109.761 95.4027Z" fill="#FFB6B6"/>
<path d="M95.5 88C100.747 88 105 83.5228 105 78C105 72.4772 100.747 68 95.5 68C90.2533 68 86 72.4772 86 78C86 83.5228 90.2533 88 95.5 88Z" fill="#FF7A11"/>
<path d="M101.584 59H89.4148L82.0678 23.6201C81.879 21.7726 82.0856 19.9067 82.6742 18.1427C83.2628 16.3786 84.2203 14.7556 85.4851 13.3781C86.7499 12.0007 88.2938 10.8994 90.0174 10.1453C91.7409 9.39127 93.6059 9.0011 95.492 9C97.3781 8.9989 99.2435 9.38689 100.968 10.139C102.692 10.891 104.238 11.9905 105.504 13.3664C106.771 14.7424 107.73 16.3644 108.321 18.1277C108.912 19.8911 109.12 21.7567 108.934 23.6044L101.584 59Z" fill="#FF7A11"/>
<path d="M143.393 91.0191L137.769 95.8692L129.902 102.649L126.427 84.8747L126.064 83.0264L125.777 81.5595L133.749 67.6768L140.395 68.0582L140.849 68.0855L140.858 68.1854L140.963 69.1164L142.325 81.3688L142.357 81.664L143.393 91.0191Z" fill="#FF7A11"/>
<path d="M106.637 212.579L101.068 212.578L98.418 191.103L106.637 191.104L106.637 212.579Z" fill="#FFB6B6"/>
<path d="M108.058 217.975L90.1016 217.975V217.748C90.1017 215.894 90.8381 214.117 92.1488 212.807C93.4595 211.497 95.2372 210.76 97.0908 210.76H97.0912L108.058 210.761L108.058 217.975Z" fill="#2F2E41"/>
<path d="M164.781 213.033L159.212 213.032L156.562 191.557L164.782 191.558L164.781 213.033Z" fill="#FFB6B6"/>
<path d="M166.199 218.429L148.242 218.429V218.202C148.242 216.349 148.979 214.571 150.289 213.261C151.6 211.951 153.378 211.214 155.231 211.214H155.232L166.199 211.215L166.199 218.429Z" fill="#2F2E41"/>
<path d="M169.232 203.576L154.242 205.846L132.434 132.059L109.272 206.3L92.4648 204.03L114.269 117.745V110.933L117.221 100.715L116.912 97.9492L114.764 78.6078L113.832 70.22L113.772 69.6781C113.721 69.2234 113.842 68.7661 114.11 68.3954C114.378 68.0246 114.775 67.7668 115.222 67.6723L122.218 66.2009H133.651L140.397 68.0583L140.86 68.1855L141.069 68.2445L140.964 69.1165L139.384 82.368L139.297 83.0946L137.771 95.8693L137.435 98.6713C150.608 108.208 151.062 117.745 151.062 117.745L169.232 203.576Z" fill="#2F2E41"/>
<path d="M126.551 60.4556C132.713 60.4556 137.708 55.4618 137.708 49.3016C137.708 43.1415 132.713 38.1477 126.551 38.1477C120.39 38.1477 115.395 43.1415 115.395 49.3016C115.395 55.4618 120.39 60.4556 126.551 60.4556Z" fill="#FFB6B6"/>
<path d="M138.269 96.1084L116.199 98.9939L116.612 102.146L138.682 99.2605L138.269 96.1084Z" fill="#3F3D56"/>
<path d="M86.5971 99.9439C86.8081 100.08 87.0081 100.233 87.195 100.401L109.024 94.8379L110.513 89.573L118.755 90.7814L117.025 100.358C116.885 101.132 116.498 101.839 115.922 102.374C115.345 102.909 114.611 103.243 113.829 103.325L88.341 106.009C87.9255 106.883 87.2537 107.61 86.4148 108.094C85.5758 108.577 84.6096 108.794 83.6445 108.715C82.6795 108.636 81.7614 108.265 81.0123 107.651C80.2632 107.038 79.7187 106.211 79.4512 105.281C79.1837 104.35 79.2058 103.361 79.5147 102.443C79.8235 101.526 80.4045 100.724 81.1802 100.144C81.956 99.5651 82.8898 99.2356 83.8574 99.1998C84.825 99.164 85.7806 99.4235 86.5971 99.9439Z" fill="#FFB6B6"/>
<path d="M120.17 70.5152L116.309 67.5633C115.265 67.1674 113.835 68.2922 113.584 69.3798L108.133 91.6322L119.489 99.8066L121.079 97.3089L120.17 70.5152Z" fill="#FF7A11"/>
<g opacity="0.2">
<path d="M142.325 81.3689C141.362 81.7513 140.379 82.0848 139.382 82.368C139.064 82.4633 138.737 82.5542 138.414 82.6404C136.288 83.2301 134.104 83.5835 131.9 83.694C130.952 83.7341 130.002 83.7083 129.057 83.6168C128.043 83.5158 127.04 83.3181 126.064 83.0264C126.032 83.0174 125.995 83.0083 125.964 82.9992C123.932 82.4226 122.07 81.3649 120.535 79.9157C120.192 79.5818 119.872 79.2252 119.577 78.8485C118.729 77.8099 118.106 76.6059 117.75 75.3133C117.393 74.0208 117.31 72.6681 117.506 71.3417C117.543 71.1013 117.595 70.8632 117.66 70.6287C117.831 69.9896 118.058 69.3666 118.337 68.7667C118.459 68.4852 118.596 68.2082 118.741 67.9357L123.874 66.2009H133.649L140.395 68.0583L140.849 68.0856L140.858 68.1855L141.067 68.2445L140.963 69.1164L142.325 81.3689Z" fill="black"/>
</g>
<path d="M118.002 40.0674C115.915 39.8117 113.625 39.9925 111.999 41.3241C110.373 42.6558 109.848 45.424 111.388 46.8547C112.751 48.1213 114.882 47.8235 116.708 48.1836C118.281 48.5361 119.69 49.4058 120.71 50.6537C121.73 51.9017 122.302 53.4555 122.333 55.0667C122.306 59.6871 117.871 63.1861 117.074 67.7374C116.53 70.8435 117.841 74.1125 120.106 76.3067C122.372 78.5008 125.486 79.6866 128.624 80.0077C131.761 80.3289 134.934 79.8383 137.984 79.0324C141.046 78.2231 144.061 77.0749 146.63 75.2232C149.199 73.3715 151.305 70.7611 152.13 67.7038C152.955 64.6465 152.363 61.1412 150.237 58.7938C147.803 56.1058 143.753 55.1814 141.648 52.229C139.287 48.9194 140.161 44.2062 138.25 40.6181C136.975 38.2225 134.56 36.5886 131.985 35.7278C129.411 34.867 126.662 34.6971 123.949 34.6138C122.523 34.5699 121.053 34.5553 119.724 35.0752C118.396 35.595 117.228 36.7796 117.159 38.2044C117.09 39.6292 118.002 40.0674 118.002 40.0674Z" fill="#2F2E41"/>
</g>
<defs>
<clipPath id="clip0_3328_12011">
<rect width="202" height="219" fill="white"/>
</clipPath>
</defs>
</svg>
