<svg width="61" height="61" viewBox="0 0 61 61" fill="none" xmlns="http://www.w3.org/2000/svg">
<g id="Icons">
<g id="Union">
<path d="M24.6797 14.7129C24.6797 18.6447 21.4923 21.832 17.5605 21.832C13.6288 21.832 10.4414 18.6447 10.4414 14.7129C10.4414 10.7811 13.6288 7.59375 17.5605 7.59375C21.4923 7.59375 24.6797 10.7811 24.6797 14.7129Z" fill="#01988C"/>
<path fill-rule="evenodd" clip-rule="evenodd" d="M37.0195 8.85937C37.0195 8.16039 37.5862 7.59375 38.2852 7.59375H42.3984C43.0974 7.59375 43.6641 8.16039 43.6641 8.85937V13.0589C43.6641 13.7579 44.2307 14.3246 44.9297 14.3246H49.043C49.742 14.3246 50.3086 14.8912 50.3086 15.5902V19.7898C50.3086 20.4888 49.742 21.0554 49.043 21.0554H44.9297C44.2307 21.0554 43.6641 21.622 43.6641 22.321V24.1854C43.6641 24.7284 44.0143 25.2035 44.5106 25.4236C48.0226 26.981 50.3086 30.4595 50.3086 34.517C50.3086 40.2382 45.9897 44.6133 40.3418 44.6133C34.6939 44.6133 30.375 40.2382 30.375 34.517C30.375 30.4595 32.661 26.981 36.173 25.4236C36.6693 25.2035 37.0195 24.7284 37.0195 24.1854V8.85937ZM37.0195 34.517C37.0195 36.5363 38.3484 37.8825 40.3418 37.8825C42.3352 37.8825 43.6641 36.5363 43.6641 34.517C43.6641 32.4978 42.3352 31.1516 40.3418 31.1516C38.3484 31.1516 37.0195 32.4978 37.0195 34.517Z" fill="#01988C"/>
<path d="M8.95816 35.7853C9.54134 36.0883 9.83293 36.2397 9.90102 36.2873C10.3174 36.5785 10.3641 36.6555 10.4305 37.1591C10.4414 37.2415 10.4414 37.3545 10.4414 37.5806V50.3086C10.4414 50.6024 10.4414 50.7494 10.4536 50.8731C10.572 52.0749 11.5228 53.0257 12.7246 53.1441C12.8483 53.1562 12.9952 53.1562 13.2891 53.1562C13.5829 53.1562 13.7298 53.1562 13.8536 53.1441C15.0554 53.0257 16.0062 52.0749 16.1245 50.8731C16.1367 50.7494 16.1367 50.6024 16.1367 50.3086V43.1895C16.1367 42.4031 16.7742 41.7656 17.5605 41.7656C18.3469 41.7656 18.9844 42.4031 18.9844 43.1895V50.3086C18.9844 50.6024 18.9844 50.7494 18.9966 50.8731C19.1149 52.0749 20.0657 53.0257 21.2675 53.1441C21.3913 53.1562 21.5382 53.1562 21.832 53.1562C22.1259 53.1562 22.2728 53.1562 22.3965 53.1441C23.5983 53.0257 24.5491 52.0749 24.6675 50.8731C24.6797 50.7494 24.6797 50.6024 24.6797 50.3086V31.7988C24.6797 31.6519 24.6797 31.5784 24.6858 31.5166C24.745 30.9157 25.2204 30.4403 25.8213 30.3811C25.8831 30.375 25.9566 30.375 26.1035 30.375H27.5273C27.8212 30.375 27.9681 30.375 28.0919 30.3628C29.2936 30.2444 30.2444 29.2936 30.3628 28.0919C30.375 27.9681 30.375 27.8212 30.375 27.5273C30.375 27.2335 30.375 27.0866 30.3628 26.9628C30.2444 25.7611 29.2936 24.8102 28.0919 24.6919C27.9681 24.6797 27.8212 24.6797 27.5273 24.6797L20.6555 24.6797C20.6385 24.6797 20.6215 24.6797 20.6044 24.6797H11.6691C10.2275 24.6797 9.50678 24.6797 8.95816 24.9647C8.49584 25.2048 8.11889 25.5818 7.87873 26.0441C7.59375 26.5927 7.59375 27.3135 7.59375 28.755V31.995C7.59375 33.4365 7.59375 34.1573 7.87873 34.7059C8.11889 35.1682 8.49584 35.5452 8.95816 35.7853Z" fill="#01988C"/>
</g>
</g>
</svg>
