<svg width="17" height="17" viewBox="0 0 17 17" fill="none" xmlns="http://www.w3.org/2000/svg">
<path fill-rule="evenodd" clip-rule="evenodd" d="M0.276621 0.276621C0.64545 -0.0922071 1.24344 -0.0922071 1.61227 0.276621L8.5 7.16435L15.3877 0.276622C15.7566 -0.0922061 16.3545 -0.0922061 16.7234 0.276622C17.0922 0.645451 17.0922 1.24344 16.7234 1.61227L9.83565 8.5L16.7234 15.3877C17.0922 15.7566 17.0922 16.3545 16.7234 16.7234C16.3545 17.0922 15.7566 17.0922 15.3877 16.7234L8.5 9.83565L1.61227 16.7234C1.24344 17.0922 0.64545 17.0922 0.276621 16.7234C-0.092207 16.3545 -0.092207 15.7566 0.276621 15.3877L7.16435 8.5L0.276621 1.61227C-0.0922071 1.24344 -0.0922071 0.64545 0.276621 0.276621Z" fill="#01988C"/>
</svg>
